<svg width="20" height="20" viewBox="0 0 20 20" fill="none" xmlns="http://www.w3.org/2000/svg">
<path fill-rule="evenodd" clip-rule="evenodd" d="M3.03828 3.03828C1.50034 4.57622 3.37046 8.93984 7.21531 12.7847C11.0602 16.6295 15.4238 18.4997 16.9617 16.9617C18.4997 15.4238 16.6295 11.0602 12.7847 7.21531C8.93984 3.37046 4.57622 1.50034 3.03828 3.03828Z" fill="white"/>
<path opacity="0.3" fill-rule="evenodd" clip-rule="evenodd" d="M16.9617 3.03828C15.4238 1.50034 11.0602 3.37046 7.21531 7.21531C3.37046 11.0602 1.50034 15.4238 3.03828 16.9617C4.57622 18.4997 8.93984 16.6295 12.7847 12.7847C16.6295 8.93984 18.4997 4.57622 16.9617 3.03828Z" fill="#6A6D71"/>
<path fill-rule="evenodd" clip-rule="evenodd" d="M16.9617 3.03828C15.4238 1.50034 11.0602 3.37046 7.21531 7.21531C3.37046 11.0602 1.50034 15.4238 3.03828 16.9617C4.57622 18.4997 8.93984 16.6295 12.7847 12.7847C16.6295 8.93984 18.4997 4.57622 16.9617 3.03828Z" stroke="#6A6D71" stroke-width="1.5" stroke-linecap="round" stroke-linejoin="round"/>
<path fill-rule="evenodd" clip-rule="evenodd" d="M3.03828 3.03828C1.50034 4.57622 3.37046 8.93984 7.21531 12.7847C11.0602 16.6295 15.4238 18.4997 16.9617 16.9617C18.4997 15.4238 16.6295 11.0602 12.7847 7.21531C8.93984 3.37046 4.57622 1.50034 3.03828 3.03828Z" stroke="#6A6D71" stroke-width="1.5" stroke-linecap="round" stroke-linejoin="round"/>
<path fill-rule="evenodd" clip-rule="evenodd" d="M10.0075 10H10H10.0075Z" fill="#6A6D71"/>
<path d="M10.0075 10H10" stroke="#6A6D71" stroke-width="2" stroke-linecap="round" stroke-linejoin="round"/>
</svg>
