<svg width="25" height="25" viewBox="0 0 25 25" fill="none" xmlns="http://www.w3.org/2000/svg">
<path fill-rule="evenodd" clip-rule="evenodd" d="M3.79785 3.79785C1.87542 5.72027 4.21307 11.1748 9.01914 15.9809C13.8252 20.7869 19.2797 23.1246 21.2022 21.2022C23.1246 19.2797 20.7869 13.8252 15.9809 9.01914C11.1748 4.21307 5.72027 1.87542 3.79785 3.79785Z" fill="white"/>
<path opacity="0.3" fill-rule="evenodd" clip-rule="evenodd" d="M21.2022 3.79785C19.2797 1.87542 13.8252 4.21307 9.01914 9.01914C4.21307 13.8252 1.87542 19.2797 3.79785 21.2022C5.72027 23.1246 11.1748 20.7869 15.9809 15.9809C20.7869 11.1748 23.1246 5.72027 21.2022 3.79785Z" fill="#5335E9"/>
<path fill-rule="evenodd" clip-rule="evenodd" d="M21.2022 3.79785C19.2797 1.87542 13.8252 4.21307 9.01914 9.01914C4.21307 13.8252 1.87542 19.2797 3.79785 21.2022C5.72027 23.1246 11.1748 20.7869 15.9809 15.9809C20.7869 11.1748 23.1246 5.72027 21.2022 3.79785Z" stroke="#5335E9" stroke-width="1.5" stroke-linecap="round" stroke-linejoin="round"/>
<path fill-rule="evenodd" clip-rule="evenodd" d="M3.79785 3.79785C1.87542 5.72027 4.21307 11.1748 9.01914 15.9809C13.8252 20.7869 19.2797 23.1246 21.2022 21.2022C23.1246 19.2797 20.7869 13.8252 15.9809 9.01914C11.1748 4.21307 5.72027 1.87542 3.79785 3.79785Z" stroke="#5335E9" stroke-width="1.5" stroke-linecap="round" stroke-linejoin="round"/>
<path fill-rule="evenodd" clip-rule="evenodd" d="M12.5093 12.5H12.5H12.5093Z" fill="#5335E9"/>
<path d="M12.5093 12.5H12.5" stroke="#5335E9" stroke-width="2" stroke-linecap="round" stroke-linejoin="round"/>
</svg>
