<svg width="16" height="16" viewBox="0 0 16 16" fill="none" xmlns="http://www.w3.org/2000/svg">
<path d="M11 2.60002H13.4C13.5591 2.60002 13.7117 2.66324 13.8243 2.77576C13.9368 2.88828 14 3.04089 14 3.20002V12.8C14 12.9592 13.9368 13.1118 13.8243 13.2243C13.7117 13.3368 13.5591 13.4 13.4 13.4H2.6C2.44087 13.4 2.28826 13.3368 2.17574 13.2243C2.06321 13.1118 2 12.9592 2 12.8V3.20002C2 3.04089 2.06321 2.88828 2.17574 2.77576C2.28826 2.66324 2.44087 2.60002 2.6 2.60002H5V1.40002H6.2V2.60002H9.8V1.40002H11V2.60002ZM9.8 3.80002H6.2V5.00002H5V3.80002H3.2V6.20002H12.8V3.80002H11V5.00002H9.8V3.80002ZM12.8 7.40002H3.2V12.2H12.8V7.40002Z" fill="#322FEB"/>
</svg>
