<svg width="20" height="20" viewBox="0 0 20 20" fill="none" xmlns="http://www.w3.org/2000/svg">
<path d="M11.5017 2.5C12.8742 2.49935 14.2054 2.96925 15.2733 3.83134C16.3413 4.69344 17.0814 5.89561 17.3702 7.23735C17.659 8.5791 17.4791 9.97931 16.8605 11.2045C16.2418 12.4296 15.2219 13.4056 13.9707 13.9698C13.5707 14.8539 12.9623 15.6279 12.1976 16.2253C11.4328 16.8227 10.5346 17.2257 9.57991 17.3998C8.62521 17.5738 7.64256 17.5137 6.71621 17.2245C5.78986 16.9354 4.94746 16.4259 4.26127 15.7397C3.57507 15.0535 3.06556 14.2111 2.77642 13.2847C2.48728 12.3584 2.42715 11.3757 2.60118 10.421C2.77521 9.46633 3.1782 8.5681 3.77561 7.80335C4.37302 7.03861 5.147 6.43018 6.03118 6.03025C6.50679 4.97792 7.27587 4.08513 8.24619 3.45896C9.21651 2.83279 10.3469 2.49982 11.5017 2.5ZM8.50168 7C7.91073 7 7.32557 7.1164 6.77961 7.34254C6.23364 7.56869 5.73757 7.90016 5.3197 8.31802C4.90184 8.73588 4.57037 9.23196 4.34422 9.77793C4.11808 10.3239 4.00168 10.9091 4.00168 11.5C4.00168 12.0909 4.11808 12.6761 4.34422 13.2221C4.57037 13.768 4.90184 14.2641 5.3197 14.682C5.73757 15.0998 6.23364 15.4313 6.77961 15.6575C7.32557 15.8836 7.91073 16 8.50168 16C9.69516 16 10.8397 15.5259 11.6837 14.682C12.5276 13.8381 13.0017 12.6935 13.0017 11.5C13.0017 10.3065 12.5276 9.16193 11.6837 8.31802C10.8397 7.47411 9.69516 7 8.50168 7ZM9.25168 7.75V8.5H10.7517V10H7.75168C7.65797 9.99983 7.56759 10.0347 7.49834 10.0979C7.4291 10.161 7.38599 10.2478 7.37753 10.3411C7.36906 10.4344 7.39584 10.5276 7.4526 10.6021C7.50935 10.6767 7.59197 10.7273 7.68418 10.744L7.75168 10.75H9.25168C9.74896 10.75 10.2259 10.9475 10.5775 11.2992C10.9291 11.6508 11.1267 12.1277 11.1267 12.625C11.1267 13.1223 10.9291 13.5992 10.5775 13.9508C10.2259 14.3025 9.74896 14.5 9.25168 14.5V15.25H7.75168V14.5H6.25168V13H9.25168C9.34539 13.0002 9.43577 12.9653 9.50502 12.9021C9.57427 12.839 9.61737 12.7522 9.62584 12.6589C9.63431 12.5656 9.60752 12.4724 9.55077 12.3979C9.49401 12.3233 9.41139 12.2727 9.31918 12.256L9.25168 12.25H7.75168C7.2544 12.25 6.77749 12.0525 6.42586 11.7008C6.07423 11.3492 5.87668 10.8723 5.87668 10.375C5.87668 9.87772 6.07423 9.40081 6.42586 9.04918C6.77749 8.69754 7.2544 8.5 7.75168 8.5V7.75H9.25168ZM11.5017 4C10.8662 3.99926 10.2378 4.13346 9.65805 4.39372C9.0783 4.65399 8.56043 5.03438 8.13868 5.50975C8.98638 5.45829 9.83534 5.58737 10.6294 5.88846C11.4235 6.18955 12.1447 6.65578 12.7451 7.25634C13.3456 7.85689 13.8118 8.57807 14.1128 9.3722C14.4138 10.1663 14.5427 11.0153 14.4912 11.863C15.1731 11.2567 15.6546 10.4575 15.8718 9.57123C16.089 8.68501 16.0317 7.75369 15.7074 6.90079C15.3831 6.0479 14.8073 5.31373 14.0561 4.79566C13.305 4.27759 12.4141 4.00011 11.5017 4Z" fill="#5335E9"/>
</svg>
