<svg width="416" height="415" viewBox="0 0 416 415" fill="none" xmlns="http://www.w3.org/2000/svg">
<g clip-path="url(#clip0_4653_338336)">
<path d="M101.48 303.866C96.988 302.184 93.3858 299.496 90.0949 296.336C86.5283 292.913 85.3826 288.776 86.2764 283.955C87.0117 279.989 88.3776 276.216 89.5859 272.392C89.7525 271.865 89.9195 271.337 90.0689 270.805C90.7652 268.321 90.3158 266.07 88.7381 264.019C87.2885 262.136 85.5496 260.557 83.6787 259.118C82.4717 258.189 81.268 257.244 79.9879 256.423C75.7639 253.715 75.0845 248.975 76.0451 245.355C76.7138 242.835 77.6993 240.465 79.0917 238.264C79.8072 237.132 80.519 235.998 81.2675 234.888C82.7373 232.71 82.7364 230.568 81.107 228.492C80.1389 227.259 79.1212 226.062 78.0854 224.885C75.9326 222.438 74.1348 219.799 73.083 216.667C71.4897 211.922 72.1954 207.562 75.1089 203.551C76.0016 202.321 77.0711 201.222 78.0238 200.034C78.9461 198.885 79.9324 197.765 80.6928 196.512C81.8903 194.54 82.0846 192.414 80.9851 190.306C80.1323 188.671 79.2202 187.066 78.2981 185.469C76.9445 183.123 76.3367 180.607 76.464 177.908C76.6447 174.068 77.9071 170.68 80.7161 167.979C81.8454 166.894 83.0611 165.896 84.2594 164.885C85.5996 163.754 86.9788 162.668 88.3123 161.53C88.8365 161.082 89.3045 160.562 89.761 160.042C91.7216 157.81 92.4089 155.334 91.171 152.497C90.7286 151.482 90.3284 150.449 89.8854 149.435C87.3362 143.599 88.6794 137.664 93.5504 133.552C96.8324 130.782 100.513 128.714 104.657 127.503C106.117 127.076 107.579 126.646 109.007 126.127C111.747 125.133 113.339 123.251 113.401 120.229C113.428 118.937 113.438 117.634 113.619 116.359C113.793 115.138 113.956 113.831 114.512 112.763C117.246 107.515 121.186 103.631 127.133 102.164C129.272 101.636 131.433 101.62 133.601 101.808C135.532 101.975 137.459 102.2 139.383 102.43C142.934 102.853 146.145 101.87 149.164 100.097C150.668 99.2146 151.593 97.8574 152.138 96.2306C152.475 95.2249 152.732 94.1916 153.09 93.1942C155.059 87.7151 158.965 84.5219 164.65 83.4234C167.405 82.8912 170.173 83.1048 172.937 83.2283C175.243 83.3313 177.544 83.5797 179.85 83.635C181.505 83.6745 183.178 83.6027 184.821 83.4008C187.632 83.0553 189.88 81.6837 191.348 79.2243C192.03 78.0805 192.542 76.8353 193.143 75.6417C193.785 74.3655 194.353 73.042 195.107 71.8343C196.904 68.9543 199.487 67.1429 202.842 66.4721C203.338 66.3731 203.814 66.1613 204.311 66.0968C205.031 66.0037 205.783 65.8689 206.484 65.9835C207.569 66.1611 208.646 66.4712 209.679 66.8521C210.156 67.0278 210.497 67.5426 210.943 67.8359C212.447 68.8233 213.941 69.8309 215.494 70.734C216.923 71.5649 218.541 71.7264 220.171 71.7996C222.059 71.8842 223.973 71.8699 225.826 72.1844C229.16 72.7497 231.976 74.3863 234.227 76.9274C235.237 78.0674 236.26 79.2079 237.146 80.4426C240.737 85.4477 245.818 88.0691 251.61 89.5079C255.761 90.5389 259.989 90.8264 264.259 90.4343C269.325 89.9694 273.953 91.2355 278.211 93.9859C281.345 96.0108 283.607 98.7302 284.838 102.256C285.537 104.258 286.108 106.304 286.769 108.319C287.171 109.544 287.598 110.764 288.08 111.96C288.962 114.147 290.484 115.808 292.584 116.841C294.192 117.631 295.887 118.25 297.564 118.889C298.64 119.299 299.759 119.595 300.852 119.961C305.432 121.491 308.605 124.526 310.313 129.024C310.734 130.134 311.358 130.668 312.477 131.024C319.233 133.18 323.548 137.8 325.634 144.51C326.369 146.873 326.232 149.357 326.167 151.802C326.138 152.885 326.282 153.873 326.719 154.88C327.805 157.382 328.601 159.977 329.011 162.69C329.382 165.151 328.962 167.574 328.805 170.009C328.707 171.529 328.522 173.042 328.363 174.557C328.059 177.469 328.835 180.131 330.188 182.671C331.371 184.891 332.895 186.847 334.66 188.631C335.634 189.615 336.595 190.616 337.499 191.665C339.935 194.492 340.612 197.773 339.846 201.377C339.655 202.275 339.39 203.168 339.061 204.026C338.146 206.409 336.863 208.509 334.362 209.586C335.862 211.914 337.354 214.176 338.789 216.474C340.114 218.595 341.25 220.803 341.712 223.304C342.105 225.427 342.058 227.534 341.568 229.626C340.753 233.103 339.22 236.225 336.822 238.894C335.68 240.164 334.468 241.373 333.353 242.667C332.392 243.783 331.461 244.936 330.633 246.152C329.496 247.824 329.295 249.692 330.005 251.577C330.573 253.083 331.225 254.565 331.958 255.998C333.14 258.311 334.144 260.666 334.567 263.255C334.912 265.361 334.708 267.391 334.024 269.392C333.239 271.685 332.041 273.759 330.634 275.715C328.126 279.201 325.579 282.657 323.085 286.152C322.147 287.466 321.29 288.838 320.434 290.207C318.484 293.323 317.737 296.732 317.922 300.39C318.052 302.971 318.256 305.568 318.103 308.139C317.81 313.046 315.973 317.464 313.177 321.466C311.827 323.397 309.906 324.729 307.771 325.679C304.763 327.018 301.904 328.6 299.288 330.597C295.717 333.324 291.568 334.461 287.221 335.046C284.203 335.453 281.178 335.824 278.148 336.128C275.511 336.393 272.961 336.962 270.494 337.922C269.677 338.24 268.859 338.555 268.047 338.885C264.939 340.148 261.752 340.946 258.355 340.854C256.467 340.803 254.573 340.972 252.682 341.062C250.724 341.155 248.859 341.685 247.047 342.391C245.302 343.07 243.512 343.35 241.64 343.407C238.106 343.514 234.623 343.1 231.185 342.408C227.788 341.725 224.617 342.128 221.474 343.547C219.126 344.607 216.726 345.616 214.258 346.333C209.663 347.668 205.042 347.38 200.469 346.017C195.318 344.483 190.439 342.3 185.639 339.919C184.73 339.469 183.809 339.038 182.872 338.651C180.928 337.847 178.936 337.788 176.9 338.295C174.544 338.882 172.402 339.941 170.33 341.167C169.575 341.613 168.818 342.057 168.076 342.525C166.423 343.568 164.656 343.85 162.767 343.349C160.03 342.622 157.414 341.602 155.049 340.021C152.908 338.591 151.14 336.792 149.823 334.565C149.306 333.691 148.764 332.832 148.226 331.971C147.013 330.028 145.215 329.411 143.085 329.945C141.393 330.37 139.746 330.996 138.104 331.6C135.769 332.459 133.485 333.464 131.128 334.254C127.746 335.387 124.322 335.21 120.889 334.344C116.408 333.212 112.455 331.143 109.079 327.977C106.349 325.418 103.615 322.864 101.344 319.867C99.4526 317.371 98.3125 314.612 98.2953 311.43C98.2815 308.87 99.1008 306.636 100.754 304.695C100.96 304.453 101.173 304.217 101.48 303.866Z" fill="#5A1336"/>
<path d="M113.388 79.152C113.24 78.8317 113.054 78.6137 113.103 78.4808C113.155 78.3368 113.419 78.2187 113.604 78.1975C113.684 78.1883 113.898 78.4774 113.869 78.5808C113.822 78.7524 113.628 78.8835 113.388 79.152Z" fill="#5A1336"/>
<path d="M53.3975 415.999C55.3574 403.54 60.9142 393.043 70.411 384.666C74.6445 380.932 79.5639 378.498 84.856 376.696C91.2776 374.508 97.7322 372.425 104.346 370.905C106.493 370.412 108.721 370.243 110.92 370.015C120.429 369.028 129.881 367.719 139.156 365.329C144.754 363.886 149.79 361.183 154.853 358.507C161.431 355.031 166.388 349.817 170.754 343.948C171.816 342.522 172.485 340.878 172.843 339.156C173.547 335.771 174.231 332.378 174.755 328.962C175.37 324.95 175.929 320.921 176.293 316.88C176.984 309.201 177.487 301.513 177.12 293.782C177.017 291.618 176.395 290.192 174.719 288.758C171.377 285.897 168.646 282.454 166.594 278.506C165.916 277.203 165.041 275.999 164.207 274.782C163.033 273.069 161.771 271.406 161.087 269.415C160.903 268.879 160.483 268.775 160.063 268.605C154.249 266.253 149.045 262.995 144.909 258.213C142.157 255.033 140.009 251.508 139.194 247.301C138.687 244.682 138.947 242.158 140.131 239.747C141.372 237.22 142.928 236.385 145.732 236.761C147.569 237.007 149.361 237.418 151.052 238.21C151.709 238.519 152.392 238.774 153.265 239.137C153.096 238.395 152.992 237.818 152.831 237.257C150.982 230.809 149.72 224.245 149.088 217.569C148.674 213.193 148.635 208.8 149.185 204.433C149.727 200.132 150.202 195.805 151.093 191.571C152.24 186.116 154.611 181.074 157.42 176.286C161.877 168.691 167.98 162.676 175.548 158.174C177.13 157.234 178.797 156.421 180.474 155.658C184.756 153.707 189.069 151.828 193.361 149.9C195.409 148.98 197.573 148.528 199.783 148.322C206.005 147.743 212.222 147.712 218.437 148.515C220.718 148.81 222.828 149.588 224.891 150.501C229.489 152.535 234.101 154.548 238.62 156.751C244.851 159.789 250.07 164.179 254.527 169.45C259.798 175.683 263.312 182.874 265.487 190.694C266.726 195.144 267.208 199.758 267.597 204.358C267.826 207.067 267.911 209.797 267.913 212.517C267.916 218.312 267.035 224.013 265.819 229.662C265.256 232.276 264.549 234.859 263.909 237.457C263.789 237.944 263.677 238.434 263.511 239.133C264.396 238.765 265.139 238.484 265.859 238.152C267.555 237.37 269.353 236.971 271.191 236.744C273.9 236.409 275.45 237.272 276.661 239.744C278.464 243.421 278.091 247.109 276.571 250.734C274.332 256.075 270.666 260.298 265.941 263.576C262.984 265.626 259.919 267.525 256.481 268.724C256.155 268.838 255.874 269.227 255.683 269.553C254.939 270.825 254.314 272.17 253.51 273.399C252.07 275.598 250.581 277.754 249.282 280.053C247.128 283.863 244.249 287.116 240.818 289.841C239.973 290.512 239.783 291.322 239.763 292.257C239.692 295.581 239.534 298.908 239.608 302.229C239.805 311.099 240.556 319.927 241.988 328.687C242.531 332.009 243.129 335.323 243.798 338.621C244.33 341.243 245.557 343.537 247.282 345.607C250.243 349.16 253.176 352.732 257.033 355.379C258.515 356.397 260.034 357.368 261.582 358.281C268.801 362.539 276.495 365.459 284.772 366.995C292.815 368.487 300.908 369.49 309.034 370.324C310.404 370.465 311.763 370.769 313.107 371.08C319.588 372.58 325.869 374.744 332.196 376.772C340.627 379.474 347.276 384.575 352.782 391.373C357.827 397.6 361.024 404.672 362.67 412.477C362.915 413.64 363.059 414.825 363.25 415.999C259.965 415.999 156.682 415.999 53.3975 415.999Z" fill="#EE4D24"/>
<path d="M192.618 416.001C192.67 415.927 192.706 415.831 192.775 415.782C203.727 408.03 213.674 399.058 223.829 390.33C233.177 382.296 242.676 374.437 252.087 366.475C254.623 364.328 257.079 362.085 259.57 359.885C260.262 359.274 260.947 358.655 261.64 358.045C263.396 356.497 265.391 356.165 267.58 356.917C268.67 357.291 269.775 357.641 270.823 358.114C278.771 361.703 287.126 363.995 295.609 365.847C301.827 367.205 308.096 368.335 314.302 369.744C321.541 371.387 328.741 373.206 335.947 374.992C337.103 375.278 338.216 375.759 339.325 376.209C339.979 376.475 340.395 376.964 340.684 377.674C341.096 378.69 341.752 379.605 342.243 380.593C342.407 380.923 342.385 381.345 342.447 381.725C342.055 381.755 341.594 381.93 341.285 381.784C340.595 381.458 339.981 380.971 339.157 380.434C338.547 380.98 337.719 381.621 337.009 382.373C330.503 389.262 324.329 396.438 318.876 404.191C316.438 407.657 314.362 411.379 312.138 414.995C311.957 415.29 311.904 415.664 311.792 416.001C272.068 416.001 232.343 416.001 192.618 416.001Z" fill="#0F3ADC"/>
<path d="M184.382 255.821C184.781 255.27 185.189 254.659 185.644 254.085C188.765 250.139 192.494 246.861 196.701 244.123C197.509 243.596 198.381 243.163 199.241 242.72C201.915 241.341 204.524 241.597 206.971 243.226C207.952 243.879 208.675 243.936 209.68 243.256C212.163 241.575 214.843 241.291 217.523 242.771C219.253 243.726 220.939 244.784 222.55 245.928C225.727 248.185 228.497 250.891 230.928 253.938C231.469 254.616 231.958 255.335 232.547 256.14C231.64 256.923 230.901 257.773 229.98 258.317C227.164 259.981 224.31 261.586 221.412 263.103C218.368 264.698 215.096 265.753 211.706 266.208C207.833 266.728 203.997 266.338 200.244 265.098C196.185 263.756 192.429 261.824 188.797 259.612C187.971 259.109 187.091 258.663 186.363 258.041C185.642 257.425 185.081 256.621 184.382 255.821Z" fill="#AA1F15"/>
<path d="M27.7779 159.472C26.939 160.983 26.154 162.337 25.4287 163.723C24.9603 164.618 25.1055 164.888 26.1343 165.191C28.2474 165.813 30.4039 165.812 32.585 165.691C34.2794 165.597 36.0128 165.476 37.6764 165.721C40.4771 166.134 42.3585 167.964 43.692 170.375C44.2467 171.377 44.2592 172.455 43.6171 173.402C43.0276 174.272 42.3681 175.135 41.5837 175.825C40.1296 177.102 38.5051 178.186 37.058 179.47C35.6488 180.721 34.3544 182.104 33.0455 183.463C32.274 184.264 32.0373 185.286 32.0789 186.451C33.5418 187.175 35.0966 187.262 36.5898 186.627C37.7621 186.129 38.8447 185.4 39.9207 184.701C40.6922 184.201 41.3601 183.543 42.1203 183.023C45.0442 181.021 48.2696 180.339 51.7399 181.032C53.2608 181.335 54.5864 182.123 55.6657 183.243C57.2742 184.912 57.4385 186.952 56.8985 189.061C56.0214 192.488 54.2064 195.409 51.8358 198.005C51.5303 198.34 51.2561 198.703 50.9179 199.113C51.2451 199.3 51.4722 199.442 51.7104 199.563C53.0518 200.243 53.2379 200.788 52.3903 202.06C51.5213 203.365 50.5587 204.607 49.6377 205.877C49.2585 206.4 48.8901 206.931 48.5009 207.446C48.0702 208.017 48.1405 208.446 48.6341 209.01C49.8155 210.361 50.9094 211.791 51.9999 213.218C52.1969 213.476 52.3645 213.941 52.2591 214.188C52.1723 214.392 51.6322 214.555 51.3424 214.495C48.8165 213.974 46.2475 213.571 43.7958 212.801C39.8833 211.571 38.7114 209.198 39.7302 205.199C40.1117 203.701 40.802 202.339 41.7769 201.152C42.7718 199.942 43.8422 198.791 44.9125 197.646C46.1728 196.297 47.4817 194.993 48.742 193.644C49.1807 193.175 49.5817 192.657 49.9239 192.113C51.5211 189.575 50.0503 186.726 47.0487 186.517C45.6836 186.422 44.3938 186.728 43.1414 187.252C41.629 187.884 40.3396 188.845 39.1287 189.926C38.1301 190.817 37.1616 191.744 36.1297 192.595C35.0134 193.516 33.7737 194.223 32.2792 194.326C30.6841 194.437 29.4746 193.628 29.0931 192.069C28.9219 191.37 28.8512 190.594 28.9641 189.89C29.1307 188.851 29.4629 187.832 29.7959 186.829C30.2591 185.433 30.8001 184.064 31.2858 182.675C31.7663 181.301 32.5575 180.131 33.4987 179.033C34.578 177.774 35.7071 176.536 36.6185 175.159C38.0916 172.933 37.634 172.14 34.9703 172.104C33.3105 172.081 31.6479 172.216 29.9891 172.177C28.3836 172.139 26.7425 172.151 25.1856 171.819C21.9568 171.13 20.0538 168.867 18.9837 165.877C18.3992 164.245 18.79 162.67 19.7836 161.285C20.2358 160.655 20.7727 160.038 21.3952 159.587C23.2599 158.235 25.1588 156.926 27.0984 155.684C28.2112 154.972 28.8038 155.337 28.9379 156.645C29.0317 157.56 29.1673 158.472 29.2302 159.389C29.2524 159.715 29.1153 160.051 29.0509 160.382C28.7501 160.234 28.4412 160.099 28.1525 159.929C28.0423 159.864 27.9774 159.721 27.7779 159.472Z" fill="#5325D0"/>
<path d="M114.354 52.7752C114.809 52.5682 115.263 52.3596 115.719 52.1545C117.506 51.3493 119.361 50.8266 121.34 50.8755C124.251 50.9477 126.912 53.0179 127.649 55.8282C128.084 57.4839 127.887 59.0713 126.668 60.357C125.975 61.0871 125.194 61.7614 124.361 62.3242C120.065 65.2258 120.706 71.0388 124.303 73.4859C125.14 74.0557 125.98 74.6464 126.715 75.3369C128.535 77.0446 128.54 79.2182 126.66 80.8808C125.073 82.285 123.379 83.5742 121.683 84.8492C120.663 85.6167 120.139 85.462 119.431 84.356C118.161 82.3746 116.909 80.3811 115.639 78.3997C113.677 75.3399 113.274 72.1102 114.77 68.776C115.483 67.1867 116.409 65.6845 117.324 64.1956C118.386 62.4665 119.551 60.8006 120.652 59.0951C120.919 58.6813 121.112 58.2196 121.346 57.7672C120.569 57.1205 119.728 57.0995 118.909 57.0887C116.97 57.0627 115.03 57.0912 113.09 57.0756C112.54 57.0712 111.976 57.0539 111.442 56.9348C109.489 56.499 108.414 55.0426 108.761 53.0682C108.949 52.0004 109.32 50.8951 109.885 49.9776C111.19 47.8612 112.604 45.8043 114.086 43.8077C115.595 41.7759 116.737 39.5959 117.341 37.1404C117.831 35.1499 117.431 34.602 115.422 34.8969C114.026 35.1018 112.633 35.5193 111.32 36.0466C109.397 36.8193 107.524 37.7295 105.68 38.6771C105.006 39.0235 104.456 39.626 103.88 40.1448C103.231 40.7286 102.675 41.4336 101.971 41.9342C101.001 42.6239 100.257 42.5403 99.3035 41.8163C98.0064 40.831 97.1975 39.5077 96.7436 37.9612C96.0957 35.7539 95.979 33.5202 96.3911 31.2501C96.9319 28.2699 97.8787 25.4521 99.5115 22.8777C100.117 21.9221 100.893 21.2935 102.038 21.1459C102.815 21.0456 103.582 20.843 104.361 20.7987C105.183 20.7519 105.482 21.1394 105.269 21.9111C104.876 23.327 104.373 24.7141 104.029 26.1408C103.349 28.9681 102.773 31.819 102.822 34.7507C102.827 35.0671 102.893 35.3957 102.999 35.695C103.429 36.9195 104.271 37.2577 105.376 36.6044C105.928 36.2789 106.4 35.8211 106.917 35.4355C108.616 34.1671 110.264 32.8192 112.038 31.6655C113.517 30.7037 115.192 30.1756 117.014 30.2066C121.729 30.2868 124.585 34.7037 122.539 38.9475C121.847 40.3813 120.837 41.6821 119.848 42.9463C118.683 44.4352 117.305 45.7593 116.169 47.2678C115.404 48.2842 114.826 49.4644 114.305 50.634C114.044 51.2218 114.097 51.9494 114.007 52.614C114.123 52.6674 114.239 52.7213 114.354 52.7752Z" fill="#0F3ADC"/>
<path d="M343.674 38.4395C344.148 38.8328 344.421 39.0071 344.629 39.239C346.107 40.8874 347.574 42.5462 349.04 44.2056C349.284 44.4819 349.531 44.7608 349.735 45.0659C350.632 46.4056 350.571 47.6886 349.403 48.8141C348.042 50.1259 346.622 51.3843 345.158 52.5803C342.511 54.7429 339.745 56.7333 336.704 58.3363C335.407 59.0206 334.168 59.858 333.015 60.768C330.674 62.6161 330.519 63.8514 332.314 66.2728C333.578 67.9767 334.994 69.5662 336.285 71.251C337.546 72.8969 338.789 74.562 339.93 76.2917C340.48 77.1252 340.867 78.0974 341.167 79.0569C341.85 81.2396 341.628 83.3849 340.36 85.2964C339.498 86.5952 338.512 87.8407 337.42 88.9506C335.972 90.4212 335.187 92.0277 335.315 94.1406C335.433 96.1018 334.982 96.335 333.135 95.6465C330.958 94.8353 328.922 93.7768 327.063 92.3786C323.917 90.0114 323.257 87.0411 325.259 83.6512C325.98 82.4306 326.937 81.344 327.833 80.2346C328.558 79.3385 329.414 78.5454 330.106 77.6275C332.036 75.068 331.621 71.8898 329.119 69.8843C328.365 69.2792 327.532 68.7729 326.75 68.2001C325.886 67.5667 325.113 66.8454 324.683 65.8295C324.167 64.6119 324.192 63.3514 324.708 62.1881C325.263 60.9353 325.864 59.6392 326.731 58.6015C328.418 56.5823 330.403 54.8586 332.63 53.4055C334.712 52.0468 336.788 50.6495 338.699 49.0658C341.325 46.8884 342.596 43.8628 343.35 40.6074C343.43 40.2588 343.327 39.8713 343.369 39.509C343.403 39.2161 343.528 38.9343 343.674 38.4395Z" fill="#0F3ADC"/>
<path d="M246.594 302.187C245.589 302.16 245.375 301.799 245.667 300.777C246.642 297.365 247.625 293.955 248.601 290.543C251.187 281.504 253.76 272.46 256.37 263.428C256.713 262.239 257.208 261.088 257.706 259.952C258.084 259.087 258.373 258.929 259.22 259.26C259.881 259.518 260.552 259.924 261.031 260.439C262.066 261.55 263.014 262.748 263.939 263.956C267.108 268.096 270.261 272.247 273.398 276.41C274.481 277.846 275.483 279.342 276.553 280.788C278.94 284.013 281.349 287.221 283.743 290.44C284.459 291.401 285.16 292.373 285.861 293.345C286.665 294.458 286.49 294.883 285.106 295.149C283.839 295.393 282.564 295.601 281.298 295.853C276.914 296.724 272.543 297.666 268.146 298.471C263.249 299.366 258.329 300.133 253.422 300.971C251.605 301.281 249.796 301.636 247.982 301.965C247.483 302.056 246.981 302.126 246.594 302.187ZM280.035 292.817C272.556 283.411 265.936 273.632 260.303 262.89C260.148 263.59 260.051 264.03 259.953 264.469C259.401 266.942 258.958 269.445 258.273 271.88C256.863 276.889 255.288 281.852 253.851 286.855C253.012 289.776 252.294 292.733 251.558 295.683C251.433 296.185 251.491 296.733 251.464 297.281C260.887 296.545 269.924 294.424 279.079 293.077C279.387 293.032 279.684 292.914 280.035 292.817Z" fill="#5325D0"/>
<path d="M169.343 298.895C169.343 299.403 169.36 299.911 169.339 300.419C169.303 301.332 168.994 301.66 168.074 301.67C167.571 301.676 167.048 301.626 166.567 301.49C162.951 300.464 159.191 300.319 155.518 299.655C151.752 298.974 147.99 298.269 144.228 297.567C142.46 297.237 140.669 296.986 138.936 296.522C137.298 296.084 135.684 295.501 134.128 294.822C132.528 294.124 132.312 293.342 133.244 291.873C134.927 289.225 136.617 286.577 138.424 284.014C142.947 277.602 147.522 271.226 152.112 264.862C153.217 263.33 154.425 261.866 155.667 260.442C156.098 259.948 156.733 259.562 157.351 259.317C158.346 258.923 158.675 259.051 159.046 260.087C159.759 262.081 160.461 264.09 160.977 266.141C162.248 271.193 163.343 276.29 164.647 281.334C165.268 283.737 166.173 286.069 167.006 288.414C167.919 290.983 168.756 293.569 169.146 296.277C169.271 297.142 169.321 298.018 169.405 298.89C169.384 298.891 169.364 298.893 169.343 298.895ZM165.139 297.241C165.139 296.653 165.259 296.036 165.119 295.485C164.336 292.402 163.667 289.274 162.629 286.276C160.621 280.469 159.129 274.525 157.565 268.598C157.099 266.835 156.837 265.02 156.482 263.229C150.722 273.675 144.116 283.482 136.661 292.812C146.162 294.386 155.485 296.636 165.139 297.241Z" fill="#5325D0"/>
<path d="M368.977 219.729C374.175 220.181 378.522 222.076 380.863 227.113C381.395 228.259 381.576 229.577 381.841 230.833C381.931 231.261 381.846 231.759 381.727 232.193C381.497 233.026 380.894 233.306 380.138 232.909C379.656 232.655 379.218 232.29 378.823 231.91C377.543 230.682 376.026 230.003 374.269 229.848C371.343 229.59 368.48 229.808 365.687 230.825C363.034 231.792 361.547 233.67 361.135 236.404C360.909 237.905 360.745 239.426 360.708 240.942C360.647 243.477 360.722 246.015 360.714 248.551C360.712 249.146 360.687 249.762 360.53 250.329C360.303 251.146 359.609 251.347 358.908 250.851C358.612 250.641 358.358 250.36 358.122 250.079C356.176 247.77 353.908 245.822 351.458 244.073C351.084 243.805 350.715 243.524 350.375 243.214C349.586 242.497 349.317 241.677 349.714 240.607C350.595 238.232 351.359 235.814 352.249 233.443C354.485 227.485 358.522 223.207 364.368 220.67C365.819 220.04 367.345 219.695 368.977 219.729Z" fill="white"/>
<path d="M61.8779 76.0772C67.2447 76.1287 71.8157 78.1432 76.1627 80.9458C80.3849 83.6677 84.0615 87.0051 87.5865 90.5379C88.9401 91.8945 89.0816 92.8209 87.8421 94.2786C86.2609 96.1381 84.5802 97.9251 82.8241 99.6209C80.5357 101.831 78.1433 103.934 75.7666 106.05C75.2939 106.471 74.7244 106.827 74.1397 107.069C73.2001 107.457 72.4819 106.995 72.3846 105.984C72.3413 105.534 72.417 105.064 72.4963 104.613C72.8399 102.661 73.2189 100.715 73.5583 98.7625C74.0326 96.0343 73.5926 93.4227 72.3973 90.951C70.923 87.9028 69.1387 85.0613 66.6498 82.7101C64.6665 80.8366 62.3698 79.5146 59.7698 78.7229C59.204 78.5507 58.5989 78.4779 58.0064 78.434C57.6197 78.4053 57.175 78.4452 57.1837 77.96C57.1891 77.6652 57.4331 77.2919 57.6821 77.0986C58.949 76.1148 60.3944 75.7849 61.8779 76.0772Z" fill="white"/>
<path d="M58.4804 281.548C56.03 281.067 52.9391 282.142 50.8755 284.193C48.3496 286.705 46.4888 289.629 45.4218 293.062C44.4552 296.171 44.0465 299.361 43.7763 302.584C43.6916 303.595 43.6219 304.616 43.4021 305.601C43.3062 306.03 42.9249 306.516 42.5374 306.73C42.0307 307.01 41.5708 306.6 41.2462 306.186C40.2213 304.88 39.1424 303.609 38.2143 302.236C36.6564 299.931 36.2679 297.392 37.0308 294.7C37.8015 291.981 38.8876 289.385 40.2771 286.93C42.4178 283.149 44.8618 279.577 47.6709 276.246C50.1689 273.283 52.5339 270.208 54.9662 267.19C55.4001 266.652 55.8546 266.126 56.3407 265.635C56.8218 265.149 57.3233 264.568 58.1129 264.808C58.9534 265.063 59.131 265.854 59.2157 266.582C59.3272 267.541 59.3858 268.519 59.3295 269.48C59.1622 272.336 58.9199 275.188 58.7256 278.042C58.6882 278.591 58.7737 279.148 58.7344 279.696C58.6901 280.315 58.5688 280.929 58.4804 281.548Z" fill="white"/>
<path d="M241.707 202.996C246.885 204.306 251.933 205.584 256.981 206.862C257.025 206.873 257.069 206.889 257.113 206.902C257.637 207.053 258.296 207.073 258.446 207.724C258.613 208.446 258.01 208.793 257.515 209.106C252.981 211.967 248.112 213.941 242.792 214.819C239.935 215.29 237.194 214.734 234.422 214.291C233.83 214.196 233.246 213.975 232.656 213.967C231.062 213.946 229.67 213.36 228.404 212.487C226.848 211.416 225.35 210.262 223.845 209.119C223.519 208.872 223.244 208.543 222.992 208.216C222.699 207.834 222.659 207.364 223.153 207.168C225.519 206.229 227.2 204.308 229.282 202.968C231.898 201.285 234.831 200.483 237.883 200.145C240.361 199.871 241.231 200.587 241.707 202.996Z" fill="white"/>
<path d="M194.729 207.562C194.224 208.168 193.894 208.656 193.476 209.051C188.598 213.646 182.853 215.7 176.14 215.028C170.565 214.469 165.501 212.475 160.683 209.739C160.164 209.445 159.659 209.099 159.22 208.698C158.495 208.036 158.645 207.334 159.591 207.058C160.873 206.684 162.183 206.402 163.48 206.08C167.147 205.168 170.781 204.076 174.489 203.383C180.934 202.18 187.055 203.4 192.823 206.466C193.385 206.764 193.928 207.1 194.729 207.562Z" fill="white"/>
<path d="M272.567 36.5797C271.824 35.7123 271.405 35.1039 270.87 34.6239C269.743 33.6117 269.182 32.2988 268.919 30.8884C268.578 29.0611 269.252 27.535 270.697 26.3596C272.382 24.9878 274.283 24.0502 276.455 23.8709C278.611 23.693 280.781 23.6009 282.943 23.6248C284.491 23.6419 284.496 23.759 284.91 25.2202C285.146 26.0551 285.379 26.891 285.636 27.8098C285.327 27.8672 285.11 27.96 284.906 27.9375C281.66 27.581 278.444 27.8672 275.276 28.5461C273.942 28.8319 272.644 29.3796 271.401 29.9611C270.724 30.2781 269.927 30.8582 270.146 31.7512C270.371 32.6695 271.334 32.6504 272.106 32.7036C273.624 32.8082 275.175 32.7036 276.658 32.9792C278.687 33.3561 280.665 34.0038 282.662 34.545C282.835 34.5918 283.012 34.684 283.148 34.8005C285.17 36.5331 284.955 40.1163 282.712 41.5659C281.372 42.4322 279.875 42.8983 278.272 42.9486C277.026 42.9878 275.778 42.9665 274.532 43.0034C271.928 43.0803 269.394 43.493 266.993 44.5686C266.223 44.9134 265.496 45.252 265.086 46.0703C264.971 46.2993 264.575 46.5458 264.345 46.5146C264.116 46.4834 263.814 46.1442 263.748 45.8873C263.306 44.1767 263.125 42.4305 263.372 40.6738C263.502 39.7471 264.026 39.0312 264.967 38.7616C266.604 38.2928 268.257 37.8789 269.897 37.4208C270.675 37.2035 271.439 36.9372 272.567 36.5797Z" fill="#5325D0"/>
<path d="M239.617 179.549C242.525 179.588 245.44 179.633 248.266 180.422C249.326 180.718 250.369 181.12 251.366 181.586C253.328 182.503 254.695 183.99 255.505 186.028C257.059 189.938 258.462 193.885 258.917 198.1C258.975 198.644 259.007 199.217 258.898 199.745C258.758 200.428 258.13 200.547 257.659 200.031C257.506 199.864 257.403 199.649 257.291 199.448C254.996 195.298 251.247 192.962 247.001 191.284C246.335 191.02 245.554 190.984 244.822 190.959C240.475 190.815 236.16 191.038 231.876 191.907C228.982 192.494 226.072 192.964 223.333 194.135C222.583 194.455 222.103 194.187 221.825 193.238C221.383 191.734 220.976 190.217 220.637 188.688C220.249 186.934 219.991 185.152 219.592 183.401C219.44 182.734 219.679 182.42 220.221 182.247C221.14 181.954 222.06 181.625 223.006 181.459C227.823 180.616 232.644 179.789 237.541 179.553C238.231 179.52 238.925 179.549 239.617 179.549Z" fill="#5A1336"/>
<path d="M177.211 179.614C180.919 179.469 184.569 180.034 188.221 180.564C190.183 180.849 192.139 181.183 194.086 181.551C194.85 181.695 195.588 181.983 196.332 182.22C196.894 182.399 197.138 182.745 196.998 183.372C196.316 186.43 195.661 189.493 194.986 192.552C194.907 192.91 194.809 193.277 194.643 193.6C194.364 194.148 193.945 194.442 193.289 194.153C190.346 192.858 187.192 192.409 184.071 191.789C180.104 191.001 176.108 190.866 172.087 190.937C170.771 190.96 169.531 191.211 168.336 191.762C165.843 192.912 163.512 194.312 161.635 196.338C160.798 197.241 160.128 198.301 159.393 199.296C159.23 199.517 159.159 199.835 158.956 199.991C158.729 200.165 158.385 200.308 158.121 200.269C157.943 200.243 157.699 199.882 157.688 199.661C157.65 198.927 157.627 198.176 157.736 197.453C158.374 193.23 159.715 189.214 161.425 185.315C162.206 183.534 163.619 182.395 165.31 181.533C167.965 180.18 170.842 179.817 173.752 179.627C174.9 179.552 176.058 179.614 177.211 179.614Z" fill="#5A1336"/>
<path d="M177.481 215.066C174.922 215.125 172.456 214.559 169.984 213.974C165.803 212.983 161.697 211.774 157.753 210.048C155.011 208.848 152.586 207.189 150.535 205.014C149.908 204.35 149.381 203.574 148.916 202.785C148.739 202.486 148.717 201.77 148.886 201.665C149.206 201.465 149.725 201.506 150.143 201.571C150.442 201.617 150.716 201.853 150.99 202.024C153.538 203.615 156.314 203.952 159.246 203.619C162.333 203.27 165.317 202.519 168.274 201.596C171.712 200.522 175.191 199.681 178.828 199.522C183.214 199.33 187.075 200.72 190.702 203.02C192.519 204.173 193.959 205.734 195.409 207.284C196.044 207.962 196.061 208.267 195.459 208.967C193.669 211.047 191.66 212.874 189.122 214.013C186.244 215.305 183.293 214.135 182.241 211.172C181.42 208.861 180.827 206.476 181.718 204.012C181.928 203.43 181.66 203.125 181.106 203.038C180.839 202.996 180.557 203.011 180.286 203.039C177.946 203.285 175.779 204.065 173.849 205.387C170.802 207.473 167.427 208.558 163.792 208.953C162.88 209.053 161.963 209.165 161.076 209.908C163.78 211.216 166.609 211.753 169.35 212.543C172.076 213.328 174.828 214.027 177.568 214.765C177.539 214.865 177.51 214.966 177.481 215.066Z" fill="#5A1336"/>
<path d="M232.41 213.988C235.115 213.988 237.819 213.988 240.761 213.988C240.531 213.64 240.46 213.49 240.352 213.375C238.397 211.295 237.846 207.542 239.146 205.022C239.291 204.741 239.538 204.513 239.703 204.241C239.904 203.91 240.07 203.558 240.25 203.215C239.861 203.02 239.473 202.662 239.082 202.659C237.335 202.644 235.572 202.597 233.845 202.811C231.324 203.124 229.153 204.399 227.028 205.719C225.893 206.424 224.746 207.11 223.605 207.806C223.182 208.064 222.736 208.217 222.361 207.776C221.989 207.338 222.184 206.898 222.521 206.537C223.182 205.83 223.813 205.081 224.551 204.463C227.584 201.921 231.056 200.24 234.972 199.654C237.493 199.277 240.055 199.446 242.542 199.996C245.103 200.563 247.633 201.277 250.155 202.003C253.357 202.925 256.585 203.623 259.933 203.729C262.184 203.8 264.201 203.145 266.122 202.054C266.56 201.805 267.011 201.533 267.491 201.418C268.221 201.243 268.642 201.767 268.395 202.482C268.291 202.783 268.114 203.064 267.938 203.332C266.857 204.977 265.516 206.377 263.786 207.322C259.778 209.512 255.703 211.582 251.344 212.99C247.116 214.356 242.807 215.398 238.309 215.054C236.343 214.904 234.391 214.566 232.433 214.314C232.425 214.205 232.417 214.096 232.41 213.988Z" fill="#5A1336"/>
<path d="M211.488 234.607C211.561 233.151 212.418 232.379 213.691 231.945C214.893 231.535 215.965 231.775 216.875 232.628C217.2 232.933 217.496 233.33 217.647 233.743C217.889 234.401 217.952 235.136 217.392 235.677C216.91 236.142 216.374 235.753 215.848 235.62C214.436 235.261 213.01 234.957 211.488 234.607Z" fill="#5A1336"/>
<path d="M201.852 232.083C202.935 232.166 203.943 232.481 204.709 233.269C204.95 233.516 205.123 234.013 205.052 234.334C204.95 234.794 204.488 235.112 203.98 234.969C202.498 234.554 201.292 235.169 200.103 235.905C199.947 236.001 199.791 236.102 199.622 236.171C198.905 236.466 198.474 236.199 198.41 235.43C198.261 233.67 199.93 232.047 201.852 232.083Z" fill="#5A1336"/>
<g opacity="0.72">
<path d="M151.971 234.109C150.741 236.381 148.938 236.628 146.868 236.262C146.057 236.119 145.213 236.108 144.387 236.119C141.101 236.16 138.81 238.769 139.087 242.354C139.491 241.346 139.757 240.566 140.108 239.825C141.346 237.213 142.921 236.377 145.781 236.77C147.615 237.019 149.402 237.435 151.089 238.23C151.736 238.534 152.409 238.779 153.31 239.147C152.846 237.402 152.441 235.879 151.971 234.109Z" fill="#081994"/>
<path d="M240.521 289.953C240.487 289.917 240.456 289.882 240.423 289.847C240.044 290.098 239.626 290.304 239.293 290.608C238.205 291.606 237.13 292.621 236.082 293.661C233.186 296.532 230.133 299.192 226.474 301.076C225.178 301.742 223.835 302.123 222.362 302.127C219.408 302.135 216.453 302.252 213.499 302.218C210.128 302.181 206.76 302.023 203.463 301.201C202.681 301.006 202.016 300.679 201.439 300.093C197.614 296.197 193.96 292.162 191.087 287.488C189.396 284.736 187.828 281.905 186.097 279.18C181.777 272.377 178.293 265.151 175.157 257.75C174.618 256.483 174.193 255.15 173.881 253.811C173.299 251.296 172.789 248.76 172.34 246.219C172.018 244.399 171.192 243.08 169.447 242.302C168.02 241.665 166.993 240.584 166.369 239.084C165.287 236.488 164.029 233.963 162.984 231.351C161.672 228.064 160.388 224.786 160.201 221.14C160.006 217.367 159.415 213.615 159.016 209.852C158.957 209.321 159.007 208.779 159.007 208.215C159.351 208.167 159.573 208.13 159.798 208.105C164.981 207.543 170.148 206.902 175.283 205.941C178.17 205.403 181.149 205.134 184.086 205.132C187.071 205.128 189.858 206.1 192.125 208.215C192.269 208.35 192.604 208.462 192.73 208.388C192.928 208.271 193.19 207.915 193.134 207.778C192.934 207.293 192.72 206.707 192.321 206.426C190.347 205.039 188.223 203.911 185.841 203.404C182.942 202.788 180.03 203.177 177.162 203.606C172.19 204.348 167.28 205.478 162.25 205.84C161.352 205.904 160.457 205.998 159.525 206.081C159.869 204.132 161.445 201.338 162.976 199.905C166.439 196.665 170.518 194.782 175.273 194.547C177.482 194.439 179.701 194.495 181.914 194.558C185.502 194.66 189.122 194.454 192.616 195.596C193.248 195.804 193.797 195.485 194.166 194.94C194.542 194.385 194.55 193.786 194.137 193.264C193.858 192.91 193.508 192.571 193.117 192.359C192.391 191.962 191.634 191.602 190.854 191.332C184.995 189.289 178.988 188.696 172.846 189.58C168.944 190.142 165.328 191.423 162.196 193.896C161.478 194.462 160.715 194.967 159.837 195.6C159.871 195.173 159.85 194.905 159.918 194.66C160.713 191.77 161.472 188.869 162.333 186C164.781 177.859 168.286 170.215 173.174 163.231C173.511 162.75 173.686 162.16 173.94 161.623C174.171 161.138 174.331 160.597 174.657 160.188C175.36 159.306 176.149 158.492 176.902 157.65L176.856 157.569C176.895 157.546 176.935 157.525 176.974 157.502C179.138 156.298 180.932 154.92 182.966 153.746C186.287 151.725 189.924 150.219 193.677 149.219C197.907 148.092 202.278 147.557 206.661 147.478C208.504 147.349 210.355 147.355 212.195 147.546C212.587 147.587 212.976 147.638 213.364 147.696C214.32 147.774 215.274 147.87 216.224 147.985C218.238 148.227 220.232 148.604 222.186 149.155C223.671 149.574 225.285 150.051 226.665 150.802C229.232 151.514 231.753 152.43 233.901 153.871C234.724 152.488 234.698 152.377 234.366 151.169C235.329 149.925 235.58 148.507 235.306 146.99C235.1 145.859 234.798 144.742 234.584 143.61C234.501 143.18 234.43 142.693 234.545 142.285C236.24 136.17 235.89 130.032 234.697 123.906C234.029 120.479 232.448 117.375 230.882 114.286C227.246 107.127 223.602 99.9719 219.945 92.8229C219.315 91.5916 218.678 90.3519 217.925 89.1954C214.552 84.0016 210.148 80.0809 204.069 78.3441C202.298 77.8386 200.497 77.408 198.683 77.0981C196.784 76.7716 194.854 76.6301 193.009 76.418C192.45 77.4351 192.009 78.2983 191.512 79.1282C189.981 81.6824 187.682 83.0927 184.76 83.4192C183.158 83.6002 181.534 83.6751 179.926 83.6356C177.665 83.5794 175.41 83.3465 173.149 83.2383C170.339 83.1052 167.525 82.8826 164.725 83.4276C158.987 84.5445 155.064 87.781 153.14 93.345C152.838 94.2145 152.613 95.1109 152.328 95.9887C151.765 97.7068 150.839 99.1732 149.244 100.107C146.224 101.877 143.01 102.855 139.46 102.43C137.533 102.197 135.607 101.973 133.677 101.809C131.51 101.623 129.355 101.661 127.208 102.164C122.237 103.333 118.716 106.437 115.868 110.482C114.622 112.252 113.815 114.193 113.682 116.375C113.618 117.433 113.578 118.496 113.551 119.557C113.464 123.17 112.224 124.969 108.829 126.244C107.623 126.7 106.377 127.058 105.133 127.399C101.061 128.518 97.4914 130.562 94.1509 133.106C89.5146 136.636 86.9583 143.061 90.0907 149.709C90.6607 150.917 91.1141 152.18 91.5717 153.436C92.2373 155.26 92 157.037 90.8707 158.574C89.9223 159.863 88.8365 161.082 87.6675 162.176C86.3883 163.37 84.9448 164.385 83.572 165.479C81.9059 166.809 80.2648 168.194 79.1083 169.995C76.0632 174.744 75.6493 179.727 78.085 184.865C78.5967 185.947 79.2955 186.937 79.8696 187.989C80.3792 188.919 80.8867 189.855 81.3027 190.826C81.8851 192.191 81.9746 193.632 81.4192 195.015C81.0115 196.03 80.5123 197.046 79.8675 197.923C78.9378 199.182 77.8499 200.326 76.8079 201.501C75.1355 203.385 73.7232 205.447 73.0015 207.87C72.6 209.222 72.3109 210.676 72.3525 212.073C72.4523 215.364 73.4653 218.445 75.3477 221.157C76.5271 222.858 77.9227 224.41 79.2144 226.034C79.9903 227.008 80.7848 227.969 81.5107 228.978C82.7858 230.75 82.7608 232.589 81.6314 234.421C80.8805 235.64 80.0922 236.834 79.3205 238.04C77.8167 240.393 76.6914 242.91 76.0861 245.643C75.2562 249.387 75.9322 253.661 79.9861 256.357C81.4816 257.353 82.9626 258.401 84.3146 259.581C85.8746 260.941 87.3784 262.389 88.7346 263.951C90.4922 265.973 90.9394 268.369 90.1303 270.956C89.8557 271.836 89.5458 272.708 89.2879 273.592C88.3477 276.824 87.3015 280.029 86.5215 283.299C85.4191 287.933 86.1824 292.195 89.6207 295.752C92.437 298.666 95.6319 301.068 99.2511 302.897C99.9728 303.261 100.745 303.531 101.549 303.868C101.379 304.08 101.275 304.228 101.152 304.361C98.9203 306.793 98.0675 309.638 98.4773 312.912C98.7914 315.412 99.7461 317.633 101.258 319.607C104.366 323.661 108.02 327.177 112.041 330.313C112.513 330.681 113.021 331.012 113.543 331.303C119.531 334.635 125.765 336.285 132.519 333.897C134.474 333.206 136.35 332.302 138.291 331.563C139.84 330.975 141.404 330.394 143.006 329.985C145.427 329.367 146.981 330.016 148.368 332.058C148.913 332.859 149.398 333.699 149.893 334.534C151.465 337.175 153.643 339.186 156.283 340.736C158.067 341.784 159.887 342.604 162.028 341.988C162.071 341.976 162.119 341.982 162.165 341.978C166.537 341.427 170.362 339.838 173.133 336.229C173.235 336.096 173.386 336 173.63 335.786C173.538 336.295 173.49 336.655 173.407 337.007C172.831 339.436 172.274 341.89 170.755 343.941C166.402 349.817 161.437 355.03 154.86 358.505C150.001 361.07 145.18 363.712 139.828 365.145C130.349 367.682 120.665 369.005 110.924 370.016C108.725 370.245 106.498 370.414 104.351 370.906C97.7368 372.425 91.2805 374.509 84.8595 376.695C79.5659 378.498 74.6467 380.932 70.4119 384.666C60.9146 393.044 55.3589 403.54 53.3975 416.001H169.245C171.192 413.91 173.095 411.778 175.098 409.742C177.309 407.494 179.277 405.062 180.972 402.406C182.436 400.11 183.78 397.728 185.371 395.523C188.803 390.764 191.258 385.523 193.438 380.115C194.555 377.346 195.278 374.492 195.516 371.541C196.173 363.381 197.718 355.361 199.309 347.355C201.088 338.415 205.312 330.548 210.398 323.098C210.548 322.879 210.804 322.736 210.985 322.532C211.226 322.261 211.461 321.981 211.663 321.679C212.039 321.111 212.339 320.483 212.761 319.953C220.17 310.647 228.845 302.653 238.322 295.513C239.312 294.766 239.805 294.015 239.753 292.796C239.709 291.79 239.728 290.753 240.521 289.953ZM151.089 238.23C149.402 237.435 147.615 237.019 145.781 236.769C142.921 236.376 141.346 237.212 140.108 239.825C139.757 240.565 139.491 241.345 139.087 242.354C138.811 238.768 141.101 236.16 144.387 236.118C145.213 236.108 146.057 236.118 146.868 236.262C148.938 236.628 150.741 236.38 151.971 234.109C152.441 235.879 152.846 237.402 153.31 239.147C152.41 238.778 151.736 238.533 151.089 238.23Z" fill="#081994"/>
<path d="M310.592 416.001C310.78 415.544 310.93 415.066 311.163 414.633C316.6 404.532 323.582 395.562 331.309 387.139C332.65 385.677 333.974 384.199 335.34 382.761C335.774 382.305 336.331 381.967 336.813 381.553C337.473 380.986 338.115 380.399 338.943 379.662C339.254 379.805 339.815 380.062 340.536 380.392C340.091 381.024 339.782 381.586 339.359 382.044C337.311 384.266 335.8 386.842 334.25 389.415C330.705 395.299 327.031 401.106 323.444 406.966C321.616 409.954 319.862 412.988 318.075 416.001C315.58 416.001 313.086 416.001 310.592 416.001Z" fill="#081994"/>
<path d="M248.119 187.592C248.611 187.679 249.408 187.72 250.131 187.972C251.128 188.321 251.711 189.132 251.719 190.194C251.727 191.185 251.234 191.991 250.315 192.407C249.782 192.649 249.175 192.847 248.599 192.854C244.332 192.905 240.175 193.811 235.975 194.383C233.695 194.693 231.397 194.884 229.103 195.068C228.291 195.134 227.518 195.417 226.614 195.015C226.094 194.784 225.227 195.305 224.528 195.527C224.225 195.622 223.968 195.859 223.665 195.955C222.962 196.179 222.249 195.873 221.887 195.242C221.512 194.587 221.626 193.898 222.242 193.383C222.485 193.18 222.784 193.035 223.074 192.898C226.85 191.109 230.796 189.889 234.938 189.293C237.63 188.906 240.308 188.42 243.003 188.051C244.599 187.833 246.216 187.757 248.119 187.592Z" fill="#081994"/>
<path d="M219.594 253.38C216.44 254.03 213.556 254.637 210.667 255.216C207.857 255.78 205.063 255.538 202.29 254.947C200.168 254.495 198.088 254.691 195.985 255.124C194.091 255.514 192.169 255.783 190.249 256.016C188.981 256.17 187.713 256.041 186.184 255.503C186.859 254.969 187.253 254.445 187.758 254.295C190.581 253.452 193.419 252.646 196.278 251.93C198.993 251.25 201.695 251.767 204.365 252.312C207.006 252.852 209.579 252.799 212.104 251.788C212.488 251.634 212.89 251.525 213.287 251.406C214.25 251.116 215.149 251.146 216.07 251.672C217.137 252.282 218.283 252.753 219.594 253.38Z" fill="#081994"/>
<path d="M235.816 202.242C240.551 202.491 244.466 202.677 248.377 202.918C249.276 202.973 250.202 203.039 250.868 203.882C251.076 204.144 251.617 204.188 252.018 204.243C253.662 204.468 255.313 204.641 256.956 204.871C257.498 204.946 258.059 205.06 258.548 205.29C259.189 205.592 259.197 206.289 258.538 206.542C257.962 206.764 257.274 206.867 256.661 206.795C254.099 206.495 251.543 206.127 248.99 205.751C246.984 205.455 244.983 205.124 242.984 204.783C240.861 204.421 238.743 204.669 236.638 204.886C233.055 205.255 229.523 205.897 226.135 207.203C225.197 207.564 224.182 207.749 223.187 207.926C222.901 207.978 222.375 207.802 222.282 207.589C222.066 207.097 222.503 206.889 222.922 206.735C224.261 206.241 225.603 205.75 226.93 205.223C227.807 204.873 228.693 204.603 229.305 203.71C229.613 203.261 230.404 203.031 231.015 202.925C232.87 202.602 234.743 202.389 235.816 202.242Z" fill="#081994"/>
<path d="M240.424 289.846C240.733 289.572 241.041 289.298 241.349 289.023C241.417 289.113 241.484 289.202 241.552 289.291C241.208 289.511 240.864 289.732 240.521 289.952C240.489 289.917 240.456 289.881 240.424 289.846Z" fill="#081994"/>
</g>
<g opacity="0.74">
<path d="M358.353 415.999C357.998 413.862 357.634 411.727 357.29 409.588C356.451 404.379 354.616 399.536 351.953 394.995C351.766 394.677 351.594 394.344 351.365 394.058C348.737 390.784 346.148 387.473 342.874 384.789C341.773 383.887 340.699 382.952 339.628 382.044C340.345 380.898 340.365 380.86 341.361 381.388C343.66 382.607 345.707 384.192 347.568 385.993C351.735 390.029 355.252 394.601 358.203 399.578C359.178 401.223 359.721 403.13 360.413 404.935C361.787 408.515 362.878 412.175 363.342 415.998C361.679 415.999 360.016 415.999 358.353 415.999Z" fill="#5325D0"/>
<path d="M334.439 209.567C336.226 212.405 337.996 215.107 339.655 217.875C341.803 221.461 342.584 225.329 341.657 229.453C340.875 232.935 339.37 236.076 336.986 238.758C335.82 240.069 334.567 241.304 333.429 242.638C332.415 243.828 331.435 245.061 330.567 246.36C329.53 247.911 329.372 249.669 330.002 251.405C330.566 252.96 331.239 254.486 331.988 255.961C333.165 258.276 334.18 260.626 334.608 263.215C334.964 265.368 334.749 267.438 334.037 269.483C333.254 271.728 332.082 273.762 330.703 275.68C328.197 279.167 325.649 282.622 323.156 286.118C322.193 287.469 321.308 288.879 320.432 290.29C318.52 293.37 317.803 296.74 317.965 300.347C318.091 303.159 318.232 305.981 318.123 308.789C317.999 312.017 316.673 314.935 315.364 317.851C315.233 317.773 315.178 317.76 315.159 317.726C312.979 313.766 310.824 309.792 309.589 305.407C308.67 302.139 308.751 298.827 309.339 295.522C310.132 291.066 311.12 286.653 312.956 282.488C313.493 281.269 314.19 280.12 314.835 278.951C314.989 278.673 315.183 278.354 315.444 278.215C315.716 278.07 316.091 278.121 316.421 278.086C316.417 278.385 316.504 278.724 316.393 278.976C315.726 280.491 314.997 281.979 314.327 283.492C314.127 283.942 314.048 284.445 313.831 285.218C314.287 284.863 314.544 284.716 314.732 284.508C315.981 283.129 316.97 281.578 317.741 279.885C318.182 278.918 318.286 277.936 317.933 276.924C317.583 275.923 317.245 274.918 316.868 273.927C315.861 271.28 315.905 268.661 317.233 266.157C318.16 264.409 319.208 262.718 320.301 261.067C321.991 258.513 323.463 255.873 324.304 252.902C325.088 250.133 324.976 247.413 323.933 244.755C323.344 243.256 322.594 241.82 321.924 240.352C321.274 238.926 320.575 237.519 320.005 236.061C318.979 233.437 318.915 230.736 319.716 228.047C320.188 226.458 320.84 224.924 321.35 223.345C322.101 221.023 322.906 218.71 323.492 216.346C324.447 212.499 323.406 209.134 320.646 206.305C319.711 205.346 318.726 204.437 317.785 203.484C316.91 202.597 316.027 201.713 315.211 200.773C312.519 197.677 311.737 194.105 312.814 190.175C313.226 188.673 313.808 187.199 314.48 185.792C315.512 183.628 316.665 181.52 317.809 179.411C320.387 174.657 320.384 169.801 318.478 164.844C317.711 162.85 316.395 161.363 314.464 160.473C313.336 159.954 312.169 159.492 310.981 159.136C307.219 158.008 304.285 155.679 301.705 152.839C300.223 151.207 299.558 149.197 299.338 147.041C299.131 145.021 299.081 142.982 298.794 140.975C298.277 137.362 296.702 134.21 294.265 131.499C292.546 129.586 290.286 128.701 287.814 128.321C286.632 128.139 285.426 128.11 284.231 128.022C283.311 127.954 282.387 127.922 281.469 127.838C278.274 127.545 276.104 125.78 274.702 122.999C273.544 120.703 273.141 118.186 272.736 115.678C272.516 114.312 272.367 112.932 272.094 111.576C271.027 106.273 267.605 103.05 262.739 101.155C260.343 100.221 257.815 99.9739 255.272 99.8406C254.396 99.7946 253.519 99.7578 252.646 99.6748C249.185 99.3455 246.47 97.62 244.25 95.0551C243.225 93.8702 242.331 92.5714 241.351 91.3459C240.169 89.868 238.97 88.4031 237.757 86.9508C235.269 83.9725 231.993 82.619 228.198 82.2819C226.271 82.1107 224.339 81.8985 222.437 81.5551C218.81 80.9005 216.141 78.8359 214.261 75.7003C212.878 73.3917 212.122 70.8344 211.407 68.1289C212.067 68.5615 212.748 68.9657 213.383 69.4322C215.089 70.6873 216.944 71.5734 219.081 71.7342C220.047 71.8068 221.019 71.8149 221.988 71.8074C227.47 71.7645 231.958 73.8013 235.358 78.146C235.927 78.8731 236.565 79.55 237.095 80.3031C240.244 84.7697 244.639 87.4174 249.76 88.9834C254.496 90.4315 259.344 90.8725 264.274 90.4325C269.392 89.976 274.06 91.2479 278.347 94.043C281.43 96.0535 283.655 98.7505 284.876 102.225C285.579 104.225 286.155 106.269 286.807 108.287C287.147 109.339 287.509 110.385 287.891 111.423C288.865 114.071 290.658 116.002 293.21 117.154C294.886 117.91 296.641 118.495 298.37 119.13C299.235 119.448 300.126 119.695 300.998 119.993C305.517 121.533 308.648 124.55 310.35 128.99C310.769 130.082 311.348 130.662 312.491 131.014C318.686 132.919 322.812 137.084 325.231 143.021C325.901 144.665 326.156 146.401 326.189 148.165C326.22 149.827 325.979 151.526 326.254 153.14C326.52 154.701 327.274 156.182 327.846 157.686C329.366 161.686 329.376 165.802 328.878 169.975C328.649 171.898 328.523 173.835 328.388 175.768C328.267 177.508 328.69 179.155 329.346 180.754C330.574 183.747 332.407 186.321 334.682 188.605C335.659 189.586 336.618 190.589 337.522 191.636C339.999 194.501 340.685 197.823 339.866 201.473C339.644 202.458 339.333 203.434 338.961 204.373C338.072 206.618 336.789 208.553 334.439 209.567Z" fill="#5325D0"/>
<path d="M264.181 238.101C265.137 237.721 265.84 237.366 266.585 237.162C267.78 236.834 268.991 236.466 270.216 236.36C273.875 236.042 276.374 238.079 277.145 241.667C277.9 245.184 276.843 248.353 275.403 251.422C274.424 253.507 273.02 255.348 271.049 257.094C271.157 256.547 271.174 256.257 271.272 255.997C271.953 254.188 272.687 252.413 273.563 250.674C274.896 248.031 275.863 245.245 275.23 242.155C274.684 239.488 273.012 238.024 270.294 238.099C268.089 238.16 266.029 238.818 264.073 239.813C263.513 240.098 262.944 240.675 262.316 240.144C261.747 239.663 262.015 238.956 262.137 238.321C262.935 234.154 263.824 230.001 264.492 225.812C265.429 219.935 266.159 214.038 266.445 208.074C266.62 204.433 265.947 201.035 264.885 197.64C262.604 190.347 259.668 183.333 255.69 176.799C252.992 172.367 249.818 168.289 245.864 164.876C242.718 162.161 239.559 159.462 236.41 156.751C236.042 156.434 235.698 156.089 235.414 155.654C237.325 156.322 239.276 156.745 240.926 158.061C246.839 162.779 252.374 167.854 256.448 174.302C261.514 182.317 265.151 190.977 267.596 200.122C268.039 201.78 267.992 203.608 267.95 205.352C267.838 210.058 267.808 214.78 267.361 219.46C266.967 223.58 266.064 227.653 265.362 231.743C265.012 233.782 264.609 235.811 264.181 238.101Z" fill="#5325D0"/>
<path d="M260.756 358.553C259.964 359.394 259.334 358.911 258.755 358.489C256.182 356.612 253.587 354.762 251.077 352.804C249.588 351.642 248.229 350.311 246.832 349.034C242.286 344.875 239.8 339.57 238.678 333.643C237.908 329.571 237.45 325.432 237.03 321.305C236.517 316.247 236.384 311.161 236.701 306.084C236.885 303.142 237.299 300.213 237.62 297.28C237.68 296.731 237.788 296.187 237.898 295.489C238.393 295.216 238.974 294.896 239.786 294.449C239.786 295.362 239.79 296.031 239.786 296.701C239.76 301.039 239.675 305.379 239.731 309.716C239.755 311.554 240.103 313.385 240.25 315.224C240.466 317.937 240.638 320.653 240.821 323.369C241.177 328.678 241.836 333.928 243.597 338.991C244.549 341.729 245.886 344.222 247.825 346.39C248.531 347.181 249.205 348.007 249.825 348.867C252.713 352.871 256.468 355.891 260.756 358.553Z" fill="#5325D0"/>
<path d="M240.153 176.299C242.398 176.511 244.657 176.626 246.884 176.962C249.247 177.318 251.367 178.342 253.215 179.882C256.338 182.487 258.63 185.675 259.72 189.614C260.018 190.692 259.929 191.886 259.945 193.027C259.955 193.667 259.665 194.231 258.949 194.331C258.22 194.432 257.875 193.914 257.638 193.328C257.224 192.303 256.845 191.263 256.419 190.243C254.209 184.941 250.317 181.653 244.63 180.697C240.779 180.05 236.907 180.43 233.044 180.825C229.696 181.168 226.338 181.412 222.984 181.699C222.938 181.703 222.891 181.706 222.845 181.704C222.034 181.677 221.571 181.3 221.497 180.599C221.418 179.852 221.957 179.676 222.51 179.522C224.684 178.915 226.847 178.266 229.036 177.717C232.676 176.804 236.38 176.376 240.153 176.299Z" fill="#5325D0"/>
<path d="M157.168 259.691C157.79 259.533 158.304 259.403 158.981 259.232C159.406 260.47 159.886 261.611 160.191 262.796C161.96 269.668 163.624 276.567 165.451 283.422C166.649 287.916 168.062 292.353 169.379 296.816C169.587 297.523 169.825 298.223 170.002 298.937C170.377 300.455 169.644 301.439 168.107 301.301C165.447 301.061 162.79 300.759 160.147 300.371C157.778 300.024 155.431 299.528 153.075 299.095C152.905 299.064 152.739 299.015 152.588 298.798C157.108 298.798 161.628 298.798 166.036 298.798C166.989 297.642 166.845 296.554 166.47 295.331C165.81 293.174 165.379 290.949 164.76 288.779C163.612 284.748 162.324 280.756 161.235 276.709C160.422 273.686 159.855 270.598 159.134 267.549C158.53 264.994 157.863 262.456 157.168 259.691Z" fill="#5325D0"/>
<path d="M207.496 243.157C208.361 242.583 209.044 242.113 209.745 241.671C211.314 240.682 213.04 240.374 214.786 240.934C216.265 241.407 217.752 241.991 219.074 242.793C223.694 245.595 227.573 249.267 231.018 253.405C231.346 253.799 232.01 254.306 231.499 254.804C230.879 255.408 230.579 254.545 230.248 254.202C226.713 250.536 222.885 247.212 218.598 244.46C217.374 243.674 215.985 243.111 214.615 242.595C213.199 242.062 211.796 242.307 210.519 243.143C209.866 243.572 209.22 244.013 208.628 244.41C207.386 243.786 206.232 243.107 205.004 242.612C202.847 241.743 200.723 241.989 198.803 243.278C197.313 244.277 195.901 245.398 194.501 246.522C193.118 247.632 191.792 248.813 190.387 249.897C192.922 246.97 195.545 244.129 199.16 242.511C200.28 242.01 201.502 241.664 202.714 241.459C204.55 241.149 206.162 241.79 207.496 243.157Z" fill="#5325D0"/>
<path d="M163.22 182.574C164.335 181.945 165.412 181.233 166.573 180.705C169.54 179.356 172.678 178.561 175.926 178.41C178.039 178.311 180.184 178.364 182.282 178.619C186.719 179.159 191.135 179.875 195.559 180.525C195.736 180.551 195.903 180.642 196.168 180.736C195.627 181.463 195.056 181.702 194.169 181.545C190.583 180.909 186.987 180.331 183.389 179.77C180.45 179.312 177.496 179.442 174.548 179.689C171.644 179.932 168.774 180.374 166.066 181.523C165.153 181.911 164.28 182.388 163.388 182.824C163.332 182.741 163.276 182.657 163.22 182.574Z" fill="#5325D0"/>
<path d="M238.074 214.232C237.754 214.21 237.389 214.276 237.124 214.144C236.79 213.977 236.536 213.648 236.248 213.389C236.518 213.12 236.746 212.768 237.07 212.604C237.379 212.447 237.786 212.475 238.151 212.439C239.615 212.295 241.084 212.193 242.542 212.004C243.31 211.904 244.053 211.622 244.82 211.495C245.088 211.451 245.393 211.627 245.682 211.703C245.555 212.006 245.5 212.383 245.283 212.591C245.033 212.832 244.654 212.996 244.305 213.07C242.24 213.509 240.168 213.912 238.098 214.327C238.09 214.295 238.082 214.264 238.074 214.232Z" fill="#5325D0"/>
<path d="M180.442 214.785C180.246 214.742 180.01 214.726 179.805 214.638C179.28 214.413 179.166 213.89 179.616 213.554C179.972 213.287 180.418 213.093 180.854 212.988C182.999 212.472 185.15 211.979 187.31 211.53C187.59 211.472 187.934 211.719 188.249 211.825C188.084 212.115 187.972 212.463 187.739 212.679C187.516 212.886 187.176 212.992 186.87 213.08C184.969 213.628 183.064 214.161 181.158 214.69C180.94 214.751 180.704 214.752 180.442 214.785Z" fill="#5325D0"/>
<path d="M240.937 203.964C240.585 204.246 240.361 204.553 240.207 204.521C239.957 204.47 239.753 204.197 239.529 204.017C239.7 203.834 239.872 203.504 240.043 203.504C240.291 203.504 240.539 203.743 240.937 203.964Z" fill="#5325D0"/>
</g>
</g>
<defs>
<clipPath id="clip0_4653_338336">
<rect width="416" height="416" fill="white"/>
</clipPath>
</defs>
</svg>
