<svg width="20" height="20" viewBox="0 0 20 20" fill="none" xmlns="http://www.w3.org/2000/svg">
<path fill-rule="evenodd" clip-rule="evenodd" d="M5.06817 2.99386L9.99998 2.5L14.9318 2.99386L18.75 7.84875L9.99998 17.4999L1.25 7.84875L5.06817 2.99386Z" fill="#FDB300"/>
<path d="M4.79414 7.84875L9.99994 17.5L1.25 7.84875H4.79414ZM15.2059 7.84875L10.0001 17.5L18.75 7.84875" fill="#EA6C00"/>
<path fill-rule="evenodd" clip-rule="evenodd" d="M4.79297 7.84875H15.2046L9.99876 17.5" fill="#FDAD00"/>
<path d="M9.99876 2.5L5.06696 2.99378L4.79297 7.8487L9.99876 2.5ZM9.99885 2.5L14.9307 2.99378L15.2046 7.8487" fill="#FDD231"/>
<path d="M18.75 7.8487L14.9319 2.99377L15.2059 7.8487H18.75ZM1.25 7.8487L5.06813 2.99377L4.79414 7.8487" fill="#FDAD00"/>
<path fill-rule="evenodd" clip-rule="evenodd" d="M9.99876 2.5L4.79297 7.8487H15.2046" fill="#FEEEB7"/>
</svg>
