<svg width="182" height="137" viewBox="0 0 182 137" fill="none" xmlns="http://www.w3.org/2000/svg">
<circle cx="91" cy="64" r="64" fill="#F5F5F5"/>
<circle cx="25" cy="20" r="6" fill="#F5F5F5"/>
<circle cx="22" cy="112" r="8" fill="#F5F5F5"/>
<circle cx="165" cy="36" r="8" fill="#F5F5F5"/>
<circle cx="154" cy="9" r="5" fill="#F5F5F5"/>
<g filter="url(#filter0_ddd_5947_116709)">
<path d="M93 16C79.534 16 67.6222 22.6541 60.3733 32.8536C58.0062 32.2954 55.5376 32 53 32C35.3269 32 21 46.3269 21 64C21 81.6731 35.3269 96 53 96H133C148.464 96 161 83.464 161 68C161 52.536 148.464 40 133 40C131.902 40 130.818 40.0633 129.752 40.1863C123.623 25.9596 109.475 16 93 16Z" fill="#FAFAFA"/>
<path d="M93 15.5C109.551 15.5 123.781 25.4286 130.063 39.6523C131.029 39.5535 132.009 39.5 133 39.5C148.74 39.5 161.5 52.2599 161.5 68C161.5 83.7401 148.74 96.5 133 96.5H53C35.0507 96.5 20.5 81.9493 20.5 64C20.5 46.0507 35.0507 31.5 53 31.5C55.4598 31.5 57.8558 31.7758 60.1602 32.2939C67.5163 22.1211 79.4847 15.5 93 15.5Z" stroke="black" stroke-opacity="0.08"/>
<circle cx="53" cy="64" r="32" fill="url(#paint0_linear_5947_116709)"/>
<circle cx="93" cy="56" r="40" fill="url(#paint1_linear_5947_116709)"/>
<circle cx="133" cy="68" r="28" fill="url(#paint2_linear_5947_116709)"/>
</g>
<foreignObject x="55" y="52" width="72" height="72"><div xmlns="http://www.w3.org/1999/xhtml" style="backdrop-filter:blur(4px);clip-path:url(#bgblur_0_5947_116709_clip_path);height:100%;width:100%"></div></foreignObject><g data-figma-bg-blur-radius="8">
<path d="M63 88C63 72.536 75.536 60 91 60C106.464 60 119 72.536 119 88C119 103.464 106.464 116 91 116C75.536 116 63 103.464 63 88Z" fill="black" fill-opacity="0.2"/>
<path d="M101.5 98.5L97.4168 94.4167M100.333 87.4167C100.333 92.8935 95.8935 97.3333 90.4167 97.3333C84.9398 97.3333 80.5 92.8935 80.5 87.4167C80.5 81.9398 84.9398 77.5 90.4167 77.5C95.8935 77.5 100.333 81.9398 100.333 87.4167Z" stroke="white" stroke-width="2" stroke-linecap="round" stroke-linejoin="round"/>
</g>
<defs>
<filter id="filter0_ddd_5947_116709" x="0" y="15" width="182" height="122" filterUnits="userSpaceOnUse" color-interpolation-filters="sRGB">
<feFlood flood-opacity="0" result="BackgroundImageFix"/>
<feColorMatrix in="SourceAlpha" type="matrix" values="0 0 0 0 0 0 0 0 0 0 0 0 0 0 0 0 0 0 127 0" result="hardAlpha"/>
<feMorphology radius="1.5" operator="erode" in="SourceAlpha" result="effect1_dropShadow_5947_116709"/>
<feOffset dy="3"/>
<feGaussianBlur stdDeviation="1.5"/>
<feColorMatrix type="matrix" values="0 0 0 0 0.0392157 0 0 0 0 0.0496732 0 0 0 0 0.0705882 0 0 0 0.04 0"/>
<feBlend mode="normal" in2="BackgroundImageFix" result="effect1_dropShadow_5947_116709"/>
<feColorMatrix in="SourceAlpha" type="matrix" values="0 0 0 0 0 0 0 0 0 0 0 0 0 0 0 0 0 0 127 0" result="hardAlpha"/>
<feMorphology radius="4" operator="erode" in="SourceAlpha" result="effect2_dropShadow_5947_116709"/>
<feOffset dy="8"/>
<feGaussianBlur stdDeviation="4"/>
<feColorMatrix type="matrix" values="0 0 0 0 0.0392157 0 0 0 0 0.0496732 0 0 0 0 0.0705882 0 0 0 0.03 0"/>
<feBlend mode="normal" in2="effect1_dropShadow_5947_116709" result="effect2_dropShadow_5947_116709"/>
<feColorMatrix in="SourceAlpha" type="matrix" values="0 0 0 0 0 0 0 0 0 0 0 0 0 0 0 0 0 0 127 0" result="hardAlpha"/>
<feMorphology radius="4" operator="erode" in="SourceAlpha" result="effect3_dropShadow_5947_116709"/>
<feOffset dy="20"/>
<feGaussianBlur stdDeviation="12"/>
<feColorMatrix type="matrix" values="0 0 0 0 0.0392157 0 0 0 0 0.0496732 0 0 0 0 0.0705882 0 0 0 0.08 0"/>
<feBlend mode="normal" in2="effect2_dropShadow_5947_116709" result="effect3_dropShadow_5947_116709"/>
<feBlend mode="normal" in="SourceGraphic" in2="effect3_dropShadow_5947_116709" result="shape"/>
</filter>
<clipPath id="bgblur_0_5947_116709_clip_path" transform="translate(-55 -52)"><path d="M63 88C63 72.536 75.536 60 91 60C106.464 60 119 72.536 119 88C119 103.464 106.464 116 91 116C75.536 116 63 103.464 63 88Z"/>
</clipPath><linearGradient id="paint0_linear_5947_116709" x1="28.4286" y1="42.8571" x2="85" y2="96" gradientUnits="userSpaceOnUse">
<stop stop-color="#E9EAEB"/>
<stop offset="0.350715" stop-color="#FAFAFA"/>
</linearGradient>
<linearGradient id="paint1_linear_5947_116709" x1="62.2857" y1="29.5714" x2="133" y2="95.9999" gradientUnits="userSpaceOnUse">
<stop stop-color="#E9EAEB"/>
<stop offset="0.350715" stop-color="#FAFAFA"/>
</linearGradient>
<linearGradient id="paint2_linear_5947_116709" x1="111.5" y1="49.5" x2="161" y2="96" gradientUnits="userSpaceOnUse">
<stop stop-color="#E9EAEB"/>
<stop offset="0.350715" stop-color="#FAFAFA"/>
</linearGradient>
</defs>
</svg>
