<svg width="28" height="28" viewBox="0 0 28 28" fill="none" xmlns="http://www.w3.org/2000/svg">
<path d="M8.75078 7.7V4.55C8.75078 4.27152 8.86141 4.00445 9.05832 3.80754C9.25523 3.61062 9.5223 3.5 9.80078 3.5H22.4008C22.6793 3.5 22.9463 3.61062 23.1432 3.80754C23.3402 4.00445 23.4508 4.27152 23.4508 4.55V19.25C23.4508 19.5285 23.3402 19.7955 23.1432 19.9925C22.9463 20.1894 22.6793 20.3 22.4008 20.3H19.2508V23.45C19.2508 24.0296 18.7783 24.5 18.1934 24.5H5.60813C5.46966 24.5008 5.3324 24.4743 5.20422 24.4219C5.07604 24.3695 4.95948 24.2923 4.86122 24.1948C4.76297 24.0972 4.68496 23.9812 4.63169 23.8534C4.57841 23.7255 4.55092 23.5885 4.55078 23.45L4.55393 8.75C4.55393 8.1704 5.02643 7.7 5.61128 7.7H8.75078ZM6.65393 9.8L6.65078 22.4H17.1508V9.8H6.65393ZM10.8508 7.7H19.2508V18.2H21.3508V5.6H10.8508V7.7Z" fill="#5335E9"/>
</svg>
