<svg width="24" height="24" viewBox="0 0 24 24" fill="none" xmlns="http://www.w3.org/2000/svg">
<path d="M14.7016 3.00001C15.3336 2.99993 15.9546 3.16626 16.5019 3.48228C17.0493 3.7983 17.5039 4.25287 17.8198 4.80027C18.1358 5.34767 18.3021 5.96862 18.302 6.60068C18.3019 7.23273 18.1353 7.85362 17.8192 8.40091L21.9016 8.40001V10.2H20.1016V19.2C20.1016 19.4387 20.0067 19.6676 19.838 19.8364C19.6692 20.0052 19.4403 20.1 19.2016 20.1H4.80156C4.56287 20.1 4.33395 20.0052 4.16517 19.8364C3.99638 19.6676 3.90156 19.4387 3.90156 19.2V10.2H2.10156V8.40001L6.18396 8.40091C5.73744 7.6277 5.59418 6.71616 5.78201 5.84326C5.96983 4.97037 6.47534 4.19842 7.20036 3.6773C7.92539 3.15619 8.8182 2.9231 9.70544 3.0233C10.5927 3.12349 11.411 3.54982 12.0016 4.21951C12.3387 3.83555 12.754 3.5281 13.2197 3.31778C13.6854 3.10745 14.1906 2.99911 14.7016 3.00001ZM11.1016 10.2H5.70156V18.3H11.1016V10.2ZM18.3016 10.2H12.9016V18.3H18.3016V10.2ZM9.30156 4.80001C8.83448 4.79792 8.38487 4.97747 8.04773 5.30075C7.71058 5.62402 7.5123 6.06569 7.49477 6.53245C7.47725 6.99921 7.64185 7.45451 7.9538 7.80215C8.26576 8.1498 8.70064 8.36256 9.16656 8.39551L9.30156 8.40001H11.1016V6.60001C11.1016 6.16986 10.9476 5.75393 10.6674 5.42754C10.3872 5.10115 9.99944 4.88587 9.57426 4.82071L9.43566 4.80451L9.30156 4.80001ZM14.7016 4.80001C14.2474 4.79986 13.8101 4.97137 13.4771 5.28015C13.1441 5.58893 12.9401 6.01217 12.9061 6.46501L12.9016 6.60001V8.40001H14.7016C15.1557 8.40015 15.5931 8.22864 15.9261 7.91986C16.259 7.61108 16.463 7.18785 16.4971 6.73501L16.5016 6.60001C16.5016 6.12262 16.3119 5.66478 15.9744 5.32721C15.6368 4.98965 15.179 4.80001 14.7016 4.80001Z" fill="#5335E9"/>
</svg>
