<svg width="24" height="24" viewBox="0 0 24 24" fill="none" xmlns="http://www.w3.org/2000/svg">
<path d="M14.6996 3.00001C15.3317 2.99993 15.9526 3.16626 16.5 3.48228C17.0474 3.7983 17.5019 4.25287 17.8179 4.80027C18.1339 5.34767 18.3002 5.96862 18.3 6.60068C18.2999 7.23273 18.1334 7.85362 17.8172 8.40091L21.8996 8.40001V10.2H20.0996V19.2C20.0996 19.4387 20.0048 19.6676 19.836 19.8364C19.6672 20.0052 19.4383 20.1 19.1996 20.1H4.79961C4.56091 20.1 4.332 20.0052 4.16321 19.8364C3.99443 19.6676 3.89961 19.4387 3.89961 19.2V10.2H2.09961V8.40001L6.18201 8.40091C5.73549 7.6277 5.59223 6.71616 5.78005 5.84326C5.96788 4.97037 6.47338 4.19842 7.19841 3.6773C7.92344 3.15619 8.81625 2.9231 9.70348 3.0233C10.5907 3.12349 11.4091 3.54982 11.9996 4.21951C12.3367 3.83555 12.7521 3.5281 13.2177 3.31778C13.6834 3.10745 14.1886 2.99911 14.6996 3.00001ZM11.0996 10.2H5.69961V18.3H11.0996V10.2ZM18.2996 10.2H12.8996V18.3H18.2996V10.2ZM9.29961 4.80001C8.83252 4.79792 8.38292 4.97747 8.04577 5.30075C7.70863 5.62402 7.51035 6.06569 7.49282 6.53245C7.4753 6.99921 7.6399 7.45451 7.95185 7.80215C8.26381 8.1498 8.69868 8.36256 9.16461 8.39551L9.29961 8.40001H11.0996V6.60001C11.0996 6.16986 10.9456 5.75393 10.6654 5.42754C10.3853 5.10115 9.99749 4.88587 9.57231 4.82071L9.43371 4.80451L9.29961 4.80001ZM14.6996 4.80001C14.2455 4.79986 13.8081 4.97137 13.4751 5.28015C13.1421 5.58893 12.9382 6.01217 12.9041 6.46501L12.8996 6.60001V8.40001H14.6996C15.1537 8.40015 15.5911 8.22864 15.9241 7.91986C16.2571 7.61108 16.4611 7.18785 16.4951 6.73501L16.4996 6.60001C16.4996 6.12262 16.31 5.66478 15.9724 5.32721C15.6348 4.98965 15.177 4.80001 14.6996 4.80001Z" fill="#AAABAE"/>
</svg>
