<svg width="24" height="24" viewBox="0 0 24 24" fill="none" xmlns="http://www.w3.org/2000/svg">
<path d="M3 20.9996C3 19.09 3.75857 17.2587 5.10883 15.9084C6.45909 14.5582 8.29044 13.7996 10.2 13.7996C12.1096 13.7996 13.9409 14.5582 15.2912 15.9084C16.6414 17.2587 17.4 19.09 17.4 20.9996H15.6C15.6 19.5674 15.0311 18.1939 14.0184 17.1812C13.0057 16.1685 11.6322 15.5996 10.2 15.5996C8.76783 15.5996 7.39432 16.1685 6.38162 17.1812C5.36893 18.1939 4.8 19.5674 4.8 20.9996H3ZM10.2 12.8996C7.2165 12.8996 4.8 10.4831 4.8 7.49961C4.8 4.51611 7.2165 2.09961 10.2 2.09961C13.1835 2.09961 15.6 4.51611 15.6 7.49961C15.6 10.4831 13.1835 12.8996 10.2 12.8996ZM10.2 11.0996C12.189 11.0996 13.8 9.48861 13.8 7.49961C13.8 5.51061 12.189 3.89961 10.2 3.89961C8.211 3.89961 6.6 5.51061 6.6 7.49961C6.6 9.48861 8.211 11.0996 10.2 11.0996ZM17.6556 14.4323C18.9204 15.0019 19.9938 15.9247 20.7467 17.0897C21.4997 18.2548 21.9001 19.6125 21.9 20.9996H20.1C20.1002 19.9592 19.7999 18.9409 19.2352 18.067C18.6705 17.1932 17.8654 16.5011 16.9167 16.0739L17.6547 14.4323H17.6556ZM17.0364 4.27131C17.9432 4.64508 18.7185 5.27979 19.2639 6.09492C19.8094 6.91004 20.1004 7.86883 20.1 8.84961C20.1004 10.0847 19.6389 11.2753 18.8063 12.1876C17.9736 13.0998 16.83 13.6677 15.6 13.7798V11.9681C16.2668 11.8726 16.8855 11.5658 17.3652 11.0928C17.8448 10.6198 18.1602 10.0055 18.265 9.34005C18.3699 8.6746 18.2586 7.99308 17.9475 7.39553C17.6365 6.79798 17.1421 6.31588 16.5369 6.02001L17.0364 4.27131Z" fill="#1FC16B"/>
</svg>
