<svg width="538" height="269" viewBox="0 0 538 269" fill="none" xmlns="http://www.w3.org/2000/svg">
<path d="M135.803 30.7215C136.646 31.6422 137.658 32.045 138.754 32.54C139.438 32.8486 140.128 33.1414 140.826 33.4169C142.432 34.0516 144.074 34.596 145.742 35.0488C147.653 35.568 149.619 36.0041 151.579 36.2815C152.389 36.3962 153.218 36.4783 154.036 36.5152C155.105 36.5636 156.019 36.4101 156.835 36.0643C158.88 35.8087 160.671 33.4373 160.7 31.4697C160.727 29.5961 159.791 27.7616 158.172 26.8344C156.908 25.9237 155.284 25.6238 153.657 25.236C152.121 24.8696 150.595 24.5064 149.088 24.0289C147.655 23.5747 146.243 23.0507 144.862 22.4596C144.613 22.3535 144.292 22.2444 144.007 22.1159C143.937 22.0649 143.79 21.9753 143.568 21.8664C141.313 20.7634 139.581 20.6162 137.233 21.5788C135.1 22.4532 133.711 25.45 134.302 27.6574C134.605 28.7863 134.992 29.8353 135.803 30.7215Z" fill="#C3BCFC"/>
<path d="M527.877 142.863C524.723 141.502 521.702 142.771 520.001 145.595C516.732 151.023 514.617 157.126 513.692 163.388C513.264 166.292 515.055 169.523 518.158 169.978C521.179 170.42 524.167 168.613 524.762 165.521C525.024 164.163 525.334 162.817 525.713 161.486C525.818 161.117 525.942 160.751 526.044 160.381C526.05 160.357 526.056 160.335 526.061 160.316C526.067 160.299 526.073 160.285 526.079 160.268C526.312 159.619 526.552 158.973 526.81 158.334C527.876 155.696 529.13 153.149 530.616 150.722C532.23 148.087 530.605 144.039 527.877 142.863Z" fill="#C3BCFC"/>
<path d="M368.705 0.651983C366.005 -0.675609 362.079 -0.0125951 360.698 2.98032C359.196 6.23592 357.704 9.49171 356.276 12.78C355.458 14.6619 354.628 16.5347 353.887 18.4485C353.574 19.2585 353.275 20.0444 353.077 20.891C352.98 21.3043 352.853 21.7206 352.784 22.1398C352.737 22.5545 352.69 22.9691 352.643 23.3836C352.89 24.7147 352.92 25.0273 352.735 24.3217C352.724 26.0709 353.936 27.6633 355.526 28.2812C357.257 28.9543 358.847 28.4373 360.228 27.2917C359.562 27.8439 361.075 26.6833 361.219 26.5247C361.495 26.2192 361.729 25.8634 361.98 25.535C362.699 24.5918 363.355 23.6655 363.933 22.6352C364.785 21.1153 365.559 19.5501 366.36 18.0028C367.965 14.9038 369.503 11.7753 371.038 8.64106C372.39 5.88127 371.656 2.10324 368.705 0.651983Z" fill="#C3BCFC"/>
<path d="M44.3913 249.916C44.0017 246.771 41.3305 244.185 38.0253 244.487C34.8208 244.78 31.5607 245.667 28.4786 246.575C25.3646 247.493 22.5793 248.872 19.8771 250.67C17.7971 252.054 17.2045 254.903 18.3214 257.057C19.5618 259.448 21.9575 260.033 24.4434 259.483C23.3906 259.716 25.2864 259.33 25.4677 259.294C26.112 259.167 26.7531 259.026 27.391 258.871C28.0536 258.722 28.0417 258.721 27.3557 258.869C29.0083 258.524 30.5853 258.034 32.2121 257.597C32.8533 257.425 33.4995 257.276 34.1428 257.112C34.3003 257.077 34.4178 257.05 34.4987 257.031C34.676 256.995 34.8532 256.958 35.0309 256.924C36.3321 256.674 37.6517 256.525 38.9502 256.268C40.5537 255.951 41.8857 255.505 42.9891 254.217C43.9329 253.115 44.5723 251.378 44.3913 249.916Z" fill="#C3BCFC"/>
<path d="M404.063 106.317C403.167 104.268 401.765 103.028 400.068 101.682C399.001 100.835 397.907 100.028 396.787 99.2512C395.475 98.3416 394.152 97.3803 392.752 96.6152C390.944 95.6269 389.191 95.1414 387.135 95.0318C384.215 94.876 381.691 98.8726 382.991 101.443C383.843 103.129 384.897 104.374 386.27 105.651C387.204 106.518 388.218 107.295 389.185 108.127C390.153 108.96 391.105 109.815 392.044 110.681C393.224 111.768 394.322 113.14 395.877 113.68C398.211 114.49 400.487 114.455 402.426 112.702C404.093 111.196 405.011 108.488 404.063 106.317Z" fill="#FFE5D4"/>
<path d="M250.148 64.3586C249.478 62.905 248.623 61.5504 247.853 60.1487C247.847 60.1388 247.844 60.132 247.838 60.1223C247.696 59.8388 247.557 59.5539 247.42 59.2679C247.177 58.7612 246.944 58.2505 246.717 57.7362C245.716 55.4582 245.005 53.0799 244.054 50.7862C243.08 48.4347 240.732 47.0513 238.202 47.5941C235.822 48.1045 233.905 50.3872 234.192 52.9115C234.525 55.8416 235.441 58.6803 236.507 61.4228C237.541 64.0854 238.714 67.0799 240.401 69.387C242.032 71.6176 245.002 72.372 247.465 71.1004C249.734 69.9287 251.305 66.8679 250.148 64.3586Z" fill="#322FEB"/>
<path d="M65.8998 118.556C65.5465 115.653 62.9676 113.03 59.869 113.412C58.4276 113.59 56.9647 114.181 56.0427 115.356C55.0591 116.609 54.8007 117.856 54.7144 119.43C54.5612 122.223 54.9496 125.132 55.0918 127.927C55.1618 129.3 55.1945 130.675 55.3881 132.037C55.5247 132.999 55.6948 133.967 55.9842 134.895C56.1237 135.343 56.303 135.726 56.5209 136.146C56.668 136.546 56.9033 136.885 57.2268 137.163C57.7479 137.694 57.7904 137.767 57.3538 137.381C59.0546 140.203 63.2681 139.465 64.6424 136.811C64.2012 137.663 65.1421 136.103 65.1674 136.051C65.4128 135.545 65.5691 134.923 65.7123 134.375C65.8852 133.714 65.9458 133.06 65.9941 132.381C66.121 130.602 66.1067 128.848 66.0802 127.068C66.0391 124.267 66.2381 121.335 65.8998 118.556Z" fill="#322FEB"/>
<path d="M491.277 208.676C490.596 205.535 487.95 203.862 484.845 204.142C479.102 204.659 473.26 205.447 467.799 207.323C465.989 207.945 464.822 210.401 465.216 212.214C465.65 214.219 467.231 215.744 469.305 215.964C472.356 216.287 475.353 216.186 478.403 215.899C481.175 215.639 483.976 215.472 486.733 215.094C489.624 214.697 491.899 211.54 491.277 208.676Z" fill="#322FEB"/>
<path d="M421.938 420.283C424.412 418.698 426.925 417.152 429.531 415.801C432.545 414.239 435.647 412.858 438.773 411.532C441.078 410.541 443.375 409.537 445.687 408.564C441.479 408.475 437.266 408.279 433.064 408.111C428.512 407.932 423.976 407.563 419.427 407.335C423.936 404.838 428.616 402.641 433.344 400.612C442.881 396.658 452.679 393.4 462.566 390.435C476.595 386.229 490.644 381.915 505.178 379.826C509.727 379.27 514.282 378.957 518.843 378.957C521.325 378.957 523.811 379.049 526.298 379.246C528.977 379.834 531.64 380.47 534.263 381.258C537.379 382.199 540.444 383.296 543.547 384.272C546.652 385.248 549.779 386.129 552.897 387.065C554.31 387.492 555.72 387.908 557.135 388.306C557.465 387.396 557.404 386.354 556.901 385.426C555.04 382.007 553.193 378.677 551.073 375.532C548.919 372.339 546.428 369.007 543.236 365.047C537.867 358.387 532.834 352.35 527.847 346.594C521.507 339.273 514.821 332.047 508.352 325.061C504.145 320.515 499.795 315.815 495.581 311.133C492.892 308.146 490.201 305.071 487.599 302.098C484.996 299.126 482.305 296.052 479.616 293.064C475.663 288.674 471.484 284.364 467.443 280.197C465.948 278.655 464.455 277.113 462.968 275.564C461.074 273.59 459.167 271.626 457.259 269.663C453.621 265.916 449.858 262.041 446.248 258.148C442.457 254.065 438.915 249.589 435.893 245.715C435.842 245.65 435.794 245.592 435.744 245.527C434.258 250.708 430.066 254.861 424.85 256.291C422.366 256.958 419.883 257.023 417.399 256.497C417.237 257.927 417.03 259.353 416.732 260.766C416.059 263.987 414.868 267.096 413.332 270.01C411.883 272.76 410.031 275.42 407.857 277.641C407.348 278.157 406.818 278.642 406.244 279.086C405.21 279.883 403.618 281.363 402.194 282.024C400.718 282.708 399.171 283.4 397.571 283.866C397.655 283.951 397.735 284.036 397.819 284.12L398.184 284.488C399.777 286.085 401.364 287.682 402.933 289.302C407.158 293.675 410.282 297.12 413.06 300.472C417.105 305.358 420.032 309.523 422.273 313.58C423.707 316.164 424.926 318.789 425.9 321.381C426.856 323.904 427.5 326.169 427.873 328.306C428.339 331.017 428.792 334.213 428.628 337.373C428.554 338.728 428.4 340.169 428.142 341.907C428.01 342.804 427.842 343.844 427.541 344.834C426.168 349.37 423.829 353.069 420.78 355.533C419.787 356.331 418.886 357.036 417.921 357.583C416.845 358.191 415.739 358.662 414.8 359.044C413.45 359.59 411.989 359.965 410.456 360.157C410.163 360.125 409.871 360.093 409.574 360.057C407.262 359.708 405.15 359.278 403.191 358.765C403.054 359.307 402.9 359.846 402.769 360.39C401.225 366.769 399.889 373.179 398.826 379.655C398.293 382.9 397.72 386.142 397.238 389.396C396.753 392.644 396.268 395.894 395.71 399.132C395.157 402.353 394.519 405.555 393.882 408.756C393.606 410.139 393.361 411.527 393.134 412.919C393.725 415.34 394.142 417.807 394.476 420.282H421.938V420.283Z" fill="#FFD4BA"/>
<path d="M0.730413 420.282C0.745809 420.255 0.761204 420.228 0.7766 420.201C3.50553 420.081 6.22432 419.897 8.93999 419.576C17.9677 418.307 27.048 417.539 36.1201 416.651C42.537 416.027 49.026 415.738 55.495 415.738C57.8658 415.738 60.2313 415.778 62.5895 415.851C64.1248 415.898 65.6579 415.976 67.1903 416.063C71.413 415.82 75.6349 415.558 79.8615 415.44C84.3769 415.308 88.8973 415.216 93.4211 415.216C98.0895 415.216 102.758 415.316 107.418 415.568C116.089 416.032 124.68 417.373 133.271 418.598C137.719 419.114 142.194 419.374 146.662 419.65C150.488 419.883 154.315 420.074 158.144 420.265C158.164 420.271 158.185 420.276 158.206 420.282H232.066C231.606 419.463 231.156 418.638 230.678 417.83C228.621 414.344 227.024 410.722 225.472 406.989C224.156 403.828 222.905 400.622 222.191 397.268C221.629 394.647 221.301 392.025 220.956 389.361C220.756 387.84 220.583 386.311 220.531 384.778C220.374 380.22 220.884 375.702 221.629 371.204C222.159 368.026 222.945 364.881 224.137 361.879C225.604 358.186 227.076 354.336 229.298 350.998C230.529 349.15 231.892 347.424 233.26 345.676C233.986 344.752 234.724 343.826 235.551 342.986C237.945 340.557 240.628 338.464 243.367 336.435C245.187 335.082 246.984 333.678 248.858 332.397C249.625 331.875 250.402 331.369 251.18 330.863C252.176 327.707 253.25 324.495 254.456 321.161C255.299 318.832 256.225 316.487 257.123 314.218L257.187 314.057C258.924 309.68 260.721 305.154 262.004 300.48C263.557 294.801 264.796 288.621 265.794 281.586C266.126 279.035 266.478 276.278 266.802 273.415C265.462 274.087 264.06 274.648 262.675 275.179C260.368 276.059 257.91 276.303 255.459 276.56C254.316 276.679 253.201 276.675 252.054 276.56C249.896 276.347 247.31 276.1 245.156 275.403C242.914 274.678 240.708 273.77 238.598 272.726C234.817 270.852 231.384 268.207 228.211 265.462C226.342 263.85 224.622 262.121 223.081 260.187C222.532 259.497 221.988 258.803 221.449 258.107C221.048 259.686 220.66 261.268 220.246 262.841C219.32 266.355 218.028 269.556 216.604 272.917C215.297 276.003 213.412 278.456 211.283 281.073C210.584 281.93 209.831 282.69 208.96 283.374C207.456 284.551 205.495 286.368 203.542 287.197C201.525 288.053 199.404 289.249 197.181 289.641C194.919 290.037 192.377 290.562 190.006 290.474C187.913 290.394 185.759 290.046 183.722 289.733C183.048 289.626 182.362 289.525 181.708 289.321C179.867 288.753 178.203 287.968 176.398 287.193C175.825 286.944 175.239 286.696 174.714 286.351C173.21 285.367 171.658 284.159 170.347 283.059C169.909 282.69 169.464 282.318 169.091 281.877C167.936 280.529 166.817 279.132 165.803 277.676C165.485 277.215 165.165 276.755 164.917 276.255C163.798 274.026 162.67 271.672 162.089 269.227C161.536 266.915 161.254 264.522 161.006 262.164C160.964 261.759 160.946 261.355 160.922 260.951C160.504 261.564 160.097 262.184 159.673 262.793C154.071 270.857 147.906 278.509 141.858 286.241C138.625 290.37 135.342 294.473 131.905 298.437C130.014 299.216 128.537 300.845 127.973 302.824C125.486 305.504 122.905 308.097 120.193 310.564C117.591 312.937 114.875 315.182 112.245 317.527C109.855 319.664 107.488 321.829 105.013 323.866C102.069 326.291 99.1171 328.7 96.037 330.949C93.5831 332.742 91.1243 334.535 88.7021 336.376C87.4188 337.373 86.1394 338.377 84.8561 339.373C78.3024 343.255 71.6453 346.977 65.0641 350.794C64.9994 350.831 64.9316 350.871 64.8671 350.907C66.479 348.806 68.1074 346.717 69.7243 344.624C70.2336 343.963 70.7428 343.303 71.2563 342.642C73.703 339.441 75.9689 336.1 78.3909 332.882C80.6445 329.897 82.8149 326.859 84.9639 323.798C87.122 320.729 89.2998 317.691 91.5657 314.702C93.7004 311.885 95.9033 309.126 98.0901 306.353C93.5724 311.05 89.1604 315.78 84.8846 320.524L81.5119 324.277L81.1167 324.716C76.9811 329.313 72.7039 334.067 68.4019 338.732C63.7415 343.781 58.8226 349.037 54.4838 353.674L54.0679 354.119L51.6613 356.688C45.8163 362.934 39.961 369.326 35.2566 374.463L35.0091 374.732C30.1601 380.028 25.1804 385.751 18.8663 393.29C17.0252 395.49 15.1928 397.744 13.2634 400.181C11.9092 401.905 10.2962 403.51 8.87218 404.927L8.56407 405.235C6.73745 407.061 5.02385 409.081 3.32468 411.411C2.29083 412.824 1.61128 414.446 0.948876 416.123C0.4073 417.495 0.179876 418.864 0 420.282L0.730413 420.282ZM166.048 396.115C168.427 395.835 170.814 395.676 173.2 395.676C174.945 395.676 176.69 395.761 178.433 395.947C181.173 396.385 183.845 397.083 186.441 398.054C188.345 399.457 190.24 400.866 192.121 402.298C196.741 405.9 201.209 409.689 205.267 413.888C204.855 414.34 204.321 414.676 203.727 414.835C203.154 414.992 202.58 414.992 202.006 414.835C201.995 414.835 201.987 414.832 201.975 414.832C196.845 414.272 191.692 413.855 186.559 413.427C183.214 413.147 179.86 412.771 176.548 412.259C173.885 411.846 171.261 411.262 168.707 410.401C163.345 408.597 158.011 406.74 152.589 405.119C148.87 404.01 145.12 403.098 141.324 402.399C149.436 399.848 157.621 397.357 166.048 396.115Z" fill="#FFD4BA"/>
<path d="M434.479 244.19C433.786 243.462 433.237 242.637 432.843 241.745C431.407 240.837 429.923 240.025 428.532 239.284C425.64 237.743 422.692 236.271 419.761 234.907C415.726 233.017 411.439 231.109 406.65 229.071C404.111 228.047 401.424 227.334 398.825 226.642L397.454 226.274C391.839 224.761 387.191 223.384 382.831 221.952C380.545 221.2 377.95 220.348 375.455 219.311L374.561 218.943C373.711 218.593 372.853 218.231 371.998 217.857C371.468 220.625 370.926 223.399 370.318 226.159C370.938 229.551 371.523 232.949 372.089 236.35C372.748 237.18 373.408 238.01 374.057 238.842C378.048 244.029 382.006 249.359 385.498 254.062L386.277 255.114C388.186 259.195 390.179 263.562 391.743 268.196C393.256 272.648 394.3 277.154 395.107 281.276C395.878 282.119 396.709 282.997 397.571 283.866C399.171 283.4 400.718 282.708 402.194 282.024C403.618 281.363 405.209 279.883 406.244 279.086C406.818 278.642 407.348 278.157 407.857 277.641C410.031 275.42 411.883 272.76 413.332 270.01C414.868 267.096 416.059 263.987 416.732 260.766C417.029 259.353 417.236 257.927 417.399 256.497C419.882 257.024 422.366 256.958 424.849 256.292C430.065 254.861 434.257 250.708 435.744 245.527C435.758 245.477 435.776 245.429 435.79 245.379C435.799 245.347 435.803 245.315 435.811 245.283C435.335 244.966 434.88 244.613 434.479 244.19Z" fill="#E9B392"/>
<path d="M84.964 323.799C82.815 326.861 80.6446 329.898 78.391 332.884C75.969 336.101 73.7031 339.442 71.2564 342.644C70.7431 343.305 70.2336 343.964 69.7244 344.625C68.1075 346.718 66.4789 348.807 64.8672 350.908C64.9319 350.872 64.9997 350.833 65.0642 350.796C71.6454 346.978 78.3025 343.256 84.8562 339.375C86.1395 338.378 87.4189 337.374 88.7022 336.377C91.1242 334.536 93.5832 332.743 96.0371 330.95C99.1172 328.702 102.069 326.292 105.014 323.867C107.488 321.83 109.855 319.666 112.245 317.529C114.875 315.183 117.591 312.938 120.193 310.565C122.905 308.098 125.486 305.505 127.973 302.825C128.538 300.846 130.014 299.217 131.905 298.438C135.342 294.475 138.625 290.371 141.858 286.242C147.907 278.51 154.071 270.858 159.674 262.795C160.097 262.186 160.504 261.565 160.923 260.952C160.946 261.357 160.964 261.76 161.006 262.166C161.254 264.523 161.536 266.916 162.089 269.228C162.67 271.674 163.798 274.027 164.917 276.257C165.165 276.756 165.485 277.216 165.803 277.677C166.817 279.133 167.936 280.531 169.091 281.879C169.464 282.319 169.91 282.691 170.347 283.06C171.658 284.16 173.211 285.368 174.715 286.353C175.239 286.697 175.826 286.945 176.398 287.194C178.203 287.97 179.868 288.754 181.709 289.323C182.363 289.527 183.048 289.627 183.722 289.735C185.759 290.047 187.913 290.396 190.006 290.475C192.377 290.564 194.919 290.039 197.181 289.643C199.404 289.25 201.525 288.055 203.543 287.198C205.495 286.369 207.456 284.553 208.96 283.376C209.831 282.692 210.585 281.931 211.283 281.075C213.412 278.458 215.297 276.005 216.604 272.919C218.028 269.558 219.32 266.356 220.246 262.842C220.66 261.27 221.048 259.688 221.449 258.109C221.988 258.805 222.533 259.499 223.082 260.189C224.622 262.122 226.343 263.851 228.211 265.464C231.384 268.209 234.817 270.854 238.599 272.728C240.708 273.772 242.914 274.68 245.156 275.405C247.31 276.101 249.896 276.349 252.055 276.561C253.201 276.677 254.317 276.681 255.459 276.561C257.91 276.305 260.368 276.06 262.675 275.18C264.06 274.65 265.462 274.089 266.802 273.416C267.151 270.338 267.469 267.136 267.695 263.92C267.846 261.753 267.985 259.367 268.04 256.875C267.501 257.285 266.93 257.674 266.302 258.021C263.335 259.65 260.791 260.358 257.511 260.466C257.33 260.47 257.15 260.473 256.973 260.473C248.868 260.473 242.988 254.515 240.201 250.961L239.592 250.185C237.931 248.072 236.211 245.887 234.726 243.613C233.106 244.19 231.711 244.478 230.327 244.522C230.154 244.526 229.982 244.53 229.805 244.53C227.937 244.53 226.052 244.214 224.36 243.617L223.569 243.342C223.084 243.169 222.603 242.997 222.122 242.842L221.97 242.886L221.861 242.909C221.713 243.469 221.564 244.03 221.395 244.586C220.686 246.911 219.715 249.064 218.616 251.433C218.448 251.926 218.295 252.421 218.139 252.917L217.894 253.694C217.393 255.239 216.779 256.664 216.13 258.168L215.856 258.805C215.629 259.349 215.395 259.874 215.067 260.329L214.617 260.97C213.763 262.19 212.881 263.455 211.754 264.427C209.043 266.776 208.357 267.06 205.469 268.249L204.647 268.589C203.255 269.17 201.482 269.474 199.521 269.474C197.821 269.474 195.992 269.241 194.368 268.821C190.655 267.857 186.816 265.687 183.845 262.87C180.199 259.421 178.061 254.554 177.977 249.52C177.945 247.587 178.202 245.502 178.715 243.489C178.799 243.165 178.888 242.845 178.991 242.537C178.619 242.557 178.242 242.588 177.864 242.625C174.271 243.225 170.931 244.145 167.931 245.354C165.701 246.318 163.471 247.387 161.312 248.424C158.951 249.552 156.517 250.721 154.054 251.749L154.378 251.633C152.926 252.249 151.467 252.921 150.059 253.574C148.796 254.155 147.533 254.734 146.265 255.282C145.973 256.435 145.52 257.548 144.962 258.5C143.397 261.161 140.799 263.154 137.827 263.971C136.848 264.238 135.826 264.375 134.787 264.375C133.192 264.375 131.655 264.063 130.24 263.51C129.738 264.184 129.233 264.857 128.736 265.536C126.325 268.826 123.964 272.151 121.561 275.445C119.275 278.574 116.899 281.64 114.524 284.706C112.689 287.039 110.875 289.391 109.061 291.741C105.385 296.487 101.821 301.309 98.2599 306.139C98.2034 306.211 98.1469 306.282 98.0904 306.354C95.9036 309.126 93.7007 311.886 91.566 314.702C89.2999 317.692 87.1221 320.73 84.964 323.799Z" fill="#E9B392"/>
<path d="M399.825 152.74C399.695 152.999 399.55 153.253 399.374 153.502C399.551 153.253 399.695 152.998 399.825 152.74Z" fill="#2C2C2C"/>
<path d="M398.903 142.283C398.755 142.422 398.607 142.573 398.46 142.731C398.42 142.775 398.381 142.814 398.341 142.858C398.527 142.649 398.714 142.461 398.903 142.283Z" fill="#2C2C2C"/>
<path d="M398.398 118.444C398.456 118.514 398.516 118.582 398.576 118.651C398.846 118.961 399.128 119.263 399.433 119.549C399.437 119.552 399.439 119.556 399.442 119.558C399.542 119.652 399.65 119.73 399.756 119.812C399.815 119.938 399.893 120.056 399.993 120.169C400.594 120.87 401.152 121.602 401.745 122.302C402.055 122.665 402.381 123.014 402.71 123.354C402.772 123.561 402.848 123.763 402.892 123.978C402.9 124.15 402.9 124.318 402.892 124.493C402.856 124.654 402.807 124.81 402.756 124.965C402.563 125.342 402.351 125.702 402.114 126.046C401.433 126.819 400.654 127.491 399.853 128.135C399.509 128.396 399.165 128.658 398.821 128.92C397.595 129.859 396.383 130.821 395.284 131.897C395.287 131.897 395.29 131.899 395.294 131.899C395.295 131.899 395.297 131.9 395.299 131.9C395.748 131.952 396.188 132.031 396.625 132.139C397.598 132.376 398.472 132.708 399.243 133.134C399.306 133.169 399.357 133.213 399.418 133.249C399.418 133.249 399.417 133.248 399.417 133.248C399.427 133.254 399.437 133.262 399.448 133.268C399.753 133.448 400.053 133.632 400.324 133.842C400.657 134.101 400.964 134.382 401.244 134.687C401.273 134.719 401.298 134.749 401.327 134.78C401.789 135.29 402.18 135.765 402.491 136.267C402.508 136.294 402.526 136.32 402.542 136.347C402.552 136.364 402.559 136.381 402.569 136.398C402.665 136.562 402.757 136.729 402.837 136.903C402.954 137.152 403.043 137.393 403.125 137.635C403.149 137.706 403.176 137.78 403.197 137.851C403.276 138.113 403.34 138.376 403.382 138.648C403.532 138.949 403.614 139.271 403.635 139.595C403.667 140.082 403.56 140.574 403.334 141.008C403.109 141.443 402.764 141.821 402.319 142.079C402.211 142.143 402.097 142.176 401.985 142.223C401.676 142.354 401.357 142.443 401.026 142.443C400.666 142.443 400.305 142.359 399.962 142.21C399.937 142.2 399.913 142.192 399.889 142.181C399.891 142.182 399.893 142.184 399.895 142.185C399.837 142.52 399.785 142.854 399.736 143.182C399.602 144.482 399.533 145.739 399.528 146.972C399.427 146.877 399.319 146.813 399.214 146.736C399.344 146.831 399.475 146.918 399.599 147.041C399.937 147.38 400.27 147.884 400.467 148.426C400.476 148.453 400.489 148.479 400.498 148.507C400.611 148.847 400.668 149.201 400.634 149.537C400.513 150.687 400.33 151.638 399.932 152.516C399.961 152.451 399.998 152.388 400.025 152.323C400.398 154.014 400.917 155.685 401.592 157.39L402.017 158.33C402.547 159.491 403.096 160.687 403.481 161.92C403.513 162.019 403.543 162.134 403.575 162.237C403.455 162.635 403.327 163.031 403.182 163.422C402.265 165.42 401.161 167.362 399.876 169.142C399.753 169.289 399.616 169.42 399.49 169.563C398.67 170.496 397.794 171.368 396.831 172.162C395.198 173.357 393.475 174.414 391.666 175.323C389.591 176.36 387.444 177.272 385.305 178.179C385.458 178.115 385.609 178.051 385.762 177.988C385.583 178.063 385.405 178.137 385.227 178.212C385.117 178.258 385.01 178.304 384.901 178.35C383.497 178.939 382.094 179.53 380.696 180.141C379.966 180.462 379.232 180.769 378.531 181.158C377.696 181.618 376.93 182.27 376.245 182.931C374.889 184.231 374.115 186.036 373.474 187.761C372.908 189.29 372.716 190.986 372.596 192.603C372.478 194.164 372.554 195.748 372.603 197.314C372.655 198.987 372.695 200.658 372.771 202.336C372.915 205.626 373.085 208.957 372.714 212.239C372.596 213.028 372.435 213.804 372.218 214.577C372.093 215.029 372.153 215.492 372.337 215.897C372.241 216.447 372.163 217.001 372.058 217.55C372.038 217.653 372.018 217.755 371.998 217.857C372.853 218.231 373.711 218.593 374.562 218.943L375.456 219.311C377.951 220.348 380.545 221.2 382.832 221.952C387.191 223.384 391.839 224.761 397.454 226.274L398.826 226.642C401.424 227.335 404.111 228.047 406.65 229.071C411.439 231.109 415.727 233.017 419.761 234.907C422.693 236.271 425.64 237.743 428.533 239.284C429.924 240.025 431.407 240.837 432.844 241.745C433.237 242.637 433.786 243.462 434.479 244.19C434.88 244.613 435.335 244.966 435.812 245.283C436.008 245.414 436.197 245.555 436.404 245.667C437.681 246.351 439.1 246.716 440.508 246.716C442.629 246.716 444.615 245.899 446.099 244.419C447.081 243.435 447.771 242.25 448.156 240.901L448.212 240.473L448.268 240.049C448.425 239.396 448.512 238.745 448.521 238.115C448.537 237.055 448.413 236.227 448.14 235.579L448.007 235.25C447.27 233.477 447.27 233.477 446.122 232.021L445.44 230.549C445.059 229.732 444.683 228.915 444.31 228.095C444.057 227.414 443.848 226.782 443.684 226.162L444.065 225.714C444.426 225.281 444.791 224.849 445.148 224.413L445.533 223.941C446.632 222.592 447.767 221.2 448.461 219.623C449.696 216.821 450.426 214.537 450.258 211.812C450.097 209.274 449.596 207.557 448.525 205.888C447.607 204.452 446.508 203.079 445.449 201.746C445.089 201.298 444.731 200.85 444.382 200.402C443.107 198.761 441.803 197.144 440.5 195.531L440.127 195.071C438.282 192.789 436.372 190.428 434.353 188.235C433.237 189.786 431.997 191.262 430.574 192.527C428.769 194.127 426.8 195.496 424.586 196.457C422.228 197.481 419.802 198.181 417.29 198.594C414.262 198.498 411.239 198.433 408.227 198.114C406.495 197.837 404.802 197.453 403.145 196.885C402.231 196.409 401.376 195.832 400.631 195.096C400.358 194.832 400.093 194.555 399.84 194.263C399.271 193.379 398.774 192.462 398.325 191.502C398.128 190.994 397.947 190.482 397.779 189.966C397.903 189.689 398.104 189.449 398.349 189.305C399.043 188.901 399.773 189.197 400.213 189.794C400.23 189.813 400.246 189.837 400.261 189.857L400.366 189.962C401.04 190.365 401.73 190.734 402.443 191.054C403.847 191.59 405.315 191.958 406.796 192.202C408.656 192.407 410.524 192.363 412.382 192.158C414.323 191.858 416.224 191.379 418.056 190.666C419.336 190.073 420.543 189.353 421.69 188.524C423.327 187.204 424.803 185.715 426.13 184.083C427.73 181.906 429.03 179.545 430.116 177.08C431.528 173.597 432.511 169.96 433.068 166.246C433.085 166.105 433.09 165.963 433.106 165.823C432.098 164.973 430.635 163.959 430.558 163.908C429.8 163.392 428.946 162.932 427.787 162.427C426.226 161.743 424.618 161.123 423.062 160.523C422.321 160.235 421.578 159.95 420.84 159.658C419.108 158.914 417.082 158.085 414.925 157.653C414.244 157.517 413.537 157.401 412.767 157.297C413.104 155.904 413.55 154.535 413.979 153.211C414.4 151.911 414.833 150.561 415.161 149.205C415.791 146.6 416.06 144.135 415.959 141.886C415.847 139.256 415.31 136.456 414.408 133.782C412.811 129.1 410.55 125.531 407.489 122.877C405.873 121.477 404.061 120.276 402.304 119.115C402.245 119.076 402.185 119.035 402.126 118.996C401.969 118.835 401.803 118.683 401.654 118.512C401.459 118.292 401.183 118.192 400.9 118.181C400.359 117.816 399.82 117.445 399.296 117.066C398.191 116.169 397.137 115.219 396.089 114.221C396.17 114.478 396.249 114.735 396.35 114.988C396.857 116.26 397.537 117.411 398.398 118.444Z" fill="#2C2C2C"/>
<path d="M398.288 142.914C398.269 142.942 398.253 142.971 398.235 142.999C398.254 142.971 398.269 142.942 398.288 142.914C398.288 142.914 398.288 142.914 398.288 142.914Z" fill="#2C2C2C"/>
<path d="M397.948 146.152C398.084 146.185 398.22 146.215 398.355 146.263C398.22 146.215 398.084 146.185 397.948 146.152Z" fill="#2C2C2C"/>
<path d="M393.282 157.783C393.783 157.62 394.267 157.404 394.716 157.201C394.715 157.202 394.713 157.202 394.712 157.203C394.265 157.405 393.781 157.62 393.282 157.783Z" fill="#2C2C2C"/>
<path d="M388.48 158.501C388.502 158.501 388.525 158.503 388.547 158.503C388.952 158.503 389.338 158.463 389.69 158.424C389.338 158.463 388.952 158.502 388.546 158.502C388.525 158.502 388.502 158.502 388.48 158.501Z" fill="#2C2C2C"/>
<path d="M396.756 156.092C396.531 156.257 396.258 156.437 395.969 156.603C395.963 156.606 395.957 156.609 395.951 156.613C396.247 156.445 396.526 156.26 396.756 156.092C397.559 155.507 398.172 154.992 398.794 154.254C398.682 154.386 398.568 154.503 398.456 154.623C397.943 155.169 397.415 155.612 396.756 156.092Z" fill="#2C2C2C"/>
<path d="M397.724 146.094C397.514 146.054 397.304 146.026 397.097 146.004L396.917 145.98L397.096 146.004C397.304 146.026 397.514 146.054 397.724 146.094Z" fill="#2C2C2C"/>
<path d="M391.542 145.316C391.568 145.323 391.594 145.329 391.62 145.336C391.594 145.329 391.568 145.323 391.542 145.316Z" fill="#2C2C2C"/>
<path d="M393.732 141.16C393.604 141.169 393.474 141.178 393.343 141.188C393.295 141.191 393.246 141.195 393.197 141.199C393.197 141.199 393.196 141.2 393.196 141.2C393.375 141.187 393.558 141.172 393.732 141.16Z" fill="#2C2C2C"/>
<path d="M319.664 229.766C323.185 230.702 326.674 231.684 330.272 232.255C334.659 232.78 339.087 233.027 343.478 232.555C346.041 232.163 348.551 231.563 351.063 230.907C353.393 230.294 355.735 229.654 357.969 228.75C358.911 228.327 359.808 227.843 360.68 227.314C360.978 225.193 361.32 223.074 361.662 220.959C362.369 216.609 363.011 212.23 364.049 207.941C364.566 205.812 365.068 203.658 365.754 201.574C366.051 200.676 366.363 199.778 366.678 198.885C363.609 201.969 360.393 204.878 356.964 207.574C349.813 212.992 342.025 217.455 333.783 221.012C329.901 222.609 325.95 223.974 321.944 225.235C318.873 226.205 315.786 227.123 312.692 228.017C313.232 228.134 313.771 228.256 314.31 228.394C316.094 228.85 317.883 229.29 319.664 229.766Z" fill="#AE4823"/>
<path d="M394.275 96.2573C393.925 96.8729 393.606 97.5101 393.18 98.0716C392.542 98.9166 391.915 99.7247 391.205 100.481C391.326 100.989 391.452 101.496 391.56 102.006C391.885 103.494 392.306 104.951 392.843 106.368C392.955 106.604 393.084 106.827 393.202 107.058C393.455 106.901 393.712 106.75 393.96 106.586C394.642 106.134 395.303 105.643 395.949 105.131C395.966 104.891 395.988 104.653 396.002 104.412C396.146 102.028 396.178 99.5985 396.098 97.1889C396.08 96.6272 396.049 96.0654 396.025 95.5039C395.614 95.7654 395.176 95.9915 394.688 96.1312C394.55 96.1722 394.412 96.213 394.275 96.2573Z" fill="#AE4823"/>
<path d="M341.321 90.0464C341.686 89.7919 342.048 89.5331 342.415 89.2815C343.955 88.2256 345.499 87.1805 347.058 86.1601C348.807 85.0159 350.5 83.9473 352.481 83.2312C354.345 82.5606 356.338 82.2053 358.317 82.0692C357.918 81.9782 357.525 81.8723 357.147 81.733C353.771 80.5017 350.021 79.0343 347.307 76.5137C345.933 80.6394 344.505 84.1151 342.943 87.1381C342.453 88.0895 341.907 89.0593 341.321 90.0464Z" fill="#AE4823"/>
<path d="M388.915 79.1538C386.954 78.4571 384.945 77.7288 383.216 76.5486C381.954 75.6899 380.846 74.6954 379.881 73.5508C379.259 74.1086 378.595 74.6239 377.854 75.0613C376.795 75.759 375.731 76.4504 374.691 77.1758C373.27 78.4134 371.865 79.7544 370.202 80.5597C369.412 80.9449 367.826 81.7184 366.596 82.031C366.582 82.0351 366.549 82.0432 366.488 82.0565C366.549 82.0432 366.582 82.0349 366.596 82.031C366.681 82.0034 365.896 82.1529 364.956 82.3046C364.674 82.3497 364.379 82.3942 364.089 82.4342C364.513 82.519 364.929 82.6184 365.315 82.7627C366.17 83.0823 367.051 83.3866 367.853 83.8229C368.659 84.2635 369.341 84.7869 370.056 85.3873C370.778 85.9875 371.162 86.5438 371.776 87.3441C371.96 87.5766 372.137 87.8164 372.305 88.0654C372.947 89.0858 373.589 90.2341 373.797 91.4307C373.917 92.1069 374.042 92.7789 374.038 93.4633C373.998 93.9274 373.929 94.3843 373.837 94.8401C373.613 95.9886 372.421 97.2017 371.259 97.4138C370.372 97.5736 369.57 97.6617 368.684 97.5571C367.737 97.4455 366.807 97.2929 365.869 97.129C365.074 96.9855 364.26 96.8933 363.486 96.6526C362.865 96.4568 362.263 96.2326 361.657 95.997C360.317 95.4724 358.966 94.9202 357.571 94.5525C356.27 94.2113 354.956 93.9778 353.623 93.7933C353.744 93.8098 353.867 93.8252 353.989 93.8395C353.067 93.7196 352.148 93.5957 351.226 93.4676C349.629 93.2871 348.077 93.3078 346.486 93.4717C344.38 93.8158 342.354 94.452 340.381 95.2564C339.97 95.4368 339.566 95.6264 339.169 95.8261C338.501 95.9558 337.84 96.1243 337.178 96.2871C335.209 98.9893 333.041 101.658 330.703 104.273C331.15 106.333 331.428 108.44 331.603 110.534C331.756 112.39 331.832 114.283 331.599 116.135C331.358 118.077 331.278 120.29 330.584 122.187C330.111 123.483 329.65 124.836 328.956 126.04C328.35 127.089 327.521 128.026 326.77 128.954C325.331 130.743 322.88 132.04 320.71 132.688C315.152 134.353 308.947 131.727 306.063 126.773C305.843 126.394 305.65 126.011 305.474 125.624C304.15 126.444 302.798 127.302 301.502 128.229L301.201 128.477C300.158 129.35 299.26 129.718 298.193 129.718C298.044 129.718 297.896 129.71 297.755 129.694C297.219 130.074 296.752 130.299 296.152 130.467C295.686 130.595 295.105 130.755 294.559 130.755C294.463 130.755 294.366 130.751 294.271 130.738L294.002 130.711C293.436 130.65 292.855 130.591 292.294 130.434C291.888 130.322 290.83 129.898 290.38 129.574C289.394 128.874 288.364 128.093 287.521 127.144C286.45 125.936 285.483 124.631 284.762 123.631C284.188 122.838 283.638 122.055 283.193 121.202C282.86 120.566 282.551 119.917 282.275 119.261C281.36 121.778 280.678 124.551 280.194 127.741C280.021 129.249 279.9 130.822 279.837 132.419C279.82 132.816 279.812 133.215 279.809 133.62C279.588 134.481 279.624 135.321 279.864 136.089C279.925 137.197 280.021 138.362 280.165 139.618C280.234 140.038 280.306 140.455 280.373 140.867L280.703 141.023C281.748 141.408 282.798 141.692 283.867 141.929C285.821 141.348 287.809 140.85 289.82 140.572C291.018 140.407 292.2 140.196 293.401 140.196C293.604 140.196 293.808 140.202 294.011 140.216C294.931 140.278 295.844 140.379 296.753 140.499C296.981 140.443 297.216 140.403 297.454 140.372C297.388 140.204 297.332 140.034 297.263 139.867C297.26 139.858 297.255 139.849 297.252 139.84C297.206 139.807 297.161 139.772 297.116 139.739C294.984 138.189 292.56 137 290.076 136.045C298.14 136.392 306.438 137.567 312.778 142.889C316.796 146.267 319.527 150.941 321.136 155.892C322.656 160.582 323.197 165.628 322.704 170.534C322.645 171.126 322.567 171.715 322.49 172.304C323.124 172.473 323.764 172.624 324.415 172.732C328.935 173.485 333.62 173.181 338.147 172.664C340.106 172.442 342.054 172.156 343.993 171.822C348.534 171.39 353.057 170.776 357.567 170.123C361.577 169.543 365.576 168.846 369.594 168.298C369.185 168.354 368.776 168.411 368.363 168.462C373.937 167.722 379.508 166.942 385.083 166.19C386.058 166.062 387.032 165.939 388.007 165.819C388.241 165.859 388.473 165.899 388.705 165.941C390.353 166.106 392.018 166.234 393.634 166.553C394.709 166.765 395.759 167.066 396.826 167.29C396.998 167.29 397.175 167.29 397.347 167.294C398.302 167.298 399.165 167.942 399.417 168.866C399.484 169.108 399.505 169.34 399.49 169.562C399.616 169.419 399.754 169.288 399.876 169.142C401.162 167.361 402.266 165.42 403.182 163.421C403.328 163.03 403.456 162.635 403.575 162.237C403.544 162.133 403.513 162.018 403.482 161.919C403.097 160.686 402.548 159.49 402.018 158.33L401.593 157.389C400.917 155.684 400.399 154.013 400.025 152.322C399.998 152.388 399.962 152.451 399.933 152.516C399.933 152.516 399.932 152.516 399.932 152.517C399.898 152.591 399.862 152.667 399.825 152.741C399.695 152.999 399.551 153.254 399.374 153.503C399.367 153.511 399.364 153.521 399.358 153.529C399.165 153.798 398.979 154.033 398.793 154.254C398.172 154.992 397.559 155.507 396.756 156.092C396.526 156.26 396.247 156.445 395.951 156.613C395.823 156.685 395.701 156.764 395.565 156.822L395.132 157.018L394.827 157.154C394.792 157.17 394.751 157.186 394.716 157.202C394.267 157.405 393.782 157.621 393.282 157.784C393.112 157.84 392.94 157.888 392.767 157.929C392.757 157.931 392.746 157.936 392.735 157.939C392.41 158.02 392.09 158.075 391.768 158.13C391.751 158.133 391.734 158.137 391.716 158.14C391.576 158.164 391.433 158.191 391.292 158.211C390.95 158.262 390.608 158.308 390.255 158.353L390.002 158.389C389.908 158.4 389.793 158.411 389.689 158.423C389.338 158.462 388.952 158.502 388.546 158.502C388.525 158.502 388.502 158.5 388.48 158.5C388.284 158.498 388.081 158.49 387.832 158.457C387.648 158.433 387.467 158.413 387.282 158.397L387.082 158.373C386.786 158.346 386.486 158.301 386.188 158.258C386.05 158.239 385.912 158.231 385.775 158.206C385.586 158.139 385.398 158.066 385.213 157.99C383.81 157.368 382.431 156.655 381.058 155.84C379.684 155.026 378.315 154.109 376.931 153.079C376.533 152.758 376.141 152.432 375.754 152.106C375.188 151.63 374.648 151.165 374.158 150.737C373.95 150.556 373.745 150.377 373.558 150.214C372.702 149.451 371.719 148.692 370.634 147.948C370.305 147.723 369.969 147.498 369.622 147.276L369.446 147.164L369.27 147.052L369.118 146.956L368.809 146.768C368.603 146.645 368.391 146.522 368.172 146.397C367.852 146.214 367.509 146.026 367.15 145.833C366.738 145.611 366.305 145.382 365.824 145.135C366.104 144.399 366.597 143.799 367.2 143.393C367.726 143.038 368.334 142.83 368.966 142.83C369.014 142.83 369.063 142.83 369.111 142.834C369.425 142.851 369.772 142.882 370.128 142.917C370.619 142.965 371.136 143.026 371.697 143.109C373.397 142.203 375.031 141.093 376.621 140.011L376.781 139.904L377.78 139.22L378.029 139.048C380.57 137.334 383.198 135.561 385.959 134.073C386.71 133.661 387.546 133.271 388.675 132.808C389.116 132.622 389.517 132.48 389.896 132.366C390.201 132.273 390.495 132.195 390.769 132.145C392.012 131.925 393.026 131.821 393.952 131.821C394.412 131.821 394.857 131.847 395.294 131.899C395.291 131.899 395.287 131.897 395.284 131.897C396.383 130.821 397.595 129.859 398.822 128.92C398.238 128.864 397.661 128.773 397.096 128.631C396.486 128.391 395.881 128.13 395.287 127.851C395.081 127.735 394.88 127.613 394.677 127.493C394.209 127.578 393.728 127.622 393.293 127.641C392.901 127.662 392.507 127.698 392.11 127.685C391.123 127.662 390.132 127.609 389.146 127.553C387.153 127.429 385.14 127.238 383.143 127.397C382.601 127.273 382.056 127.154 381.506 127.049C379.75 126.709 377.957 126.481 376.16 126.481H376.116C376.2 126.201 376.352 125.945 376.569 125.741C377.752 124.62 379.007 123.564 380.511 122.896C381.638 122.399 382.789 121.991 383.957 121.599C385.388 121.118 386.852 120.726 388.287 120.25C386.587 118.257 384.834 116.312 383.414 114.1C382.392 112.506 381.602 110.842 380.884 109.093C380.158 107.316 379.789 105.531 379.581 103.626C379.452 102.478 379.604 101.477 379.761 100.32C379.905 99.2598 380.258 98.3922 380.708 97.3994C381.094 96.5402 381.593 95.7479 382.139 94.9857C382.27 93.8835 382.565 92.7972 383.127 91.8291C383.904 90.4963 384.983 89.3713 386.294 88.5548C386.958 88.1411 387.693 87.8601 388.422 87.5724C389.579 87.0684 390.737 86.5776 391.961 86.2621C392.399 86.1493 392.838 86.095 393.274 86.095C393.983 86.095 394.67 86.2539 395.309 86.5224C395.196 85.4025 395.027 84.3679 394.787 83.3666C394.675 82.974 394.518 82.5418 394.326 82.0738C394.005 81.2612 393.648 80.4335 393.255 79.6169C393.178 79.454 393.081 79.3013 392.991 79.1444C391.65 79.5271 390.173 79.5969 388.915 79.1538ZM372.949 104.796C372.408 106.2 371.634 107.617 370.531 108.665C369.905 109.262 369.219 109.858 368.485 110.311C367.82 110.714 367.146 111.015 366.427 111.315C365.116 111.863 363.736 112.232 362.329 112.444C360.744 112.684 359.149 112.88 357.548 112.929C354.536 113.013 351.588 112.696 348.601 112.396C345.821 112.116 343.05 111.911 340.254 111.9C339.192 111.896 338.306 111.019 338.306 109.955C338.306 108.89 339.192 108.006 340.254 108.006C340.664 108.006 341.081 108.006 341.494 108.01C343.05 108.01 344.61 108.014 346.17 107.93C347.989 107.834 349.795 107.667 351.6 107.438C355.06 106.937 358.521 106.428 361.872 105.392C363.492 104.892 365.085 104.307 366.717 103.836C368.08 103.444 369.452 103.071 370.812 102.663C370.951 102.621 371.093 102.602 371.236 102.602C372.305 102.602 373.373 103.695 372.949 104.796Z" fill="#AE4823"/>
<path d="M277.839 242.396C283.128 243.893 288.29 245.844 293.189 248.316C295.029 249.24 296.87 250.201 298.579 251.349C299.313 251.841 300.039 252.353 300.789 252.819C301.535 253.279 302.329 253.694 303.043 254.198C304.823 255.447 306.46 256.843 308.128 258.229C309.376 259.265 310.527 260.366 311.598 261.582C313.113 263.303 312.079 265.843 309.776 265.976C307.587 266.099 305.401 266.02 303.207 266.08C302.084 266.112 300.937 266.181 299.814 266.1C298.956 266.04 298.09 265.952 297.228 265.936C296.189 265.92 295.146 265.928 294.108 265.936C292.808 265.944 291.509 265.952 290.205 265.912C288.649 265.864 287.088 265.817 285.53 265.74C286.129 268.096 286.722 270.572 287.319 273.207C288.413 278.025 289.476 283.136 290.471 288.394C291.477 293.756 292.432 299 293.033 304.194L293.054 304.481C298.295 308.439 303.919 312.241 308.964 315.654L309.24 315.843C309.974 316.339 310.712 316.832 311.462 317.327L311.619 317.436C313.709 318.832 315.87 320.277 317.94 321.822C321.3 324.339 324.043 326.448 326.57 328.457C331.291 332.227 336.778 336.801 341.655 342.171C343.138 343.812 344.698 345.577 346.034 347.482C346.82 348.599 347.642 349.876 348.552 351.379C349.09 352.26 349.547 353.149 349.932 354.093C353.927 352.905 358.118 352.121 362.124 351.777C362.182 351.72 362.236 351.657 362.294 351.602C363.169 350.762 364.099 349.993 365.022 349.205C367.095 347.439 369.249 345.791 371.194 343.882C373.24 341.865 375.024 339.66 376.837 337.44C378.237 335.725 379.641 334.017 381.015 332.283C382.245 330.622 383.377 328.909 384.493 327.166C385.398 325.754 386.22 324.323 386.915 322.807C387.523 321.282 388.075 319.736 388.532 318.162C389.014 316.511 389.351 314.846 389.606 313.149C389.862 310.911 389.991 308.652 390.02 306.402C389.981 306.164 389.941 305.925 389.904 305.689C389.218 301.343 388.455 297.589 387.569 294.216C386.547 290.35 385.315 286.387 384.297 283.11L384.236 282.934C383.061 279.141 381.842 275.215 380.824 271.209C380.197 268.768 379.604 266.282 379.027 263.857L378.838 263.061L378.718 262.557L378.195 260.342C377.426 260.655 376.652 260.952 375.871 261.214C374.84 261.563 373.801 261.899 372.738 262.155C371.27 262.511 369.858 262.747 368.35 262.944C367.36 263.076 366.365 263.064 365.371 263.175C364.428 263.284 363.49 263.448 362.535 263.452C361.592 263.452 360.646 263.496 359.707 263.368C358.934 263.263 358.16 263.16 357.39 263.047C355.684 262.911 354.042 263.132 352.348 263.319C351.941 263.367 351.535 263.444 351.142 263.564C350.339 263.764 349.525 262.864 350.023 262.111C350.58 261.259 351.138 260.315 351.9 259.622C352.581 259.006 353.307 258.462 354.017 257.878C354.875 257.165 355.649 256.364 356.503 255.644C357.076 255.158 357.67 254.699 358.269 254.244C358.283 252.981 358.363 251.721 358.383 250.457C358.398 249.189 358.45 247.912 358.555 246.647C358.671 245.198 358.72 243.746 358.856 242.297C358.989 240.873 359.144 239.464 359.338 238.043C359.293 238.375 359.245 238.707 359.201 239.039C359.441 237.231 359.614 235.41 359.858 233.601C359.81 233.965 359.759 234.334 359.71 234.697C359.829 233.807 359.924 232.909 360.032 232.014C358.65 233.359 357.17 234.608 355.652 235.805C353.87 237.21 352.118 238.65 350.201 239.871C348.589 240.896 346.98 241.936 345.272 242.804C343.239 243.841 341.161 244.809 339.027 245.626C337.475 246.218 335.888 246.747 334.247 247.038C330.773 247.65 327.248 247.977 323.722 247.783C320.739 247.256 317.84 246.402 315.024 245.298C310.004 243.048 305.423 240.05 301.043 236.741C298.051 234.399 295.125 231.947 292.182 229.514C292.019 229.487 291.85 229.464 291.689 229.436C290.938 229.728 290.241 229.968 289.566 230.168C287.462 230.788 285.259 231.052 283.134 231.3L282.629 231.361L282.011 231.436C280.752 231.593 279.448 231.753 278.169 231.753L278.049 231.749C277.678 231.747 277.314 231.736 276.952 231.716C276.993 232.15 277.035 232.578 277.068 233.043C277.192 234.816 277.148 236.505 276.94 238.205C276.891 238.593 276.843 238.994 276.799 239.398C276.784 239.527 276.767 239.659 276.751 239.789L276.787 239.875C277.141 240.713 277.487 241.556 277.839 242.396Z" fill="#AE4823"/>
<path d="M373.104 242.469C373.179 242.708 373.264 242.944 373.334 243.185C373.416 243.466 373.494 243.748 373.573 244.029C373.6 244.018 373.626 244.006 373.652 243.995C373.475 243.492 373.296 242.987 373.104 242.469Z" fill="#AE4823"/>
<path d="M250.645 340.209C252.794 337.328 254.912 334.423 257.134 331.593C261.232 326.383 265.884 321.797 270.866 317.431C274.442 314.296 278.145 311.315 281.796 308.272C282.025 307.879 282.266 307.497 282.479 307.087C282.752 306.566 283.317 306.291 283.887 306.291C283.916 306.291 283.944 306.3 283.972 306.302C283.86 305.719 283.747 305.143 283.628 304.586C283.043 301.82 282.349 299.259 281.51 296.75C281.487 296.662 281.462 296.57 281.451 296.482L280.942 294.293L280.841 293.869L280.745 293.449L280.669 293.12C280.344 291.732 280.019 290.339 279.718 288.947C279.052 285.813 278.419 282.623 277.805 279.526L277.693 278.966L277.485 277.921C277.208 276.521 276.927 275.132 276.642 273.735L276.425 272.651C275.926 270.166 275.384 267.487 274.798 264.755C272.642 264.494 270.489 264.208 268.342 263.881C268.571 261.35 268.722 258.812 268.789 256.266C268.548 256.474 268.299 256.677 268.04 256.874C267.985 259.366 267.846 261.752 267.696 263.919C267.469 267.135 267.151 270.337 266.803 273.415C266.478 276.279 266.127 279.036 265.794 281.587C264.796 288.622 263.557 294.802 262.005 300.48C260.721 305.154 258.925 309.68 257.187 314.058L257.124 314.219C256.225 316.488 255.299 318.833 254.456 321.162C253.25 324.495 252.176 327.708 251.18 330.864C249.841 335.108 248.661 339.236 247.658 343.297C246.968 346.092 246.346 348.982 245.782 352.026C245.744 352.416 245.708 352.806 245.67 353.196C246.454 350.08 247.267 346.969 248.086 343.86C248.904 342.62 249.756 341.401 250.645 340.209Z" fill="#AE4823"/>
<path d="M399.419 133.249C399.357 133.214 399.306 133.169 399.244 133.135C399.306 133.169 399.356 133.213 399.417 133.249C399.417 133.249 399.418 133.249 399.419 133.249Z" fill="#AE4823"/>
<path d="M399.354 141.891L399.259 141.962C399.138 142.062 399.02 142.173 398.903 142.284C398.714 142.461 398.527 142.65 398.341 142.859C398.323 142.879 398.305 142.895 398.288 142.915C398.269 142.943 398.253 142.972 398.235 142.999C397.934 143.447 397.668 143.907 397.431 144.403C397.259 144.874 397.095 145.398 396.917 145.98L397.097 146.003C397.304 146.025 397.514 146.053 397.724 146.094C397.728 146.094 397.732 146.096 397.736 146.097C397.742 146.098 397.747 146.1 397.753 146.101C397.818 146.114 397.883 146.137 397.948 146.153C398.084 146.185 398.22 146.216 398.355 146.263C398.357 146.264 398.359 146.265 398.361 146.266C398.42 146.287 398.478 146.322 398.536 146.346C398.558 146.355 398.579 146.366 398.6 146.376C398.725 146.431 398.851 146.481 398.973 146.555C398.974 146.555 398.976 146.557 398.977 146.558C399.046 146.599 399.111 146.661 399.179 146.709C399.191 146.717 399.202 146.727 399.214 146.736C399.319 146.812 399.427 146.876 399.528 146.971C399.534 145.738 399.602 144.481 399.736 143.181C399.785 142.853 399.837 142.519 399.895 142.184C399.893 142.183 399.891 142.181 399.889 142.18C399.754 142.118 399.622 142.046 399.495 141.962L399.354 141.891Z" fill="#AE4823"/>
<path d="M394 111.225C392.163 110.9 390.398 110.396 388.665 109.72C388.502 109.645 388.338 109.567 388.176 109.49C389.937 108.875 391.621 108.037 393.202 107.058C393.084 106.827 392.955 106.604 392.843 106.368C392.305 104.951 391.885 103.495 391.56 102.006C391.452 101.496 391.326 100.989 391.205 100.481C391.014 100.685 390.82 100.886 390.614 101.082C389.382 102.25 387.669 102.755 386.005 102.298C384.871 101.987 383.731 101.185 383.178 100.125C382.516 98.8649 382.007 97.4799 382.059 96.0269C382.07 95.6805 382.097 95.3328 382.138 94.9863C381.593 95.7485 381.094 96.5408 380.708 97.4C380.258 98.3928 379.905 99.2604 379.761 100.321C379.604 101.477 379.452 102.478 379.581 103.627C379.789 105.531 380.158 107.317 380.884 109.093C381.602 110.842 382.392 112.507 383.414 114.1C384.834 116.313 386.587 118.257 388.287 120.251C386.852 120.726 385.388 121.119 383.956 121.599C382.789 121.992 381.638 122.4 380.511 122.896C379.007 123.564 377.752 124.621 376.568 125.741C376.352 125.945 376.2 126.201 376.116 126.482H376.16C377.957 126.482 379.749 126.71 381.506 127.05C382.055 127.154 382.6 127.274 383.143 127.398C385.139 127.238 387.153 127.43 389.146 127.554C390.132 127.61 391.123 127.662 392.11 127.686C392.507 127.698 392.9 127.662 393.292 127.642C393.728 127.622 394.209 127.579 394.677 127.494C394.88 127.614 395.081 127.736 395.287 127.851C395.88 128.131 396.486 128.391 397.096 128.632C397.661 128.774 398.238 128.865 398.821 128.921C399.165 128.658 399.509 128.397 399.853 128.136C400.654 127.491 401.433 126.819 402.114 126.047C402.351 125.703 402.563 125.343 402.756 124.966C402.807 124.81 402.856 124.655 402.892 124.494C402.9 124.319 402.9 124.151 402.892 123.979C402.847 123.763 402.772 123.561 402.71 123.355C402.381 123.014 402.055 122.666 401.745 122.302C401.152 121.603 400.594 120.87 399.993 120.169C399.893 120.057 399.816 119.939 399.756 119.813C399.65 119.731 399.542 119.652 399.442 119.559C399.439 119.556 399.436 119.553 399.433 119.55C399.128 119.263 398.846 118.961 398.576 118.651C398.516 118.583 398.456 118.515 398.398 118.445C397.537 117.412 396.857 116.26 396.349 114.988C396.248 114.735 396.169 114.478 396.088 114.221C395.791 113.281 395.62 112.316 395.55 111.331C395.034 111.308 394.517 111.277 394 111.225Z" fill="#793219"/>
<path d="M299.757 197.307C299.643 197.129 299.545 196.941 299.426 196.766C298.766 195.999 298.073 195.262 297.366 194.537C296.992 196.465 296.563 198.296 296.069 200.034C296.938 199.467 297.794 198.879 298.628 198.255C299.014 197.95 299.381 197.623 299.757 197.307Z" fill="#793219"/>
<path d="M280.373 140.866C280.305 140.454 280.234 140.037 280.165 139.617C280.021 138.361 279.925 137.197 279.864 136.088C279.624 135.32 279.588 134.48 279.809 133.619C279.812 133.214 279.82 132.815 279.837 132.418C279.9 130.821 280.021 129.249 280.194 127.741C280.678 124.55 281.36 121.777 282.275 119.26C282.551 119.917 282.86 120.565 283.193 121.201C283.638 122.054 284.188 122.838 284.762 123.63C285.483 124.63 286.45 125.936 287.52 127.143C288.363 128.092 289.394 128.873 290.38 129.573C290.829 129.897 291.888 130.321 292.294 130.433C292.855 130.59 293.436 130.649 294.002 130.71L294.271 130.737C294.366 130.75 294.463 130.754 294.559 130.754C295.104 130.754 295.686 130.594 296.152 130.466C296.752 130.298 297.218 130.074 297.755 129.693C297.896 129.709 298.044 129.717 298.193 129.717C299.26 129.717 300.158 129.349 301.201 128.476L301.502 128.228C302.798 127.301 304.149 126.443 305.474 125.623C304.354 123.167 304.066 120.558 303.958 117.84C303.938 117.34 303.936 116.835 303.937 116.33C302.019 120.506 300.166 124.714 298.321 128.924C296.54 128.785 294.83 128.006 293.562 126.741C292.316 125.5 291.148 123.367 291.349 121.41C291.553 119.445 291.666 117.797 291.561 116.149C291.293 114.86 290.904 113.527 290.398 112.182C289.929 111.218 289.448 110.369 288.923 109.593C288.658 109.293 288.377 109.005 288.084 108.728C287.92 108.633 287.755 108.537 287.591 108.445C287.446 108.405 287.302 108.365 287.158 108.329C287.034 108.325 286.909 108.32 286.784 108.32C286.576 108.32 286.367 108.329 286.163 108.34C285.401 108.508 284.631 108.732 283.805 109.033C283.165 109.335 282.564 109.653 281.979 109.981C282.975 110.92 283.257 112.466 282.536 113.696C281.686 115.148 279.862 115.544 278.414 114.772C278.057 114.58 277.7 114.384 277.347 114.18C277.297 114.15 277.257 114.111 277.209 114.079C276.454 115.193 275.792 116.328 275.218 117.541C274.54 119.325 274.023 121.251 273.678 123.255C273.457 125.525 273.462 127.857 273.686 130.187C274.059 132.396 274.629 134.533 275.382 136.53C276.076 137.99 276.874 139.359 277.749 140.604C278.465 141.441 279.25 142.213 280.088 142.966C280.185 142.997 280.282 143.03 280.379 143.061C280.861 142.891 281.344 142.72 281.827 142.564C282.502 142.345 283.183 142.132 283.867 141.928C282.798 141.691 281.748 141.407 280.703 141.022L280.373 140.866Z" fill="#793219"/>
<path d="M333.483 97.3571C333.073 97.4986 332.667 97.647 332.261 97.7996C332.097 97.1562 332.424 96.5323 332.974 96.1205C334.565 94.9239 336.206 93.7989 337.794 92.5954C338.952 91.7187 340.131 90.8764 341.321 90.046C341.907 89.0588 342.453 88.0892 342.943 87.1376C344.505 84.1146 345.933 80.6389 347.307 76.5132C346.783 76.0261 346.284 75.514 345.849 74.9414C345.182 75.2272 344.512 75.5049 343.832 75.765C343.182 76.0151 342.476 76.1504 341.747 76.1934C341.409 77.8919 341.124 79.6027 340.732 81.2922C339.669 85.8501 337.74 90.5443 334.167 93.7223C332.995 94.8831 331.616 95.683 330.023 96.1308C329.33 96.3159 328.637 96.4055 327.943 96.4364C328.222 97.0847 328.501 97.7331 328.768 98.3868C329.413 99.9716 330.055 101.573 330.472 103.234C330.558 103.577 330.627 103.926 330.702 104.272C333.041 101.657 335.209 98.9889 337.178 96.2867C335.933 96.5931 334.696 96.9363 333.483 97.3571Z" fill="#793219"/>
<path d="M278.168 231.754C279.447 231.754 280.751 231.594 282.01 231.437L282.628 231.361L283.133 231.301C285.258 231.053 287.461 230.789 289.565 230.169C290.24 229.969 290.937 229.728 291.688 229.436C291.849 229.464 292.018 229.488 292.18 229.515C290.346 227.999 288.507 226.489 286.638 225.022C287.44 225.091 288.242 225.194 289.05 225.273C291.011 225.46 292.98 225.624 294.947 225.76C297.068 225.909 299.165 226.096 301.278 226.337C303.096 226.545 304.909 226.781 306.721 227.022C308.736 227.285 310.719 227.589 312.692 228.017C315.786 227.123 318.873 226.205 321.944 225.235C325.95 223.974 329.901 222.609 333.783 221.012C342.024 217.455 349.813 212.992 356.964 207.574C360.393 204.878 363.608 201.969 366.678 198.885C366.363 199.779 366.05 200.676 365.753 201.574C365.068 203.659 364.566 205.812 364.048 207.941C363.01 212.23 362.369 216.609 361.662 220.959C361.32 223.074 360.978 225.193 360.679 227.315C361.303 226.936 361.916 226.538 362.517 226.109C363.347 225.516 364.498 226.681 363.92 227.505C362.773 229.143 361.453 230.629 360.031 232.014C359.923 232.91 359.828 233.807 359.709 234.697C359.758 234.334 359.809 233.965 359.857 233.601C359.613 235.411 359.44 237.231 359.2 239.039C359.244 238.707 359.293 238.376 359.337 238.043C359.144 239.464 358.988 240.873 358.855 242.297C358.719 243.746 358.67 245.198 358.554 246.647C358.45 247.912 358.397 249.189 358.382 250.457C358.362 251.721 358.282 252.981 358.268 254.244C357.669 254.699 357.075 255.158 356.502 255.644C355.648 256.365 354.874 257.165 354.016 257.878C353.306 258.462 352.58 259.006 351.899 259.622C351.137 260.315 350.579 261.258 350.022 262.111C349.524 262.864 350.338 263.765 351.141 263.564C351.535 263.444 351.94 263.367 352.347 263.319C354.041 263.132 355.683 262.911 357.389 263.047C358.159 263.16 358.933 263.263 359.706 263.368C360.645 263.496 361.591 263.452 362.534 263.452C363.489 263.448 364.427 263.284 365.37 263.175C366.364 263.064 367.359 263.076 368.349 262.944C369.857 262.747 371.269 262.511 372.737 262.155C373.8 261.899 374.839 261.563 375.87 261.214C376.651 260.952 377.425 260.655 378.194 260.342L378.071 259.824C377.787 258.627 377.474 257.439 377.156 256.249L377.129 256.146C376.928 255.386 376.727 254.626 376.535 253.864C376.13 252.268 375.657 250.415 375.144 248.626C374.716 247.137 374.216 245.598 373.652 243.995C373.626 244.006 373.599 244.017 373.573 244.028C373.493 243.747 373.416 243.466 373.334 243.185C373.263 242.944 373.179 242.708 373.104 242.469C372.87 241.837 372.629 241.197 372.372 240.539L372.043 238.981C371.791 237.781 371.534 236.576 371.305 235.356C371.568 235.685 371.827 236.018 372.089 236.349C371.522 232.948 370.938 229.55 370.318 226.158C370.925 223.398 371.468 220.624 371.997 217.856C372.017 217.754 372.038 217.652 372.057 217.549C372.163 217 372.241 216.446 372.337 215.895C372.152 215.491 372.092 215.028 372.217 214.576C372.435 213.803 372.595 213.027 372.713 212.238C373.085 208.956 372.914 205.625 372.771 202.335C372.695 200.657 372.655 198.985 372.602 197.313C372.554 195.747 372.478 194.163 372.595 192.602C372.715 190.985 372.907 189.289 373.473 187.76C374.114 186.035 374.889 184.23 376.244 182.93C376.93 182.269 377.696 181.616 378.53 181.156C379.232 180.768 379.966 180.461 380.696 180.14C382.094 179.529 383.496 178.938 384.9 178.349C384.871 178.362 384.84 178.374 384.811 178.387C384.924 178.339 385.038 178.291 385.151 178.243C385.202 178.221 385.253 178.2 385.305 178.178C387.443 177.27 389.59 176.359 391.665 175.322C393.474 174.413 395.198 173.356 396.83 172.161C397.794 171.366 398.67 170.494 399.489 169.562C399.504 169.34 399.483 169.107 399.416 168.866C399.164 167.942 398.301 167.297 397.346 167.294C397.174 167.289 396.997 167.289 396.825 167.289C395.758 167.065 394.708 166.765 393.633 166.553C392.017 166.233 390.353 166.105 388.704 165.94C388.473 165.898 388.24 165.858 388.007 165.818C387.031 165.938 386.057 166.061 385.082 166.189C379.507 166.941 373.936 167.722 368.363 168.461C368.775 168.41 369.184 168.354 369.594 168.298C365.575 168.846 361.576 169.542 357.566 170.122C353.057 170.776 348.533 171.389 343.993 171.822C342.053 172.156 340.106 172.442 338.147 172.664C333.619 173.18 328.934 173.484 324.414 172.732C323.763 172.623 323.123 172.472 322.49 172.303C322.336 173.484 322.147 174.659 321.91 175.825C322.09 175.922 322.265 176.035 322.446 176.129C328.959 179.483 336.439 180.455 343.682 180.508C351.286 180.556 358.886 179.475 366.378 178.27L366.965 178.174C361.945 179.958 357.054 182.105 352.155 184.193C349.907 184.599 347.656 184.97 345.399 185.297C340.145 185.922 334.89 186.122 329.633 185.57C326.823 185.099 324.091 184.399 321.407 183.492C321.942 184.241 322.447 185.006 322.857 185.81C323.627 187.319 324.325 188.875 324.883 190.473C325.067 191.008 325.26 191.549 325.363 192.109C325.765 194.298 326.194 196.599 325.954 198.836C325.809 200.205 325.664 202.378 325.1 203.859C324.578 205.24 323.996 206.592 323.383 207.933C322.28 209.793 320.8 211.271 318.935 212.371L315.975 213.62C312.775 214.496 309.285 214.044 306.422 212.371C303.869 210.88 302.079 208.617 301.13 206.029C299.257 207.326 297.313 208.511 295.247 209.496C293.954 210.111 292.631 210.672 291.288 211.179C290.983 211.638 290.669 212.088 290.338 212.522L289.961 213.022C289.25 213.962 288.52 214.93 287.682 215.743C286.68 216.719 285.577 217.564 284.534 218.333C283.242 219.28 281.815 220.046 280.435 220.781C279.356 221.362 278.237 221.958 277.195 222.639C276.593 223.179 276 223.762 275.434 224.359C275.602 224.835 275.823 225.46 275.996 226.092C276.443 227.734 276.747 229.561 276.95 231.716C277.312 231.736 277.676 231.747 278.048 231.749L278.168 231.754Z" fill="#793219"/>
<path d="M294.107 265.936C295.145 265.928 296.188 265.92 297.228 265.936C298.09 265.952 298.955 266.04 299.814 266.1C300.937 266.181 302.084 266.112 303.207 266.08C305.401 266.02 307.587 266.1 309.776 265.976C312.079 265.843 313.113 263.303 311.597 261.582C310.526 260.366 309.376 259.265 308.128 258.229C306.46 256.843 304.823 255.447 303.043 254.198C302.329 253.694 301.534 253.278 300.789 252.819C300.038 252.353 299.313 251.841 298.578 251.349C296.87 250.201 295.029 249.24 293.188 248.316C288.29 245.844 283.128 243.893 277.838 242.396C278.183 243.218 278.533 244.037 278.868 244.862C281.338 250.956 283.461 257.589 285.53 265.74C287.088 265.817 288.649 265.864 290.205 265.912C291.509 265.952 292.807 265.944 294.107 265.936Z" fill="#793219"/>
<path d="M274.798 264.755C274.358 262.705 273.896 260.628 273.393 258.568C272.92 256.637 272.413 254.734 271.888 252.852C270.99 254.05 269.992 255.223 268.789 256.265C268.721 258.812 268.571 261.349 268.342 263.88C270.489 264.207 272.641 264.494 274.798 264.755Z" fill="#793219"/>
<path d="M384.901 178.349C385.01 178.303 385.118 178.257 385.227 178.211C385.202 178.221 385.176 178.233 385.151 178.243C385.068 178.278 384.985 178.314 384.901 178.349Z" fill="#793219"/>
<path d="M385.762 177.986C385.609 178.05 385.458 178.113 385.305 178.178L385.227 178.211C385.405 178.136 385.584 178.061 385.762 177.986Z" fill="#793219"/>
<path d="M297.263 139.867C297.332 140.033 297.388 140.204 297.453 140.371C297.602 140.352 297.753 140.336 297.904 140.326C297.686 140.164 297.47 139.999 297.251 139.84C297.255 139.849 297.259 139.858 297.263 139.867Z" fill="#793219"/>
<path d="M385.227 178.211L385.305 178.178C385.254 178.199 385.203 178.221 385.151 178.242C385.176 178.232 385.202 178.221 385.227 178.211Z" fill="#2C2C2C"/>
<path d="M384.812 178.389C384.841 178.376 384.871 178.363 384.901 178.351C384.985 178.316 385.068 178.279 385.151 178.244C385.038 178.292 384.924 178.34 384.812 178.389Z" fill="#2C2C2C"/>
<path d="M372.044 238.982L372.372 240.54C372.629 241.198 372.871 241.838 373.105 242.47C373.297 242.988 373.475 243.493 373.652 243.996C374.217 245.599 374.716 247.139 375.144 248.627C375.658 250.416 376.13 252.269 376.536 253.865C376.728 254.627 376.929 255.387 377.129 256.147L377.157 256.25C377.474 257.44 377.787 258.628 378.072 259.825L378.194 260.343L378.717 262.558L378.837 263.062L379.026 263.858C379.603 266.283 380.197 268.769 380.823 271.21C381.842 275.216 383.06 279.142 384.236 282.935L384.296 283.111C385.315 286.389 386.546 290.351 387.569 294.217C388.455 297.59 389.218 301.344 389.903 305.69C389.941 305.926 389.98 306.165 390.02 306.403C390.401 308.702 390.879 311.038 391.234 312.79L391.271 312.981L391.339 313.314L391.484 314.014L391.568 314.442C391.623 314.727 391.684 315.015 391.736 315.298C392.37 318.488 393.024 321.917 393.517 325.379C394.095 330.038 394.194 333.852 393.83 337.377C393.521 339.266 393.064 340.999 392.426 342.684C391.945 343.7 391.44 344.597 390.87 345.421C390.617 345.713 390.352 346.001 390.079 346.285C388.824 346.726 387.541 347.221 386.049 347.847C385.788 347.954 385.528 348.064 385.267 348.173C383.935 350.053 382.445 351.824 380.851 353.482C380.198 354.162 379.532 354.827 378.846 355.466C377.353 356.853 375.793 358.172 374.184 359.424C374.623 359.447 375.064 359.467 375.509 359.484C376.071 359.504 376.632 359.511 377.194 359.511C378.873 359.511 380.611 359.412 382.351 359.219C385.876 359.548 389.987 359.896 394.122 359.896C396.131 359.896 398.201 359.727 400.274 359.391C401.175 359.239 402.075 359.015 403.005 358.716C403.067 358.733 403.129 358.749 403.191 358.766C405.149 359.279 407.262 359.709 409.574 360.058C409.871 360.094 410.163 360.126 410.456 360.158C411.989 359.966 413.45 359.591 414.8 359.045C415.74 358.663 416.845 358.192 417.921 357.584C418.887 357.036 419.787 356.332 420.78 355.534C423.829 353.07 426.168 349.371 427.541 344.835C427.842 343.845 428.01 342.805 428.142 341.908C428.4 340.17 428.554 338.729 428.628 337.374C428.792 334.214 428.339 331.018 427.873 328.307C427.501 326.17 426.856 323.905 425.9 321.381C424.927 318.789 423.707 316.165 422.274 313.581C420.032 309.524 417.105 305.358 413.06 300.473C410.282 297.121 407.158 293.675 402.933 289.303C401.365 287.682 399.777 286.086 398.184 284.489L397.819 284.121C397.735 284.037 397.655 283.952 397.572 283.867C396.709 282.998 395.878 282.119 395.107 281.276C394.3 277.154 393.256 272.648 391.743 268.197C390.18 263.562 388.187 259.196 386.277 255.114L385.499 254.062C382.006 249.36 378.048 244.03 374.057 238.843C373.409 238.01 372.748 237.18 372.09 236.35C371.827 236.02 371.569 235.687 371.306 235.357C371.534 236.577 371.791 237.782 372.044 238.982Z" fill="white"/>
<path d="M251.399 379.646C256.727 380.561 262.485 381.023 268.999 381.058H269.701H269.93C271.588 381.713 273.356 382.212 275.335 382.583C278.247 383.126 281.173 383.467 284.031 383.595C284.77 383.628 285.511 383.643 286.253 383.643C288.058 383.643 290.006 383.557 292.57 383.363C298.457 382.911 304.655 381.557 311.523 379.225L312.402 378.928L312.609 378.858C314.988 378.044 317.448 377.204 319.813 376.239C320.144 376.105 320.479 375.961 320.812 375.821C327.189 373.593 333.593 371.412 339.828 368.832C346.847 365.814 353.565 362.134 359.8 357.734C360.726 357.08 361.643 356.412 362.548 355.725C363.686 354.832 364.802 353.914 365.894 352.97C365.247 352.21 364.32 351.683 363.234 351.683C363.162 351.683 363.094 351.683 363.022 351.687C362.726 351.707 362.422 351.75 362.124 351.776C358.117 352.12 353.926 352.904 349.931 354.092C349.546 353.148 349.089 352.26 348.551 351.379C347.642 349.875 346.819 348.598 346.033 347.482C344.697 345.576 343.137 343.812 341.654 342.171C336.777 336.8 331.29 332.226 326.569 328.456C324.043 326.448 321.299 324.338 317.939 321.821C315.869 320.276 313.708 318.832 311.619 317.435L311.461 317.327C310.712 316.831 309.974 316.338 309.239 315.842L308.963 315.654C303.918 312.24 298.295 308.438 293.053 304.481L293.033 304.193C292.431 298.999 291.476 293.756 290.47 288.393C289.475 283.135 288.412 278.025 287.318 273.207C286.722 270.572 286.128 268.095 285.53 265.739C283.46 257.589 281.338 250.955 278.867 244.861C278.532 244.036 278.182 243.218 277.838 242.396C277.486 241.556 277.14 240.713 276.786 239.875L276.75 239.789C276.514 241.803 276.25 243.862 275.534 245.693C275.405 246.017 275.281 246.349 275.153 246.682C274.515 248.37 273.85 250.111 272.815 251.576C272.516 252 272.205 252.426 271.887 252.851C272.413 254.734 272.92 256.637 273.393 258.568C273.895 260.628 274.357 262.704 274.797 264.754C275.384 267.486 275.925 270.165 276.425 272.65L276.641 273.734C276.927 275.131 277.207 276.52 277.484 277.92L277.693 278.965L277.805 279.526C278.419 282.623 279.052 285.812 279.717 288.946C280.018 290.338 280.344 291.731 280.668 293.119L280.744 293.448L280.841 293.868L280.941 294.292L281.45 296.482C281.462 296.569 281.486 296.661 281.51 296.749C282.349 299.258 283.043 301.819 283.628 304.585C283.746 305.142 283.86 305.718 283.972 306.301C284.287 307.943 284.576 309.705 284.846 311.608C283.955 312.661 283.068 313.736 282.19 314.85C275.998 322.996 270.26 332.289 263.584 344.982L263.508 345.122C261.676 349.511 260.412 353.689 259.64 357.895C259.185 360.428 258.946 362.466 258.891 364.308C258.839 366.094 259.039 368.051 259.484 370.125C259.707 371.135 260.066 372.128 260.552 373.072C260.044 373.054 259.522 373.054 258.996 373.054C257.484 373.054 255.973 373.066 254.456 373.086L252.615 373.121C251.3 373.146 249.981 373.17 248.666 373.17C247.936 373.17 247.21 373.161 246.48 373.142C246.143 373.133 245.804 373.111 245.466 373.097C245.597 374.957 245.756 376.817 245.937 378.675L247.986 379.041C249.121 379.245 250.261 379.45 251.399 379.646Z" fill="white"/>
<path d="M394.46 141.453C394.574 141.325 394.69 141.201 394.816 141.098C394.456 141.109 394.095 141.133 393.732 141.161C393.557 141.173 393.374 141.188 393.196 141.201C391.911 141.298 390.529 141.436 388.979 141.629C387.13 141.912 385.329 142.364 383.301 142.945C382.38 143.209 381.416 143.498 380.372 143.815C380.557 143.837 380.729 143.855 380.897 143.872C380.962 143.879 381.024 143.885 381.087 143.89C381.598 143.939 382.033 143.966 382.418 143.974C382.822 143.99 383.265 144.013 383.716 144.039C385.397 144.133 387.337 144.315 389.21 144.741C389.731 144.865 390.252 144.997 390.77 145.129L390.846 145.148L390.892 145.159C391.109 145.212 391.326 145.264 391.542 145.317C391.568 145.323 391.594 145.329 391.619 145.336C391.893 145.402 392.166 145.472 392.441 145.535C392.489 145.314 392.548 145.089 392.615 144.876C392.712 144.555 392.818 144.257 392.931 143.971C393.219 143.237 393.563 142.601 393.993 142.026C394.144 141.823 394.299 141.632 394.46 141.453Z" fill="white"/>
<path d="M371.235 102.602C371.093 102.602 370.951 102.621 370.811 102.663C369.452 103.071 368.08 103.444 366.717 103.836C365.084 104.307 363.492 104.892 361.872 105.392C358.521 106.428 355.059 106.937 351.6 107.438C349.795 107.667 347.989 107.834 346.17 107.93C344.61 108.014 343.05 108.01 341.494 108.01C341.081 108.006 340.664 108.006 340.254 108.006C339.192 108.006 338.306 108.89 338.306 109.954C338.306 111.019 339.192 111.896 340.254 111.9C343.05 111.911 345.821 112.116 348.6 112.396C351.588 112.696 354.536 113.013 357.548 112.929C359.149 112.88 360.744 112.684 362.329 112.444C363.736 112.232 365.116 111.863 366.427 111.315C367.146 111.015 367.82 110.715 368.485 110.311C369.219 109.858 369.905 109.262 370.531 108.665C371.634 107.617 372.408 106.2 372.949 104.796C373.373 103.695 372.305 102.602 371.235 102.602Z" fill="#2C2C2C"/>
<path d="M393.202 107.057C391.621 108.036 389.937 108.875 388.176 109.489C388.338 109.566 388.502 109.644 388.665 109.719C390.398 110.395 392.163 110.899 394 111.224C394.517 111.276 395.034 111.307 395.55 111.33C395.63 111.334 395.71 111.344 395.789 111.347C396.21 111.178 396.628 110.993 397.044 110.796C398.961 109.883 400.516 108.374 401.708 106.65C402.799 105.077 401.331 102.844 399.571 102.844C399.342 102.844 399.105 102.88 398.868 102.964C398.624 103.052 398.379 103.14 398.134 103.232C397.438 103.903 396.705 104.533 395.949 105.131C395.303 105.642 394.642 106.133 393.96 106.585C393.712 106.749 393.455 106.9 393.202 107.057Z" fill="#2C2C2C"/>
<path d="M320.751 180.273C319.704 183.451 318.32 186.552 316.619 189.434C313.299 195.077 308.927 200.127 303.737 204.132C302.885 204.79 302.013 205.418 301.13 206.029C302.08 208.617 303.869 210.88 306.422 212.37C309.286 214.043 312.775 214.495 315.976 213.619L318.936 212.37C320.8 211.27 322.281 209.793 323.383 207.932C323.996 206.591 324.579 205.239 325.1 203.858C325.665 202.378 325.809 200.205 325.954 198.836C326.194 196.598 325.765 194.297 325.364 192.108C325.26 191.549 325.067 191.008 324.883 190.472C324.326 188.875 323.627 187.319 322.858 185.81C322.447 185.006 321.942 184.24 321.408 183.491C324.091 184.399 326.824 185.098 329.633 185.569C334.891 186.121 340.146 185.922 345.399 185.297C347.656 184.97 349.908 184.599 352.155 184.192C357.055 182.104 361.945 179.957 366.965 178.173L366.378 178.27C358.886 179.475 351.286 180.555 343.683 180.507C336.439 180.455 328.96 179.483 322.446 176.128C322.265 176.035 322.091 175.922 321.91 175.824C321.605 177.326 321.23 178.814 320.751 180.273Z" fill="#2C2C2C"/>
<path d="M391.961 86.261C390.736 86.5765 389.579 87.0673 388.422 87.5713C387.693 87.8592 386.958 88.14 386.294 88.5537C384.983 89.3701 383.904 90.4951 383.127 91.828C382.565 92.7961 382.27 93.8824 382.138 94.9846C382.097 95.3311 382.07 95.6787 382.059 96.0252C382.007 97.478 382.517 98.8632 383.178 100.123C383.731 101.184 384.871 101.985 386.005 102.296C387.67 102.753 389.382 102.248 390.614 101.08C390.82 100.885 391.014 100.683 391.205 100.479C391.915 99.7231 392.542 98.9151 393.18 98.0701C393.606 97.5085 393.925 96.8714 394.275 96.2558C394.412 96.2117 394.55 96.1707 394.688 96.1296C395.176 95.99 395.614 95.7639 396.025 95.5024C397.876 94.3235 398.884 92.0553 398.271 89.8343C397.839 88.2718 396.704 87.1075 395.309 86.5211C394.671 86.2528 393.983 86.0938 393.274 86.0938C392.838 86.0939 392.399 86.1482 391.961 86.261Z" fill="#2C2C2C"/>
<path d="M137.826 263.971C140.799 263.154 143.397 261.16 144.962 258.5C145.52 257.547 145.973 256.434 146.265 255.282C147.533 254.734 148.796 254.154 150.059 253.573C151.467 252.92 152.926 252.248 154.378 251.633L154.054 251.748C156.517 250.72 158.951 249.551 161.312 248.423C163.471 247.386 165.701 246.318 167.931 245.354C170.931 244.145 174.27 243.225 177.864 242.625C178.242 242.588 178.619 242.556 178.991 242.537C178.888 242.844 178.799 243.165 178.715 243.488C178.202 245.501 177.945 247.586 177.977 249.519C178.061 254.554 180.199 259.42 183.844 262.869C186.816 265.687 190.655 267.856 194.368 268.821C195.993 269.241 197.821 269.473 199.521 269.473C201.482 269.473 203.255 269.169 204.647 268.588L205.469 268.248C208.357 267.06 209.043 266.776 211.754 264.427C212.881 263.454 213.763 262.189 214.617 260.969L215.067 260.329C215.395 259.873 215.628 259.348 215.856 258.804L216.129 258.167C216.779 256.663 217.393 255.238 217.894 253.693L218.139 252.917C218.295 252.421 218.448 251.925 218.616 251.432C219.715 249.064 220.686 246.91 221.395 244.586C221.564 244.029 221.713 243.469 221.861 242.909L221.969 242.885L222.122 242.841C222.603 242.997 223.084 243.169 223.569 243.341L224.36 243.617C226.052 244.213 227.937 244.529 229.805 244.529C229.982 244.529 230.154 244.526 230.327 244.521C231.711 244.477 233.106 244.189 234.726 243.613C236.211 245.886 237.93 248.071 239.592 250.185L240.201 250.96C242.988 254.514 248.868 260.472 256.973 260.472C257.15 260.472 257.33 260.47 257.511 260.465C260.791 260.357 263.334 259.649 266.302 258.02C266.931 257.674 267.501 257.285 268.04 256.875C268.299 256.678 268.548 256.475 268.789 256.266C269.992 255.224 270.99 254.051 271.888 252.852C272.206 252.428 272.516 252.002 272.815 251.577C273.85 250.112 274.516 248.371 275.153 246.683C275.281 246.35 275.406 246.018 275.534 245.695C276.251 243.863 276.515 241.805 276.75 239.79C276.766 239.66 276.783 239.529 276.798 239.399C276.842 238.996 276.89 238.595 276.939 238.207C277.147 236.506 277.191 234.818 277.067 233.044C277.034 232.58 276.992 232.152 276.951 231.717C276.748 229.562 276.443 227.735 275.996 226.093C275.823 225.461 275.603 224.836 275.434 224.36C276 223.764 276.593 223.18 277.195 222.64C278.237 221.959 279.356 221.363 280.436 220.782C281.815 220.047 283.243 219.282 284.534 218.334C285.577 217.565 286.68 216.72 287.682 215.744C288.521 214.931 289.251 213.963 289.961 213.023L290.338 212.523C290.67 212.088 290.983 211.639 291.288 211.18C289.522 211.848 287.718 212.414 285.87 212.799C282.613 213.475 279.224 213.923 275.896 213.607C274.211 213.446 272.51 213.215 270.878 212.77C269.407 212.371 267.983 211.838 266.592 211.214C263.964 210.037 261.518 208.372 259.445 206.375C257.318 204.339 255.466 201.921 254.086 199.32C252.606 196.527 251.447 193.513 250.781 190.42C250.032 186.923 249.651 183.293 249.839 179.715C250.023 176.141 250.564 172.551 251.715 169.15C252.818 165.888 254.314 162.711 256.22 159.829C258.137 156.932 260.375 154.219 262.861 151.786C264.141 150.537 265.492 149.328 266.916 148.22C265.231 152.895 263.459 157.549 261.947 162.279C261.021 163.836 260.182 165.44 259.456 167.097C258.281 170.01 257.435 173.019 256.954 176.125C256.584 179.239 256.621 182.368 256.994 185.478C257.411 188.207 258.088 190.88 259.111 193.445C259.958 195.346 260.988 197.147 262.224 198.824C263.295 200.148 264.486 201.357 265.805 202.437C267.088 203.378 268.444 204.175 269.887 204.834C271.468 205.451 273.093 205.883 274.768 206.151C276.842 206.371 278.915 206.352 280.993 206.115C283.836 205.663 286.588 204.811 289.251 203.734C291.633 202.691 293.902 201.448 296.069 200.034C296.563 198.296 296.992 196.465 297.366 194.537C298.073 195.261 298.766 195.999 299.426 196.766C299.545 196.941 299.642 197.129 299.757 197.307C302.368 195.112 304.761 192.676 306.886 190C309.167 186.954 311.101 183.685 312.637 180.203C313.956 176.982 314.959 173.667 315.485 170.226C315.853 167.105 315.833 163.967 315.46 160.849C315.035 158.076 314.334 155.335 313.291 152.73C312.561 151.105 311.69 149.569 310.636 148.131C309.717 147.007 308.694 145.994 307.572 145.074C306.091 143.986 304.532 143.078 302.855 142.337C301.545 141.812 300.207 141.382 298.848 141.029C298.537 140.788 298.219 140.56 297.904 140.326C297.753 140.337 297.602 140.352 297.453 140.372C297.216 140.403 296.981 140.443 296.753 140.5C295.843 140.38 294.93 140.278 294.011 140.216C293.807 140.202 293.604 140.196 293.401 140.196C292.199 140.196 291.018 140.407 289.819 140.572C287.809 140.851 285.821 141.348 283.867 141.929C283.182 142.133 282.502 142.346 281.826 142.565C281.343 142.721 280.861 142.892 280.378 143.062C280.281 143.031 280.184 142.998 280.087 142.967C279.249 142.214 278.464 141.443 277.748 140.605C276.874 139.36 276.076 137.992 275.382 136.531C274.628 134.534 274.058 132.397 273.686 130.188C273.461 127.858 273.457 125.526 273.678 123.256C274.023 121.252 274.54 119.327 275.218 117.542C275.792 116.329 276.453 115.194 277.208 114.08C275.899 113.211 275.458 111.418 276.26 110.047C276.821 109.093 277.848 108.563 278.894 108.563C279.409 108.563 279.931 108.692 280.402 108.962C280.755 109.167 281.105 109.375 281.457 109.583C281.649 109.697 281.821 109.834 281.978 109.982C282.564 109.654 283.164 109.336 283.804 109.034C284.63 108.733 285.4 108.509 286.162 108.341C286.366 108.33 286.575 108.321 286.783 108.321C286.908 108.321 287.033 108.325 287.157 108.33C287.301 108.366 287.446 108.406 287.59 108.446C287.755 108.538 287.919 108.634 288.083 108.729C288.377 109.006 288.657 109.294 288.922 109.594C289.448 110.371 289.928 111.219 290.397 112.183C290.904 113.528 291.293 114.861 291.561 116.15C291.665 117.798 291.552 119.446 291.348 121.411C291.148 123.368 292.315 125.501 293.562 126.742C294.83 128.007 296.539 128.786 298.32 128.925C300.165 124.715 302.018 120.507 303.936 116.331C303.936 116.836 303.938 117.341 303.958 117.841C304.065 120.559 304.353 123.169 305.473 125.624C305.649 126.011 305.842 126.394 306.062 126.773C308.946 131.728 315.151 134.353 320.71 132.688C322.879 132.04 325.33 130.743 326.769 128.954C327.52 128.026 328.349 127.09 328.955 126.041C329.649 124.837 330.11 123.483 330.583 122.187C331.278 120.29 331.358 118.077 331.598 116.136C331.831 114.284 331.755 112.39 331.602 110.534C331.427 108.44 331.15 106.333 330.702 104.273C330.627 103.926 330.557 103.578 330.472 103.234C330.055 101.574 329.413 99.9722 328.767 98.3874C328.5 97.7337 328.222 97.0853 327.943 96.437C328.636 96.4061 329.329 96.3165 330.023 96.1314C331.615 95.6836 332.995 94.8835 334.167 93.7229C337.739 90.5449 339.669 85.8507 340.731 81.2928C341.123 79.6036 341.409 77.8926 341.747 76.194C342.475 76.151 343.182 76.0157 343.832 75.7656C344.512 75.5055 345.182 75.2278 345.848 74.942C346.284 75.5146 346.783 76.0268 347.307 76.5138C350.02 79.0345 353.771 80.5019 357.146 81.7332C357.525 81.8722 357.918 81.9784 358.316 82.0694C356.338 82.2055 354.345 82.5607 352.481 83.2313C350.5 83.9474 348.806 85.0158 347.058 86.1603C345.498 87.1806 343.954 88.2257 342.414 89.2817C342.047 89.5335 341.685 89.7921 341.321 90.0466C340.131 90.877 338.951 91.7193 337.794 92.596C336.206 93.7998 334.565 94.9247 332.974 96.1211C332.424 96.5329 332.097 97.1568 332.261 97.8002C332.667 97.6476 333.073 97.499 333.483 97.3577C334.696 96.9369 335.933 96.5938 337.178 96.2871C337.84 96.1242 338.5 95.9558 339.169 95.8261C339.565 95.6264 339.97 95.4369 340.38 95.2564C342.354 94.4523 344.379 93.8159 346.485 93.4717C348.077 93.3078 349.629 93.2872 351.225 93.4677C352.147 93.5958 353.066 93.7196 353.988 93.8396C353.866 93.8252 353.744 93.8099 353.623 93.7933C354.956 93.9778 356.27 94.2114 357.57 94.5526C358.966 94.9203 360.317 95.4727 361.657 95.997C362.262 96.2327 362.864 96.4571 363.485 96.6527C364.259 96.8934 365.074 96.9855 365.868 97.129C366.807 97.2929 367.737 97.4458 368.683 97.5572C369.569 97.6618 370.371 97.5737 371.258 97.4139C372.421 97.2018 373.613 95.9887 373.837 94.8402C373.929 94.3844 373.998 93.9273 374.038 93.4634C374.042 92.7792 373.917 92.107 373.796 91.4308C373.588 90.2342 372.946 89.0857 372.305 88.0655C372.136 87.8164 371.96 87.5767 371.776 87.3442C371.162 86.5441 370.777 85.9878 370.055 85.3874C369.341 84.787 368.659 84.2636 367.853 83.823C367.051 83.3867 366.169 83.0824 365.315 82.7627C364.929 82.6185 364.512 82.5191 364.089 82.4343C364.379 82.3943 364.674 82.3498 364.956 82.3046C365.895 82.153 366.681 82.0035 366.595 82.0311C367.825 81.7186 369.412 80.9452 370.201 80.5598C371.864 79.7547 373.27 78.4134 374.691 77.1759C375.731 76.4504 376.794 75.759 377.853 75.0614C378.595 74.6237 379.259 74.1087 379.88 73.5508C380.845 74.6955 381.954 75.69 383.216 76.5486C384.945 77.7288 386.954 78.4572 388.915 79.1538C390.173 79.597 391.65 79.5274 392.991 79.1443C393.646 78.9571 394.272 78.7008 394.819 78.3816C396.535 77.3806 397.814 75.724 398.339 73.8114C398.699 72.5069 398.675 71.1589 398.345 69.8973C399.081 69.8129 399.809 69.6886 400.524 69.4851C400.816 69.3651 401.105 69.2443 401.393 69.1203C402.365 68.8806 403.223 68.44 403.964 67.8038C404.458 67.4196 404.951 67.0395 405.445 66.6595C406.35 65.7469 406.98 64.6742 407.329 63.4376C407.654 62.2451 407.722 60.649 407.389 59.4441C406.732 57.0633 404.574 55.0983 402.216 54.4497C401.498 54.252 400.806 54.1783 400.118 54.1783C399.203 54.1783 398.298 54.3083 397.343 54.4497C397.115 54.4837 396.899 54.5327 396.677 54.5736C396.947 52.734 397.079 50.7156 396.362 49.02C396.133 48.0713 395.744 47.2106 395.203 46.4342C393.92 44.5091 393.47 44.1649 391.589 42.8331C389.953 41.6723 387.947 41.3997 386.018 41.2399C385.796 41.2204 385.575 41.2123 385.353 41.2123C382.941 41.2123 380.571 42.2593 378.471 43.2888C377.701 43.6689 376.983 44.1576 376.277 44.6454C375.226 45.3679 374.217 46.1556 373.222 46.9601C372.837 46.7342 372.444 46.5289 372.044 46.3572C371.033 45.9207 370.138 45.4566 369.076 45.2734C368.08 45.1011 367.226 44.9927 366.366 44.9927C365.586 44.9927 364.8 45.0817 363.898 45.2929C363.289 45.4348 362.718 45.6395 362.173 45.8855C359.91 43.9466 357.361 42.8801 355.144 42.1018C354.387 41.8376 353.572 41.7176 352.786 41.606L352.538 41.5702L352.201 41.522L351.185 41.3816C347.48 39.0685 343.59 37.5962 339.632 36.9999C337.999 36.7508 336.327 36.627 334.654 36.627C329.284 36.627 323.657 37.8604 317.453 40.4011C304.707 45.6199 293.731 54.2039 283.113 62.4993C281.786 63.5401 280.458 64.577 279.131 65.6055C278.032 66.4457 276.93 67.2734 275.827 68.1022C274.628 68.9988 273.433 69.8951 272.249 70.8037C270.36 72.2565 268.487 73.7286 266.618 75.1979C265.23 76.2858 263.847 77.375 262.455 78.4556C254.442 84.5945 245.358 91.5536 235.268 96.0799C231.289 97.6359 227.338 98.7209 223.192 99.4014C221.443 99.5734 219.618 99.6615 217.777 99.6615C215.214 99.6615 212.559 99.4976 209.656 99.1646C205.765 98.5612 201.856 97.7489 198.069 96.964C196.165 96.5675 194.255 96.172 192.338 95.7991C185.368 94.4466 177.912 93.1702 170.592 93.0024C170.256 92.9942 169.919 92.9899 169.582 92.9899C165.885 92.9899 162.254 93.454 158.553 93.9705C155.473 94.4027 152.277 95.2827 149.06 96.5879C145.113 98.184 141.676 99.8776 138.549 101.763C135.075 103.856 131.855 106.365 128.85 108.75C123.441 113.043 118.564 118.478 114.364 124.897C112.107 128.347 110.542 132.153 109.307 135.418C108.301 138.095 108.04 141.012 107.843 144.018C107.55 148.52 108.055 153.094 108.541 157.516C108.85 160.297 109.166 163.175 109.283 166.001C106.652 165.272 103.937 164.892 101.438 164.892H101.249C92.1895 164.943 85.5158 170.943 82.3392 174.516C81.0927 175.921 79.8496 177.554 78.5293 179.498C77.3865 181.18 76.5528 183.369 75.9428 184.965C75.2693 186.734 74.7519 188.723 74.4551 190.717L74.3422 191.456C73.9293 194.214 73.7404 195.47 74.4428 198.543C74.9397 200.709 76.059 202.666 78.0641 204.891C78.9789 205.903 80.0774 206.596 81.1401 207.272L81.2808 207.356C81.5457 207.628 81.8023 207.908 82.0549 208.204L82.3074 208.5C82.5641 208.804 82.8085 209.092 83.1063 209.365L82.2591 210.833C80.5989 213.775 79.4438 216.396 78.7345 218.846C77.6956 222.391 77.7314 226.549 78.8187 229.431C80.0375 232.68 80.7714 233.796 83.0291 236.502C83.7757 237.39 86.4943 239.243 86.5188 239.258C86.9881 239.571 87.4726 239.835 88.0342 240.091C91.0385 241.46 94.2591 242.728 97.4513 242.728C97.8609 242.728 98.2694 242.709 98.6822 242.665L99.3198 242.596C100.792 242.445 102.309 242.288 103.712 241.808C104.514 241.532 105.324 241.22 106.122 240.876C105.942 242.092 105.906 243.081 105.997 243.977C106.006 246.126 106.555 248.155 107.634 250.015C108.701 251.808 110.149 253.25 111.938 254.306C113.767 255.37 115.888 255.935 118.07 255.935C119.79 255.935 121.486 255.57 122.975 254.878L123.144 255.654C124 259.255 126.735 262.142 130.239 263.51C131.654 264.062 133.191 264.375 134.785 264.375C135.825 264.374 136.848 264.238 137.826 263.971Z" fill="#2C2C2C"/>
<path d="M301.13 206.03C302.013 205.418 302.885 204.791 303.737 204.133C308.927 200.127 313.299 195.078 316.619 189.435C318.319 186.553 319.703 183.452 320.751 180.274C321.23 178.814 321.605 177.327 321.911 175.825C322.148 174.659 322.337 173.484 322.49 172.303C322.567 171.714 322.645 171.125 322.704 170.534C323.196 165.628 322.655 160.581 321.136 155.891C319.527 150.941 316.796 146.266 312.777 142.889C306.437 137.567 298.139 136.391 290.076 136.045C292.559 137 294.983 138.189 297.116 139.739C297.161 139.772 297.206 139.807 297.251 139.84C297.47 139.999 297.686 140.164 297.904 140.326C298.219 140.559 298.537 140.788 298.848 141.028C300.207 141.382 301.545 141.812 302.855 142.336C304.532 143.077 306.091 143.986 307.572 145.074C308.694 145.994 309.716 147.007 310.635 148.131C311.69 149.568 312.561 151.105 313.291 152.73C314.334 155.335 315.035 158.075 315.46 160.849C315.833 163.966 315.853 167.104 315.485 170.226C314.959 173.667 313.956 176.981 312.637 180.202C311.1 183.684 309.167 186.953 306.886 189.999C304.761 192.675 302.368 195.112 299.757 197.306C299.38 197.623 299.014 197.949 298.628 198.255C297.794 198.878 296.938 199.466 296.069 200.033C293.902 201.448 291.633 202.691 289.251 203.733C286.588 204.81 283.836 205.662 280.993 206.114C278.915 206.351 276.842 206.37 274.768 206.15C273.093 205.883 271.469 205.451 269.887 204.834C268.444 204.174 267.088 203.377 265.805 202.437C264.486 201.357 263.295 200.148 262.224 198.823C260.988 197.146 259.958 195.345 259.111 193.445C258.088 190.879 257.411 188.207 256.994 185.477C256.621 182.367 256.584 179.238 256.954 176.125C257.435 173.019 258.281 170.01 259.456 167.096C260.182 165.44 261.021 163.835 261.947 162.278C263.459 157.548 265.231 152.894 266.916 148.219C265.492 149.328 264.141 150.537 262.861 151.785C260.375 154.218 258.137 156.931 256.22 159.828C254.314 162.711 252.818 165.887 251.715 169.149C250.564 172.551 250.023 176.14 249.838 179.715C249.651 183.292 250.032 186.922 250.781 190.42C251.447 193.512 252.606 196.527 254.086 199.319C255.466 201.921 257.318 204.338 259.445 206.375C261.518 208.371 263.964 210.036 266.591 211.214C267.983 211.837 269.407 212.37 270.878 212.77C272.51 213.214 274.211 213.446 275.896 213.607C279.224 213.922 282.613 213.474 285.87 212.798C287.718 212.414 289.522 211.847 291.288 211.18C292.631 210.672 293.955 210.111 295.247 209.496C297.313 208.511 299.258 207.326 301.13 206.03Z" fill="#5325D0"/>
<path d="M430.116 177.079C429.03 179.544 427.73 181.906 426.13 184.083C424.803 185.715 423.326 187.203 421.69 188.524C420.543 189.353 419.335 190.073 418.056 190.665C416.223 191.378 414.323 191.857 412.381 192.158C410.524 192.363 408.655 192.407 406.795 192.202C405.315 191.958 403.846 191.59 402.443 191.053C401.729 190.734 401.039 190.365 400.366 189.961L400.261 189.857C400.246 189.837 400.229 189.813 400.213 189.793C399.772 189.197 399.042 188.901 398.348 189.304C398.104 189.449 397.903 189.689 397.778 189.965C397.947 190.482 398.128 190.994 398.325 191.502C398.773 192.462 399.27 193.379 399.84 194.263C400.093 194.555 400.358 194.832 400.631 195.096C401.376 195.831 402.23 196.408 403.145 196.885C404.801 197.452 406.494 197.836 408.226 198.113C411.239 198.433 414.262 198.497 417.29 198.594C419.801 198.181 422.227 197.481 424.586 196.457C426.799 195.495 428.768 194.127 430.574 192.527C431.996 191.262 433.237 189.786 434.352 188.234C434.674 187.787 434.988 187.336 435.289 186.88C436.701 184.743 437.757 182.394 438.67 180.009C440.471 175.283 441.186 170.144 441.418 165.118C441.63 160.487 441.121 155.769 440.079 151.259C439.08 146.953 437.384 142.827 435.137 139.025C434.079 137.232 432.767 135.568 431.399 134.007C430.031 132.446 428.451 131.106 426.763 129.897C425.119 128.72 423.306 127.836 421.441 127.063C419.581 126.291 417.611 125.779 415.618 125.495C415.441 125.471 415.277 125.455 415.121 125.455C414.844 125.455 414.58 125.503 414.307 125.667C414.083 125.798 413.893 125.98 413.749 126.194C415.196 127.172 416.573 128.267 417.825 129.456C418.351 129.616 418.872 129.801 419.388 130.009C420.643 130.573 421.811 131.27 422.914 132.091C424.325 133.227 425.569 134.524 426.703 135.94C428.155 137.868 429.306 139.974 430.277 142.179C431.664 145.569 432.514 149.182 433.048 152.799C433.58 157.118 433.593 161.498 433.106 165.823C433.09 165.964 433.085 166.105 433.068 166.246C432.51 169.959 431.527 173.597 430.116 177.079Z" fill="#5325D0"/>
<path d="M278.414 114.773C279.862 115.545 281.686 115.149 282.536 113.697C283.257 112.467 282.975 110.921 281.979 109.982C281.821 109.834 281.649 109.697 281.457 109.583C281.105 109.375 280.756 109.167 280.403 108.962C279.932 108.692 279.41 108.562 278.895 108.562C277.848 108.562 276.822 109.093 276.26 110.047C275.459 111.418 275.899 113.211 277.209 114.08C277.257 114.111 277.297 114.151 277.347 114.181C277.7 114.385 278.057 114.581 278.414 114.773Z" fill="#5325D0"/>
<path d="M363.92 227.505C364.498 226.681 363.347 225.517 362.517 226.109C361.916 226.537 361.303 226.936 360.679 227.315C359.808 227.843 358.911 228.328 357.968 228.75C355.735 229.654 353.392 230.295 351.063 230.907C348.551 231.563 346.041 232.163 343.478 232.556C339.087 233.028 334.659 232.78 330.272 232.255C326.674 231.684 323.184 230.702 319.664 229.766C317.882 229.29 316.094 228.85 314.309 228.394C313.771 228.255 313.231 228.134 312.692 228.017C310.719 227.589 308.736 227.285 306.721 227.021C304.909 226.781 303.096 226.545 301.278 226.337C299.165 226.096 297.068 225.908 294.947 225.76C292.981 225.624 291.011 225.46 289.05 225.272C288.242 225.193 287.439 225.091 286.638 225.021C288.507 226.488 290.346 227.999 292.18 229.515C295.123 231.947 298.05 234.399 301.042 236.742C305.422 240.051 310.002 243.048 315.023 245.298C317.839 246.403 320.738 247.256 323.721 247.784C327.247 247.977 330.772 247.65 334.246 247.039C335.887 246.747 337.474 246.218 339.026 245.626C341.16 244.81 343.238 243.841 345.271 242.805C346.979 241.936 348.588 240.896 350.2 239.872C352.117 238.65 353.869 237.21 355.651 235.806C357.169 234.609 358.649 233.359 360.031 232.014C361.454 230.629 362.773 229.143 363.92 227.505Z" fill="#9F8FFA"/>
<path d="M400.498 148.506C400.489 148.478 400.477 148.452 400.467 148.425C400.271 147.882 399.936 147.38 399.599 147.041C399.464 146.906 399.321 146.81 399.179 146.709C399.111 146.66 399.046 146.599 398.978 146.557C398.833 146.47 398.685 146.408 398.537 146.346C398.478 146.322 398.421 146.287 398.362 146.266C398.16 146.194 397.957 146.142 397.753 146.101C397.748 146.1 397.742 146.098 397.737 146.097C397.523 146.055 397.309 146.027 397.098 146.005L396.917 145.981C396.918 145.981 396.918 145.981 396.918 145.98V145.98C397.095 145.398 397.259 144.874 397.432 144.403C397.669 143.907 397.934 143.448 398.235 142.999C398.254 142.972 398.269 142.943 398.288 142.915L398.288 142.915C398.306 142.895 398.324 142.879 398.341 142.859C398.381 142.814 398.421 142.775 398.46 142.732C398.722 142.447 398.984 142.188 399.257 141.962L399.353 141.89L399.354 141.891L399.496 141.963C399.623 142.047 399.755 142.118 399.889 142.181C399.914 142.192 399.938 142.199 399.963 142.209C400.306 142.358 400.667 142.44 401.027 142.44C401.358 142.44 401.676 142.352 401.986 142.222C402.097 142.175 402.212 142.142 402.32 142.078C402.765 141.821 403.109 141.443 403.335 141.008C403.561 140.573 403.668 140.081 403.636 139.595C403.615 139.271 403.533 138.949 403.383 138.647C403.341 138.376 403.276 138.113 403.198 137.85C403.177 137.779 403.15 137.706 403.125 137.635C403.044 137.393 402.955 137.152 402.838 136.903C402.758 136.728 402.666 136.562 402.57 136.397C402.227 135.815 401.786 135.278 401.244 134.688C400.737 134.136 400.129 133.669 399.448 133.268C399.438 133.261 399.428 133.254 399.417 133.248C399.357 133.212 399.306 133.168 399.244 133.134C398.473 132.708 397.598 132.375 396.626 132.139C396.188 132.031 395.748 131.952 395.3 131.9C394.861 131.848 394.415 131.822 393.954 131.822C393.024 131.822 392.013 131.926 390.767 132.147C390.494 132.196 390.201 132.274 389.897 132.366C389.517 132.481 389.116 132.622 388.675 132.808C387.547 133.271 386.71 133.661 385.96 134.073C383.199 135.561 380.57 137.334 378.029 139.048L377.781 139.22L376.782 139.904L376.622 140.012C375.032 141.093 373.398 142.203 371.698 143.109C371.137 143.026 370.62 142.966 370.129 142.917C369.773 142.883 369.425 142.852 369.111 142.835C369.063 142.831 369.016 142.831 368.968 142.831C368.336 142.831 367.727 143.039 367.201 143.393C366.598 143.799 366.104 144.4 365.825 145.135C366.306 145.382 366.739 145.611 367.151 145.833C367.51 146.026 367.853 146.214 368.173 146.397C368.392 146.522 368.604 146.645 368.809 146.768L369.118 146.957L369.27 147.052L369.447 147.165L369.622 147.276C369.97 147.498 370.306 147.723 370.635 147.948C371.72 148.692 372.702 149.451 373.56 150.213C373.746 150.377 373.951 150.556 374.158 150.737C374.648 151.165 375.188 151.63 375.755 152.106C376.142 152.431 376.535 152.758 376.934 153.079C378.316 154.109 379.685 155.026 381.058 155.84C382.432 156.655 383.811 157.368 385.214 157.991C385.399 158.066 385.587 158.139 385.776 158.207C385.913 158.231 386.05 158.24 386.188 158.259C386.486 158.3 386.785 158.344 387.081 158.372L387.283 158.395C387.466 158.412 387.647 158.431 387.832 158.456C388.108 158.492 388.33 158.5 388.547 158.5C389.07 158.5 389.588 158.437 390.003 158.387L390.256 158.351C390.773 158.286 391.271 158.215 391.769 158.13C392.09 158.075 392.41 158.02 392.736 157.939C392.746 157.936 392.757 157.931 392.768 157.929C393.447 157.765 394.113 157.474 394.712 157.204C394.714 157.203 394.715 157.203 394.717 157.202C394.752 157.186 394.792 157.17 394.827 157.154L395.132 157.018L395.565 156.823C395.702 156.764 395.824 156.685 395.951 156.613C395.957 156.609 395.963 156.606 395.969 156.603C396.258 156.436 396.53 156.256 396.754 156.092C397.413 155.613 397.943 155.169 398.456 154.623C398.568 154.503 398.682 154.386 398.794 154.254C398.98 154.033 399.166 153.798 399.359 153.529C399.365 153.52 399.368 153.512 399.374 153.503C399.551 153.254 399.696 153 399.826 152.741C399.863 152.667 399.899 152.591 399.933 152.517C400.329 151.639 400.511 150.687 400.633 149.538C400.668 149.201 400.612 148.847 400.498 148.506ZM393.993 142.028C393.565 142.603 393.22 143.237 392.931 143.971C392.818 144.257 392.712 144.555 392.615 144.876C392.547 145.089 392.489 145.314 392.441 145.535C392.166 145.472 391.893 145.403 391.619 145.336C391.594 145.33 391.568 145.323 391.542 145.317C391.326 145.264 391.109 145.214 390.892 145.16L390.846 145.148L390.77 145.129C390.252 144.997 389.731 144.865 389.21 144.741C387.337 144.315 385.397 144.133 383.715 144.039C383.265 144.014 382.822 143.992 382.418 143.976C382.035 143.968 381.598 143.939 381.087 143.891C381.024 143.885 380.962 143.879 380.897 143.872C380.728 143.856 380.555 143.837 380.37 143.816C380.37 143.816 380.371 143.815 380.372 143.815C381.416 143.499 382.38 143.21 383.302 142.945C385.329 142.363 387.13 141.91 388.982 141.627C390.53 141.436 391.911 141.297 393.197 141.2C393.245 141.196 393.294 141.192 393.343 141.189C393.472 141.179 393.606 141.168 393.733 141.159C394.098 141.131 394.458 141.107 394.818 141.096C394.818 141.096 394.817 141.097 394.816 141.098C394.69 141.201 394.574 141.325 394.46 141.453C394.3 141.632 394.145 141.824 393.993 142.028Z" fill="#622814"/>
</svg>
