<svg width="150" height="31" viewBox="0 0 150 31" fill="none" xmlns="http://www.w3.org/2000/svg">
<g clip-path="url(#clip0_4106_43683)">
<path fill-rule="evenodd" clip-rule="evenodd" d="M30.5825 12.1341C30.7256 12.781 30.0832 13.2874 29.4666 13.0472L17.4629 8.3713C16.6831 8.06753 15.9637 8.92891 16.4 9.64405L19.7584 15.1496C19.9294 15.4299 19.9294 15.7825 19.7584 16.0628L16.4 21.5683C15.9637 22.2834 16.6831 23.1447 17.4629 22.841L29.4145 18.1854C30.0363 17.9432 30.6815 18.4599 30.5266 19.1098C28.9026 25.9293 22.7797 31 15.4743 31C6.92806 31 0 24.0604 0 15.5C0 6.93959 6.92806 0 15.4743 0C22.8664 0 29.0481 5.19203 30.5825 12.1341Z" fill="#322FEB"/>
<path d="M43.2493 22.9681C41.8033 22.9681 40.5151 22.6767 39.3847 22.094C38.2545 21.4947 37.3652 20.6704 36.717 19.6215C36.0855 18.5728 35.7695 17.3823 35.7695 16.0503C35.7695 14.7017 36.0855 13.5113 36.717 12.4791C37.3652 11.4302 38.2545 10.6144 39.3847 10.0316C40.5151 9.43225 41.8033 9.13257 43.2493 9.13257C44.6622 9.13257 45.8921 9.43225 46.9393 10.0316C47.9865 10.6144 48.7593 11.4551 49.258 12.554L46.2411 14.1773C45.8921 13.5446 45.4517 13.0784 44.9198 12.7787C44.4045 12.4791 43.8394 12.3292 43.2244 12.3292C42.5595 12.3292 41.9612 12.4791 41.4293 12.7787C40.8974 13.0784 40.4735 13.503 40.1577 14.0524C39.8586 14.6018 39.7089 15.2678 39.7089 16.0503C39.7089 16.8328 39.8586 17.4988 40.1577 18.0482C40.4735 18.5976 40.8974 19.0222 41.4293 19.3218C41.9612 19.6215 42.5595 19.7714 43.2244 19.7714C43.8394 19.7714 44.4045 19.6299 44.9198 19.3469C45.4517 19.0472 45.8921 18.5728 46.2411 17.9233L49.258 19.5716C48.7593 20.6538 47.9865 21.4947 46.9393 22.094C45.8921 22.6767 44.6622 22.9681 43.2493 22.9681Z" fill="#322FEB"/>
<path d="M57.2082 22.9681C55.7788 22.9681 54.5071 22.6684 53.3935 22.0689C52.2965 21.4696 51.4238 20.6538 50.7756 19.6215C50.1441 18.5728 49.8281 17.3823 49.8281 16.0503C49.8281 14.7017 50.1441 13.5113 50.7756 12.4791C51.4238 11.4302 52.2965 10.6144 53.3935 10.0316C54.5071 9.43225 55.7788 9.13257 57.2082 9.13257C58.621 9.13257 59.8843 9.43225 60.9979 10.0316C62.1115 10.6144 62.9842 11.4218 63.6158 12.4541C64.2475 13.4864 64.5633 14.6851 64.5633 16.0503C64.5633 17.3823 64.2475 18.5728 63.6158 19.6215C62.9842 20.6538 62.1115 21.4696 60.9979 22.0689C59.8843 22.6684 58.621 22.9681 57.2082 22.9681ZM57.2082 19.7714C57.8564 19.7714 58.4381 19.6215 58.9534 19.3218C59.4687 19.0222 59.8759 18.5976 60.1751 18.0482C60.4744 17.4822 60.6239 16.8162 60.6239 16.0503C60.6239 15.2678 60.4744 14.6018 60.1751 14.0524C59.8759 13.503 59.4687 13.0784 58.9534 12.7787C58.4381 12.4791 57.8564 12.3292 57.2082 12.3292C56.5599 12.3292 55.9781 12.4791 55.4629 12.7787C54.9477 13.0784 54.5321 13.503 54.2163 14.0524C53.9172 14.6018 53.7675 15.2678 53.7675 16.0503C53.7675 16.8162 53.9172 17.4822 54.2163 18.0482C54.5321 18.5976 54.9477 19.0222 55.4629 19.3218C55.9781 19.6215 56.5599 19.7714 57.2082 19.7714Z" fill="#322FEB"/>
<path d="M83.8426 9.13257C84.9064 9.13257 85.8455 9.34901 86.6599 9.78189C87.491 10.1981 88.1392 10.8474 88.6046 11.7299C89.0867 12.5956 89.3276 13.7111 89.3276 15.0764V22.7683H85.4383V15.6757C85.4383 14.5935 85.2138 13.7944 84.7651 13.2782C84.3163 12.7621 83.6847 12.504 82.8702 12.504C82.3051 12.504 81.7981 12.6372 81.3494 12.9036C80.9005 13.1534 80.5515 13.5363 80.3022 14.0524C80.0529 14.5685 79.9282 15.2262 79.9282 16.0254V22.7683H76.0387V15.6757C76.0387 14.5935 75.8143 13.7944 75.3655 13.2782C74.9334 12.7621 74.3101 12.504 73.4956 12.504C72.9305 12.504 72.4235 12.6372 71.9748 12.9036C71.526 13.1534 71.1769 13.5363 70.9276 14.0524C70.6783 14.5685 70.5536 15.2262 70.5536 16.0254V22.7683H66.6641V9.33237H70.3791V13.0035L69.6809 11.9296C70.1464 11.0139 70.8029 10.323 71.6506 9.85681C72.5149 9.37398 73.4956 9.13257 74.5926 9.13257C75.8225 9.13257 76.8947 9.44891 77.8088 10.0816C78.7398 10.6976 79.3547 11.6466 79.6539 12.9286L78.2827 12.554C78.7314 11.5051 79.4461 10.6726 80.4269 10.0566C81.4241 9.44059 82.5627 9.13257 83.8426 9.13257Z" fill="#322FEB"/>
<path d="M99.5456 22.9681C98.4154 22.9681 97.4264 22.7184 96.5787 22.2189C95.7311 21.7194 95.0661 20.9619 94.5841 19.9462C94.1186 18.9139 93.886 17.6153 93.886 16.0503C93.886 14.4686 94.1104 13.17 94.5592 12.1544C95.0079 11.1388 95.6562 10.3813 96.5039 9.88179C97.3516 9.38232 98.3655 9.13257 99.5456 9.13257C100.809 9.13257 101.939 9.42393 102.936 10.0067C103.95 10.5727 104.748 11.3719 105.33 12.4042C105.928 13.4364 106.228 14.6518 106.228 16.0503C106.228 17.4655 105.928 18.6892 105.33 19.7215C104.748 20.7538 103.95 21.553 102.936 22.119C101.939 22.6851 100.809 22.9681 99.5456 22.9681ZM91.6172 27.6132V9.33237H95.3321V12.0795L95.2572 16.0753L95.5066 20.0461V27.6132H91.6172ZM98.8724 19.7714C99.5208 19.7714 100.094 19.6215 100.593 19.3218C101.108 19.0222 101.515 18.5976 101.814 18.0482C102.13 17.4822 102.288 16.8162 102.288 16.0503C102.288 15.2678 102.13 14.6018 101.814 14.0524C101.515 13.503 101.108 13.0784 100.593 12.7787C100.094 12.4791 99.5208 12.3292 98.8724 12.3292C98.2243 12.3292 97.6425 12.4791 97.1272 12.7787C96.612 13.0784 96.2047 13.503 95.9056 14.0524C95.6064 14.6018 95.4567 15.2678 95.4567 16.0503C95.4567 16.8162 95.6064 17.4822 95.9056 18.0482C96.2047 18.5976 96.612 19.0222 97.1272 19.3218C97.6425 19.6215 98.2243 19.7714 98.8724 19.7714Z" fill="#322FEB"/>
<path d="M127.165 22.9681C126.018 22.9681 124.913 22.8348 123.849 22.5684C122.802 22.2854 121.971 21.9358 121.355 21.5195L122.652 18.7225C123.267 19.1055 123.99 19.4219 124.821 19.6716C125.669 19.9045 126.5 20.0212 127.314 20.0212C128.212 20.0212 128.844 19.9129 129.209 19.6965C129.592 19.48 129.783 19.1803 129.783 18.7975C129.783 18.4812 129.633 18.2481 129.334 18.0981C129.051 17.9318 128.669 17.8069 128.187 17.7235C127.705 17.6403 127.173 17.5571 126.591 17.4738C126.026 17.3906 125.453 17.2824 124.871 17.1492C124.289 16.9993 123.757 16.7829 123.275 16.4998C122.793 16.2168 122.403 15.8339 122.103 15.3511C121.821 14.8682 121.68 14.2439 121.68 13.478C121.68 12.6289 121.921 11.8797 122.403 11.2304C122.901 10.5811 123.616 10.0733 124.547 9.70698C125.478 9.32403 126.591 9.13257 127.888 9.13257C128.802 9.13257 129.733 9.23247 130.68 9.43225C131.628 9.63205 132.417 9.92342 133.049 10.3063L131.752 13.0784C131.104 12.6955 130.448 12.4374 129.783 12.3043C129.134 12.1544 128.503 12.0795 127.888 12.0795C127.024 12.0795 126.392 12.196 125.993 12.4291C125.594 12.6622 125.395 12.9619 125.395 13.3282C125.395 13.6612 125.536 13.9109 125.819 14.0774C126.118 14.2439 126.508 14.3771 126.99 14.477C127.472 14.5769 127.996 14.6684 128.561 14.7517C129.143 14.8183 129.725 14.9265 130.306 15.0764C130.888 15.2262 131.412 15.4426 131.877 15.7257C132.359 15.9921 132.75 16.3667 133.049 16.8495C133.348 17.3157 133.498 17.9318 133.498 18.6975C133.498 19.5301 133.248 20.2709 132.75 20.9202C132.251 21.553 131.528 22.0523 130.581 22.4187C129.65 22.7849 128.511 22.9681 127.165 22.9681Z" fill="#322FEB"/>
<path d="M139.563 22.9681C138.416 22.9681 137.311 22.8348 136.247 22.5684C135.2 22.2854 134.369 21.9358 133.754 21.5195L135.05 18.7225C135.665 19.1055 136.388 19.4219 137.219 19.6716C138.067 19.9045 138.898 20.0212 139.713 20.0212C140.61 20.0212 141.242 19.9129 141.608 19.6965C141.99 19.48 142.181 19.1803 142.181 18.7975C142.181 18.4812 142.031 18.2481 141.732 18.0981C141.45 17.9318 141.067 17.8069 140.585 17.7235C140.103 17.6403 139.572 17.5571 138.99 17.4738C138.425 17.3906 137.851 17.2824 137.269 17.1492C136.688 16.9993 136.156 16.7829 135.674 16.4998C135.192 16.2168 134.801 15.8339 134.502 15.3511C134.219 14.8682 134.078 14.2439 134.078 13.478C134.078 12.6289 134.319 11.8797 134.801 11.2304C135.3 10.5811 136.014 10.0733 136.945 9.70698C137.876 9.32403 138.99 9.13257 140.286 9.13257C141.2 9.13257 142.131 9.23247 143.079 9.43225C144.026 9.63205 144.816 9.92342 145.447 10.3063L144.151 13.0784C143.503 12.6955 142.846 12.4374 142.181 12.3043C141.533 12.1544 140.901 12.0795 140.286 12.0795C139.422 12.0795 138.79 12.196 138.391 12.4291C137.992 12.6622 137.793 12.9619 137.793 13.3282C137.793 13.6612 137.934 13.9109 138.217 14.0774C138.516 14.2439 138.907 14.3771 139.389 14.477C139.871 14.5769 140.394 14.6684 140.959 14.7517C141.541 14.8183 142.123 14.9265 142.705 15.0764C143.286 15.2262 143.81 15.4426 144.275 15.7257C144.757 15.9921 145.148 16.3667 145.447 16.8495C145.746 17.3157 145.896 17.9318 145.896 18.6975C145.896 19.5301 145.647 20.2709 145.148 20.9202C144.649 21.553 143.926 22.0523 142.979 22.4187C142.048 22.7849 140.909 22.9681 139.563 22.9681Z" fill="#322FEB"/>
<path d="M114.883 11.3119L119.319 19.7039C119.722 20.4679 118.894 21.2937 118.133 20.8857L114.513 18.9448C114.248 18.8031 113.93 18.807 113.669 18.955L107.883 22.2394L113.329 11.33C113.647 10.6929 114.55 10.6824 114.883 11.3119Z" fill="#322FEB"/>
<path d="M102.809 29.222L103.456 25.9731H103.875L103.565 27.51L103.412 28.0398L103.346 28.539L103.206 29.222H102.809ZM104.142 29.2483C103.944 29.2483 103.773 29.2133 103.63 29.1432C103.491 29.0702 103.383 28.9665 103.307 28.8323C103.231 28.695 103.193 28.5302 103.193 28.3376C103.193 28.1214 103.221 27.9244 103.276 27.7464C103.332 27.5654 103.413 27.4107 103.521 27.2823C103.632 27.1538 103.763 27.0546 103.915 26.9846C104.066 26.9145 104.238 26.8795 104.43 26.8795C104.628 26.8795 104.803 26.9189 104.955 26.9977C105.109 27.0765 105.23 27.1918 105.318 27.3436C105.408 27.4925 105.453 27.6704 105.453 27.8778C105.453 28.0762 105.42 28.2587 105.353 28.4251C105.289 28.5915 105.197 28.736 105.077 28.8586C104.961 28.9812 104.822 29.0775 104.662 29.1476C104.502 29.2147 104.328 29.2483 104.142 29.2483ZM104.124 28.8805C104.299 28.8805 104.454 28.8381 104.588 28.7535C104.725 28.6687 104.832 28.5535 104.911 28.4076C104.99 28.2587 105.029 28.0894 105.029 27.8997C105.029 27.6953 104.969 27.5363 104.85 27.4224C104.731 27.3056 104.56 27.2473 104.339 27.2473C104.167 27.2473 104.011 27.2895 103.871 27.3743C103.734 27.4559 103.626 27.5713 103.547 27.7202C103.472 27.8661 103.434 28.0354 103.434 28.2281C103.434 28.4295 103.493 28.5885 103.613 28.7053C103.732 28.822 103.903 28.8805 104.124 28.8805ZM105.558 30.0977C105.447 30.0977 105.338 30.0786 105.23 30.0408C105.122 30.0058 105.038 29.956 104.977 29.8919L105.195 29.5811C105.245 29.6306 105.303 29.6686 105.37 29.6949C105.434 29.724 105.507 29.7387 105.589 29.7387C105.685 29.7387 105.771 29.7124 105.847 29.6599C105.925 29.6101 106.005 29.5212 106.087 29.3928L106.306 29.0556L106.354 29.0075L107.678 26.9014H108.102L106.459 29.476C106.356 29.6336 106.26 29.7576 106.17 29.8481C106.08 29.9385 105.985 30.0028 105.886 30.0408C105.79 30.0786 105.681 30.0977 105.558 30.0977ZM106.227 29.2964L105.646 26.9014H106.065L106.559 28.9681L106.227 29.2964ZM108.947 29.222L109.406 26.9014H109.808L109.677 27.5757L109.633 27.4093C109.741 27.2137 109.878 27.0765 110.044 26.9977C110.21 26.9189 110.415 26.8795 110.66 26.8795L110.581 27.2867C110.564 27.2837 110.546 27.2823 110.529 27.2823C110.511 27.2823 110.492 27.2823 110.472 27.2823C110.242 27.2823 110.051 27.345 109.899 27.4706C109.751 27.596 109.65 27.793 109.598 28.0617L109.366 29.222H108.947ZM111.663 29.2483C111.436 29.2483 111.239 29.2073 111.073 29.1257C110.907 29.0409 110.778 28.9243 110.688 28.7754C110.598 28.6236 110.553 28.4454 110.553 28.2412C110.553 27.9785 110.609 27.7449 110.723 27.5407C110.837 27.3363 110.991 27.1757 111.186 27.059C111.385 26.9392 111.609 26.8795 111.86 26.8795C112.069 26.8795 112.252 26.9203 112.406 27.0021C112.561 27.0809 112.68 27.1948 112.764 27.3436C112.852 27.4925 112.896 27.672 112.896 27.8822C112.896 27.9347 112.893 27.9887 112.887 28.0442C112.881 28.0967 112.874 28.1463 112.865 28.1931H110.859L110.911 27.8866H112.664L112.493 27.9916C112.52 27.8281 112.508 27.6909 112.458 27.5801C112.409 27.4662 112.33 27.3801 112.222 27.3217C112.117 27.2604 111.991 27.2298 111.842 27.2298C111.667 27.2298 111.513 27.272 111.379 27.3568C111.248 27.4384 111.146 27.5538 111.073 27.7027C111 27.8486 110.963 28.0207 110.963 28.2193C110.963 28.4295 111.023 28.5929 111.143 28.7097C111.265 28.8236 111.45 28.8805 111.698 28.8805C111.844 28.8805 111.979 28.857 112.104 28.8104C112.23 28.7607 112.333 28.695 112.415 28.6134L112.594 28.9155C112.483 29.0234 112.345 29.1066 112.179 29.1651C112.013 29.2204 111.841 29.2483 111.663 29.2483ZM116.394 26.8795C116.601 26.8795 116.771 26.9203 116.906 27.0021C117.039 27.0837 117.133 27.2035 117.185 27.3611C117.241 27.5158 117.245 27.7027 117.198 27.9216L116.941 29.222H116.521L116.779 27.9216C116.822 27.7114 116.803 27.5478 116.722 27.4312C116.643 27.3144 116.499 27.2561 116.289 27.2561C116.076 27.2561 115.9 27.3158 115.76 27.4356C115.62 27.5552 115.526 27.7377 115.476 27.9829L115.227 29.222H114.807L115.07 27.9216C115.11 27.7114 115.09 27.5478 115.008 27.4312C114.93 27.3144 114.785 27.2561 114.576 27.2561C114.363 27.2561 114.187 27.3174 114.047 27.44C113.907 27.5596 113.812 27.7449 113.763 27.996L113.518 29.222H113.098L113.557 26.9014H113.959L113.828 27.5669L113.75 27.3874C113.857 27.2123 113.993 27.0837 114.156 27.0021C114.322 26.9203 114.506 26.8795 114.707 26.8795C114.864 26.8795 115.001 26.9058 115.118 26.9583C115.234 27.0109 115.326 27.0897 115.393 27.1948C115.463 27.2969 115.504 27.4209 115.515 27.5669L115.288 27.5231C115.408 27.307 115.561 27.1466 115.747 27.0415C115.937 26.9334 116.152 26.8795 116.394 26.8795ZM118.67 29.2483C118.448 29.2483 118.256 29.2073 118.093 29.1257C117.933 29.0409 117.807 28.9243 117.717 28.7754C117.627 28.6236 117.582 28.447 117.582 28.2456C117.582 27.9829 117.64 27.7493 117.756 27.545C117.873 27.3377 118.033 27.1757 118.237 27.059C118.444 26.9392 118.679 26.8795 118.941 26.8795C119.16 26.8795 119.35 26.9203 119.514 27.0021C119.677 27.0837 119.802 27.1991 119.89 27.348C119.98 27.4969 120.025 27.6734 120.025 27.8778C120.025 28.1405 119.967 28.3754 119.85 28.5827C119.734 28.787 119.573 28.949 119.369 29.0688C119.168 29.1884 118.935 29.2483 118.67 29.2483ZM118.696 28.8805C118.871 28.8805 119.027 28.8381 119.164 28.7535C119.301 28.6687 119.407 28.5535 119.483 28.4076C119.562 28.2587 119.601 28.0894 119.601 27.8997C119.601 27.6953 119.541 27.5363 119.422 27.4224C119.302 27.3056 119.132 27.2473 118.91 27.2473C118.738 27.2473 118.584 27.2895 118.447 27.3743C118.31 27.4559 118.202 27.5713 118.124 27.7202C118.045 27.8661 118.006 28.0354 118.006 28.2281C118.006 28.4295 118.065 28.5885 118.185 28.7053C118.304 28.822 118.475 28.8805 118.696 28.8805ZM121.025 29.2483C120.885 29.2483 120.764 29.2176 120.662 29.1563C120.563 29.095 120.492 29.0075 120.448 28.8936C120.407 28.7798 120.401 28.6454 120.431 28.4908L120.85 26.3935H121.27L120.85 28.482C120.83 28.6074 120.841 28.7082 120.885 28.7842C120.932 28.857 121.018 28.8936 121.143 28.8936C121.201 28.8936 121.26 28.8849 121.318 28.8674C121.376 28.8469 121.429 28.8192 121.475 28.7842L121.563 29.1038C121.484 29.1591 121.397 29.1971 121.3 29.2176C121.207 29.238 121.115 29.2483 121.025 29.2483ZM120.286 27.2473L120.352 26.9014H121.834L121.764 27.2473H120.286ZM122.937 29.2483C122.71 29.2483 122.513 29.2073 122.347 29.1257C122.181 29.0409 122.053 28.9243 121.963 28.7754C121.872 28.6236 121.827 28.4454 121.827 28.2412C121.827 27.9785 121.884 27.7449 121.998 27.5407C122.111 27.3363 122.266 27.1757 122.461 27.059C122.659 26.9392 122.884 26.8795 123.134 26.8795C123.344 26.8795 123.526 26.9203 123.68 27.0021C123.835 27.0809 123.954 27.1948 124.039 27.3436C124.126 27.4925 124.17 27.672 124.17 27.8822C124.17 27.9347 124.167 27.9887 124.161 28.0442C124.156 28.0967 124.148 28.1463 124.139 28.1931H122.133L122.186 27.8866H123.938L123.768 27.9916C123.794 27.8281 123.782 27.6909 123.733 27.5801C123.683 27.4662 123.605 27.3801 123.497 27.3217C123.392 27.2604 123.265 27.2298 123.117 27.2298C122.942 27.2298 122.787 27.272 122.653 27.3568C122.522 27.4384 122.42 27.5538 122.347 27.7027C122.274 27.8486 122.238 28.0207 122.238 28.2193C122.238 28.4295 122.298 28.5929 122.417 28.7097C122.54 28.8236 122.725 28.8805 122.972 28.8805C123.118 28.8805 123.253 28.857 123.379 28.8104C123.504 28.7607 123.608 28.695 123.689 28.6134L123.868 28.9155C123.758 29.0234 123.619 29.1066 123.453 29.1651C123.287 29.2204 123.115 29.2483 122.937 29.2483ZM125.931 29.222L125.49 26.9014H125.87L126.259 29.0031H126.062L127.26 26.9014H127.618L128.016 29.0031H127.82L129.004 26.9014H129.402L128.104 29.222H127.693L127.304 27.3042H127.43L126.333 29.222H125.931ZM130.244 29.2483C130.023 29.2483 129.83 29.2073 129.667 29.1257C129.507 29.0409 129.382 28.9243 129.291 28.7754C129.201 28.6236 129.156 28.447 129.156 28.2456C129.156 27.9829 129.214 27.7493 129.331 27.545C129.447 27.3377 129.608 27.1757 129.812 27.059C130.018 26.9392 130.253 26.8795 130.515 26.8795C130.734 26.8795 130.925 26.9203 131.088 27.0021C131.251 27.0837 131.377 27.1991 131.464 27.348C131.554 27.4969 131.599 27.6734 131.599 27.8778C131.599 28.1405 131.541 28.3754 131.425 28.5827C131.308 28.787 131.148 28.949 130.944 29.0688C130.743 29.1884 130.51 29.2483 130.244 29.2483ZM130.271 28.8805C130.445 28.8805 130.601 28.8381 130.738 28.7535C130.875 28.6687 130.982 28.5535 131.057 28.4076C131.136 28.2587 131.175 28.0894 131.175 27.8997C131.175 27.6953 131.116 27.5363 130.996 27.4224C130.877 27.3056 130.706 27.2473 130.485 27.2473C130.313 27.2473 130.158 27.2895 130.021 27.3743C129.885 27.4559 129.777 27.5713 129.698 27.7202C129.619 27.8661 129.58 28.0354 129.58 28.2281C129.58 28.4295 129.64 28.5885 129.759 28.7053C129.879 28.822 130.049 28.8805 130.271 28.8805ZM131.804 29.222L132.263 26.9014H132.665L132.534 27.5757L132.49 27.4093C132.598 27.2137 132.735 27.0765 132.901 26.9977C133.067 26.9189 133.273 26.8795 133.517 26.8795L133.439 27.2867C133.421 27.2837 133.404 27.2823 133.386 27.2823C133.369 27.2823 133.35 27.2823 133.329 27.2823C133.099 27.2823 132.908 27.345 132.757 27.4706C132.608 27.596 132.508 27.793 132.455 28.0617L132.223 29.222H131.804ZM133.899 28.6353L133.987 28.123L135.53 26.9014H136.12L134.826 27.9216L134.603 28.088L133.899 28.6353ZM133.436 29.222L134.083 25.9731H134.502L133.855 29.222H133.436ZM135.224 29.222L134.533 28.0924L134.817 27.7727L135.709 29.222H135.224ZM138.819 26.157H139.256L138.644 29.222H138.207L138.819 26.157ZM136.449 29.222H136.012L136.624 26.157H137.061L136.449 29.222ZM138.521 27.8559H136.686L136.76 27.475H138.596L138.521 27.8559ZM140.176 27.4794H141.75L141.675 27.8515H140.102L140.176 27.4794ZM139.94 28.8411H141.728L141.654 29.222H139.429L140.041 26.157H142.2L142.126 26.538H140.399L139.94 28.8411ZM142.226 29.222L142.838 26.157H143.979C144.337 26.157 144.614 26.2359 144.809 26.3935C145.007 26.5511 145.106 26.7714 145.106 27.0546C145.106 27.3114 145.048 27.5319 144.932 27.7158C144.818 27.8997 144.653 28.0412 144.438 28.1405C144.222 28.2368 143.966 28.285 143.668 28.285H142.667L142.89 28.0836L142.667 29.222H142.226ZM144.285 29.222L143.655 28.1099H144.123L144.748 29.222H144.285ZM142.881 28.1318L142.733 27.9128H143.681C143.993 27.9128 144.235 27.8442 144.407 27.707C144.582 27.5669 144.669 27.3625 144.669 27.094C144.669 26.9101 144.607 26.7714 144.481 26.6781C144.356 26.5846 144.175 26.538 143.939 26.538H143.021L143.244 26.3147L142.881 28.1318Z" fill="#322FEB"/>
</g>
<defs>
<clipPath id="clip0_4106_43683">
<rect width="146" height="31" fill="white"/>
</clipPath>
</defs>
</svg>
