<svg width="40" height="40" viewBox="0 0 40 40" fill="none" xmlns="http://www.w3.org/2000/svg">
<path fill-rule="evenodd" clip-rule="evenodd" d="M39.3803 15.6569C39.5644 16.4916 38.7372 17.145 37.9434 16.8351L22.4864 10.8017C21.4823 10.4097 20.5561 11.5212 21.1178 12.4439L25.4424 19.5478C25.6626 19.9095 25.6626 20.3645 25.4424 20.7261L21.1178 27.8301C20.5561 28.7528 21.4823 29.8642 22.4864 29.4723L37.8763 23.4651C38.6769 23.1525 39.5077 23.8192 39.3082 24.6579C37.217 33.4572 29.3327 40 19.9258 40C8.92106 40 0 31.0456 0 20C0 8.9543 8.92106 0 19.9258 0C29.4444 0 37.4043 6.69939 39.3803 15.6569Z" fill="#322FEB"/>
</svg>
