<svg width="20" height="20" viewBox="0 0 20 20" fill="none" xmlns="http://www.w3.org/2000/svg">
<path d="M3.05469 10.0001C3.05469 13.8354 6.16382 16.9446 9.99913 16.9446C13.8344 16.9446 16.9436 13.8354 16.9436 10.0001C16.9436 6.1648 13.8344 3.05566 9.99913 3.05566V4.44455C13.0674 4.44455 15.5547 6.93186 15.5547 10.0001C15.5547 13.0684 13.0674 15.5557 9.99913 15.5557C6.93088 15.5557 4.44358 13.0684 4.44358 10.0001C4.44358 8.09054 5.40701 6.40599 6.8743 5.40602L6.87413 7.22233H8.26302V3.05566H4.09635V4.44455L5.8319 4.44448C4.14549 5.71146 3.05469 7.72839 3.05469 10.0001Z" fill="#161A21"/>
</svg>
