<svg width="285" height="298" viewBox="0 0 285 298" fill="none" xmlns="http://www.w3.org/2000/svg">
<mask id="mask0_4653_319899" style="mask-type:luminance" maskUnits="userSpaceOnUse" x="0" y="0" width="285" height="326">
<path d="M285 0H0V325.915H285V0Z" fill="white"/>
</mask>
<g mask="url(#mask0_4653_319899)">
<path d="M54.0586 292.355C50.2265 296.656 17.6591 335.741 9.92707 349.776C8.50804 352.353 60.2752 396.132 65.6319 397.264C70.988 398.395 141.753 397.949 142.994 395.49C147.534 386.5 148.451 329.946 148.451 329.946L54.0586 292.355Z" fill="#4573CA"/>
<path d="M185.65 159.736C172.859 154.937 139.876 145.902 139.876 145.902L49.9141 293.05C49.9141 293.05 61.4775 319.566 91.744 331.278C122.01 342.99 140.024 336.963 140.024 336.963C140.024 336.963 160.12 272.434 173.949 225.973C187.778 179.513 185.65 159.736 185.65 159.736Z" fill="white"/>
<path d="M185.559 159.703C184.948 167.892 180.539 175.868 173.525 180.209C163.596 186.357 149.459 184.585 141.35 176.173C135.923 170.542 133.573 162.323 134.562 154.594L132.039 158.72C132.196 165.741 134.792 172.726 139.674 177.79C147.747 186.166 161.299 188.503 171.839 183.738C172.839 183.287 173.812 182.77 174.752 182.189C179.595 179.191 183.296 174.602 185.532 169.372C185.976 162.818 185.65 159.736 185.65 159.736C185.621 159.726 185.588 159.714 185.559 159.703Z" fill="#F8E8E0"/>
<path d="M97.2599 22.1562C79.2641 23.5244 48.1809 33.1944 51.8377 71.4705C54.696 92.4849 67.1746 140.659 68.3095 146.198C70.3445 156.134 20.014 227.845 20.7702 248.242C21.0557 255.95 27.7747 266.097 27.0818 267.822C24.7698 273.572 23.2432 277.762 22.8945 279.668C20.6991 291.665 38.5156 310.902 44.0953 313.883C49.675 316.862 139.877 145.904 139.877 145.904C139.877 145.904 104.446 43.4939 97.2599 22.1562Z" fill="#E285C7"/>
<path d="M43.297 255.454C43.1282 255.454 42.9652 255.388 42.8427 255.27L26.1858 239.061C25.9276 238.81 25.9218 238.398 26.1727 238.14C26.4243 237.882 26.8363 237.876 27.0944 238.127L43.1458 253.747L60.2863 223.502C60.4643 223.189 60.8619 223.08 61.1747 223.256C61.4883 223.433 61.5978 223.831 61.4205 224.144L43.8628 255.124C43.763 255.3 43.5877 255.419 43.3876 255.448C43.3583 255.452 43.3276 255.454 43.297 255.454Z" fill="#C164A6"/>
<path d="M185.65 159.738C181.848 207.591 127.18 343.195 127.898 351.335C128.615 359.476 149.109 373.914 154.539 371.882C159.97 369.85 169.537 357.31 169.537 357.31C169.537 357.31 192.883 366.822 204.423 358.643C215.962 350.463 225.309 214.608 225.309 214.608L185.65 159.738Z" fill="#E285C7"/>
<path d="M74.6829 147.694C74.4971 147.694 74.3087 147.664 74.1191 147.603C71.2562 146.679 68.7089 138.027 68.2272 136.302C68.1307 135.956 68.3334 135.596 68.6795 135.499C69.0256 135.4 69.3861 135.605 69.4826 135.952C70.5249 139.685 72.8141 145.813 74.5186 146.363C74.6516 146.405 74.8028 146.421 75.0192 146.247C76.2069 145.298 75.6828 134.587 75.2995 126.765C74.7761 116.071 74.2813 105.971 75.9018 103.009C76.0745 102.693 76.4708 102.577 76.787 102.75C77.1025 102.923 77.2192 103.319 77.0458 103.635C75.6013 106.274 76.1332 117.127 76.6019 126.701C77.255 140.05 77.3802 146.029 75.8327 147.265C75.4781 147.55 75.087 147.694 74.6829 147.694Z" fill="#C164A6"/>
<path d="M194.891 278.092C184.624 331.266 190.901 348.694 195.164 361.784C198.582 361.43 201.805 360.492 204.419 358.639C204.769 358.391 205.116 358.02 205.461 357.545C194.536 340.86 192.696 308.954 194.891 278.092Z" fill="#C164A6"/>
<path d="M193.213 191.604C194.24 193.875 193.231 196.549 190.96 197.576C188.689 198.602 186.015 197.593 184.988 195.322C183.962 193.051 184.971 190.378 187.242 189.351C189.513 188.324 192.187 189.333 193.213 191.604ZM175.616 224.248C173.345 225.275 172.336 227.948 173.362 230.219C174.389 232.49 177.062 233.499 179.334 232.473C181.605 231.446 182.614 228.773 181.587 226.501C180.56 224.23 177.887 223.221 175.616 224.248ZM165.434 259.667C163.163 260.693 162.154 263.366 163.18 265.638C164.207 267.909 166.88 268.918 169.152 267.891C171.423 266.865 172.432 264.192 171.405 261.92C170.378 259.648 167.705 258.64 165.434 259.667ZM153.223 293.837C150.952 294.863 149.943 297.537 150.969 299.808C151.996 302.079 154.67 303.088 156.941 302.062C159.212 301.035 160.221 298.361 159.194 296.09C158.168 293.819 155.494 292.81 153.223 293.837ZM142.477 327.693C140.206 328.72 139.197 331.393 140.224 333.664C141.251 335.935 143.924 336.944 146.195 335.918C148.466 334.891 149.475 332.218 148.449 329.946C147.422 327.675 144.749 326.666 142.477 327.693Z" fill="#C164A6"/>
<path d="M117.964 157.201C118.843 157.119 119.626 157.234 120.381 157.407C121.132 157.589 121.845 157.85 122.526 158.175C123.208 158.499 123.854 158.897 124.464 159.372C125.069 159.855 125.644 160.399 126.121 161.147C126.528 161.784 126.341 162.629 125.704 163.036C125.52 163.154 125.311 163.223 125.107 163.244C124.224 163.334 123.44 163.221 122.686 163.046C121.935 162.863 121.223 162.603 120.545 162.27C119.867 161.938 119.22 161.54 118.612 161.065C118.007 160.581 117.431 160.038 116.95 159.298C116.541 158.668 116.719 157.825 117.35 157.415C117.539 157.292 117.754 157.221 117.964 157.201ZM100.752 187.045C100.103 187.45 99.9053 188.305 100.31 188.954C100.757 189.669 101.296 190.186 101.863 190.644C102.434 191.093 103.043 191.464 103.682 191.768C104.321 192.074 104.993 192.307 105.704 192.461C106.418 192.608 107.16 192.693 107.999 192.574C108.18 192.547 108.365 192.484 108.531 192.382C109.187 191.98 109.393 191.122 108.991 190.466C108.549 189.744 108.01 189.225 107.442 188.769C106.87 188.32 106.262 187.95 105.619 187.653C104.977 187.354 104.303 187.122 103.593 186.967C102.879 186.822 102.137 186.735 101.302 186.847C101.115 186.873 100.923 186.939 100.752 187.045ZM85.6315 219.118C84.9445 219.455 84.6609 220.285 84.9979 220.972C85.3688 221.729 85.8531 222.297 86.3707 222.811C86.8934 223.316 87.4612 223.746 88.0661 224.114C88.6703 224.484 89.3163 224.784 90.0066 225.01C90.7014 225.229 91.4321 225.388 92.2789 225.355C92.4614 225.347 92.6524 225.303 92.8277 225.219C93.5213 224.886 93.8133 224.053 93.4802 223.36C93.1132 222.596 92.6302 222.025 92.1113 221.514C91.5886 221.009 91.0208 220.579 90.4114 220.218C89.8032 219.855 89.1572 219.555 88.4663 219.33C87.7701 219.112 87.0407 218.951 86.1986 218.977C86.0102 218.983 85.8127 219.029 85.6315 219.118ZM68.6272 248.118C67.9701 248.471 67.7231 249.29 68.0764 249.947C68.5033 250.741 69.0437 251.349 69.6179 251.902C70.1974 252.445 70.8219 252.915 71.4848 253.323C72.1464 253.732 72.8504 254.071 73.5993 254.337C74.3522 254.597 75.1416 254.796 76.0483 254.804C76.2634 254.805 76.4883 254.755 76.6916 254.648C77.3545 254.298 77.6094 253.478 77.26 252.815C76.8376 252.013 76.2986 251.403 75.723 250.853C75.1435 250.309 74.5184 249.839 73.8516 249.439C73.1861 249.037 72.4814 248.697 71.7325 248.431C70.9783 248.174 70.1903 247.972 69.2881 247.957C69.0672 247.955 68.8364 248.006 68.6272 248.118ZM48.863 281.744C48.2138 282.114 47.9876 282.94 48.3572 283.588C48.8017 284.369 49.3551 284.96 49.9405 285.494C50.531 286.02 51.1646 286.471 51.8347 286.858C52.5035 287.247 53.2127 287.566 53.9649 287.809C54.721 288.046 55.5117 288.222 56.4145 288.202C56.6276 288.197 56.8492 288.141 57.048 288.03C57.7031 287.664 57.9378 286.836 57.5715 286.181C57.1308 285.393 56.5787 284.8 55.9921 284.268C55.4015 283.742 54.7679 283.292 54.0939 282.912C53.4213 282.53 52.7114 282.212 51.9592 281.969C51.2018 281.734 50.4124 281.556 49.5142 281.568C49.2952 281.571 49.0677 281.628 48.863 281.744Z" fill="#C164A6"/>
<path d="M185.652 159.738C213.121 162.98 238.656 180.641 246.292 192.849C253.927 205.058 283.811 343.147 229.519 364.478C175.228 385.809 202.123 224.244 202.123 224.244L185.652 159.738Z" fill="#E285C7"/>
<path d="M151.871 348.83C151.809 348.83 151.747 348.822 151.686 348.804C151.341 348.702 151.144 348.339 151.246 347.994C158.309 324.106 165.863 300.774 173.168 278.208C184.224 244.053 194.668 211.791 202.707 180.095C202.796 179.745 203.151 179.537 203.5 179.623C203.848 179.712 204.059 180.067 203.971 180.415C195.921 212.152 185.471 244.433 174.408 278.61C167.107 301.166 159.556 324.492 152.496 348.363C152.412 348.647 152.152 348.83 151.871 348.83Z" fill="#C164A6"/>
<path d="M208.652 61.575C208.589 61.575 208.525 61.5659 208.462 61.5464C208.117 61.4408 207.923 61.0764 208.029 60.7322C210.69 52.0198 211.566 42.6289 210.564 33.573C210.524 33.2152 210.782 32.8932 211.14 32.8534C211.513 32.815 211.82 33.0724 211.86 33.4296C212.881 42.6596 211.987 52.2323 209.275 61.1129C209.19 61.3945 208.932 61.575 208.652 61.575Z" fill="#C164A6"/>
<path d="M51.6866 298.62C51.536 298.62 51.3841 298.568 51.2609 298.462C43.4904 291.746 36.9878 282.097 31.2503 273.582C30.6911 272.753 30.1396 271.935 29.5966 271.134C29.3946 270.835 29.4728 270.43 29.7707 270.228C30.0692 270.025 30.474 270.104 30.6761 270.402C31.2197 271.203 31.7718 272.023 32.3317 272.854C38.0235 281.3 44.4747 290.873 52.1135 297.475C52.386 297.71 52.4159 298.122 52.1806 298.394C52.0509 298.544 51.8691 298.62 51.6866 298.62Z" fill="#C164A6"/>
<path d="M169.462 48.0298C165.275 48.0298 156.426 43.9924 146.195 39.324C135.517 34.4522 123.415 28.9299 116.68 28.3713C116.322 28.3413 116.054 28.0264 116.084 27.6679C116.114 27.3088 116.429 27.037 116.788 27.0722C123.75 27.6497 135.435 32.9817 146.736 38.1376C156.413 42.5531 165.559 46.7262 169.457 46.7262C169.492 46.7262 169.527 46.7262 169.561 46.7249C169.997 46.7164 170.205 46.6571 170.293 46.6206C170.068 45.5353 165.412 42.0389 161.991 39.4706C154.538 33.8753 149.258 29.6906 149.202 26.7971C149.188 26.1055 149.475 25.5019 150.03 25.0502C150.311 24.8233 150.721 24.8657 150.948 25.1447C151.174 25.4243 151.132 25.8343 150.852 26.0618C150.607 26.2613 150.5 26.4803 150.506 26.7717C150.553 29.2532 157.616 34.5558 162.774 38.4277C169.527 43.4976 172.033 45.5555 171.549 47.0586C171.246 47.9953 169.998 48.0201 169.587 48.0285C169.547 48.0292 169.504 48.0298 169.462 48.0298Z" fill="#C164A6"/>
<path opacity="0.4" d="M161.812 391.642C130.391 326.116 115.932 252.543 120.218 179.999C120.946 167.688 122.28 155.118 127.584 143.984C130.365 146.409 133.814 148.983 136.596 151.408C125.714 233.139 140.299 317.842 181.393 389.324L161.812 391.642Z" fill="#8E79B0"/>
<path d="M164.031 379.731C132.61 314.206 118.151 240.633 122.437 168.089C123.164 155.778 124.498 143.208 129.803 132.074C132.584 134.499 136.033 137.073 138.814 139.498C127.933 221.229 142.517 305.932 183.611 377.414" fill="#ECBB2C"/>
<path d="M256.625 44.6613C255.682 44.0596 247.724 37.4592 245.862 36.9293C244 36.3993 220.602 36.2031 220.602 36.2031L222.622 58.8921C222.622 58.8921 234.516 71.3225 236.932 73.1385C239.348 74.9545 247.903 77.1609 249.172 77.1942C249.962 77.215 254.045 75.0464 257.017 73.4051C258.732 72.458 259.237 70.2307 258.102 68.6337C257.255 67.4421 255.722 66.9546 254.342 67.4382L248.504 69.4843L244.91 66.0987L249.594 66.8164L255.138 59.2121L255.104 46.7126L256.625 44.6613Z" fill="#BA623B"/>
<path d="M243.221 56.4442L253.153 55.5785L255.133 55.6528L255.108 46.7123L256.629 44.6617C255.703 44.0711 248.022 37.704 245.979 36.9688C245.527 43.7595 237.885 49.2792 237.885 49.2792C241.168 55.484 241.289 62.6046 241.289 62.6046C243.683 59.6342 243.221 56.4442 243.221 56.4442Z" fill="#9B3D2F"/>
<path d="M270.81 70.9571L249.578 66.8388C248.023 66.612 246.916 65.2099 247.057 63.6442C247.206 61.9886 248.689 60.7807 250.34 60.9685L271.589 64.8514C273.171 65.0313 274.327 66.4301 274.206 68.0174L274.188 68.2533C274.058 69.9631 272.507 71.2048 270.81 70.9571Z" fill="#BA623B"/>
<path d="M272.15 62.5528L254.016 61.9343C252.444 61.9388 251.143 60.714 251.052 59.1451C250.956 57.4855 252.244 56.0723 253.906 56.0156L272.023 56.3983C273.614 56.3435 274.963 57.5572 275.076 59.1451L275.093 59.381C275.216 61.0914 273.864 62.5476 272.15 62.5528Z" fill="#BA623B"/>
<path d="M255.452 56.2143L246.543 56.2332C244.972 56.2378 243.67 55.0136 243.579 53.444C243.483 51.7845 244.771 50.3713 246.433 50.3146L255.325 50.0604C256.916 50.0056 258.265 51.2193 258.378 52.8072L258.395 53.0432C258.519 54.7529 257.167 56.2091 255.452 56.2143Z" fill="#BA623B"/>
<path d="M255.221 50.4493L249.342 50.4643C247.77 50.4689 246.469 49.2441 246.378 47.6751C246.282 46.0156 247.57 44.6024 249.232 44.5457L255.094 44.2948C256.685 44.24 258.035 45.4537 258.149 47.0416L258.166 47.2775C258.288 48.9879 256.936 50.4441 255.221 50.4493Z" fill="#BA623B"/>
<path d="M207.033 30.9356C207.033 30.9356 218.145 27.9378 224.6 34.0076C228.095 37.2929 228.969 50.7786 224.094 60.3859C219.219 69.9926 201.596 65.1163 201.596 65.1163L207.033 30.9356Z" fill="#E285C7"/>
<path d="M104.071 56.6131C105.625 64.4162 107.788 75.775 109.196 83.6061C112.302 81.9407 113.927 77.282 115.001 76.9516C122.715 74.5822 190.697 79.9832 201.639 72.0687C212.582 64.1548 219.99 38.6676 208.113 25.9712C196.235 13.2749 97.2578 22.1534 97.2578 22.1534C99.4375 33.6583 101.786 45.1298 104.071 56.6131Z" fill="#E285C7"/>
<path d="M251.316 207.724C241.824 194.877 222.013 183.086 207.257 176.97C190.948 170.211 174.595 163.436 157.612 158.615C150.064 156.471 142.457 154.31 134.79 152.682C115.076 148.495 100.497 131.631 99.0311 111.531C99.0135 111.286 98.9959 111.043 98.9789 110.798C97.5671 90.3529 110.675 71.09 130.133 64.7614C172.364 51.0267 212.057 77.9408 239.689 107.295C252.374 120.77 260.813 138.182 263.592 156.475C266.286 174.211 259.643 192.177 251.316 207.724Z" fill="#202020"/>
<path d="M227.056 187.133C230.594 177.768 235.684 159.842 233.853 137.5C231.627 110.337 221.728 93.3484 214.018 84.1746C210.936 81.8788 207.775 79.6945 204.543 77.6484C227.535 95.609 232.136 154.237 216.922 181.451C220.266 183.157 223.688 185.064 227.056 187.133Z" fill="#474747"/>
<path d="M132.053 120.297C132.053 120.297 126.185 113.687 120.971 119.309C115.757 124.93 125.986 139.148 132.627 137.411C135.923 136.549 136.049 131.31 136.049 131.31L132.053 120.297Z" fill="#BA623B"/>
<path opacity="0.4" d="M122.449 123.738C126.818 124.232 130.938 127.355 132.416 131.539C132.669 132.254 132.747 133.059 132.475 133.766C132.203 134.473 131.532 135.05 130.777 135.063C129.712 135.082 128.926 134.075 128.459 133.112C127.657 131.456 127.249 129.611 127.278 127.772C126.106 126.447 124.049 124.485 122.449 123.738Z" fill="#6C3317"/>
<path d="M132.052 120.297C132.052 120.297 126.184 113.687 120.97 119.309C120.348 119.979 119.951 120.776 119.736 121.65C120.939 120.865 122.321 120.318 123.718 120.066C126.516 119.563 129.363 119.981 132.162 120.601L132.052 120.297Z" fill="#CC744F"/>
<path d="M186.26 108.494C186.26 108.494 188.848 100.043 195.928 102.988C203.007 105.933 199.616 123.117 192.853 124.298C189.497 124.884 187.204 120.172 187.204 120.172L186.26 108.494Z" fill="#BA623B"/>
<path opacity="0.4" d="M196.424 107.631C192.655 109.897 190.207 114.449 190.602 118.869C190.67 119.625 190.934 120.389 191.475 120.919C192.016 121.449 192.866 121.695 193.558 121.393C194.535 120.967 194.831 119.725 194.855 118.655C194.895 116.816 194.5 114.968 193.709 113.307C194.224 111.614 195.279 108.976 196.424 107.631Z" fill="#6C3317"/>
<path d="M186.26 108.494C186.26 108.494 188.848 100.043 195.928 102.988C196.772 103.34 197.465 103.899 198.023 104.605C196.604 104.391 195.118 104.467 193.743 104.82C190.989 105.525 188.574 107.089 186.286 108.817L186.26 108.494Z" fill="#CC744F"/>
<path d="M178.92 142.227L175.881 163.367C174.593 172.326 166.332 178.725 157.374 177.433C157.056 177.387 156.736 177.335 156.415 177.278C146.909 175.571 141.027 165.915 143.603 156.606L148.212 139.945L178.92 142.227Z" fill="#BA623B"/>
<path opacity="0.4" d="M143.197 163.62C155.597 163.399 167.938 159.029 177.619 151.271L178.919 142.229L170.533 141.605C165.537 141.856 160.541 142.107 155.546 142.359C152.751 142.499 149.907 142.658 147.241 143.453L143.602 156.607C142.948 158.968 142.841 161.35 143.197 163.62Z" fill="#6C3317"/>
<path d="M125.299 104.336C123.915 93.5333 129.07 78.4453 150.369 73.8082C171.667 69.1711 182.629 80.7495 185.861 91.1495C186.668 93.7464 187.793 98.5843 188.566 104.483C190.884 122.178 190.03 149.418 167.901 154.328C145.735 159.062 133.632 134.644 128.383 117.586C126.634 111.901 125.646 107.033 125.299 104.336Z" fill="#BA623B"/>
<path d="M167.902 154.328C159.018 156.225 151.754 153.435 145.896 148.318L144.932 151.806C150.445 155.935 157.108 157.996 165.071 156.295C169.161 155.387 172.52 153.713 175.271 151.481C173.126 152.74 170.682 153.71 167.902 154.328Z" fill="#202020"/>
<path d="M137.764 118.836C137.764 118.836 139.238 113.416 145.417 112.737C151.841 112.031 155.57 118.104 155.57 118.104C155.57 118.104 152.526 114.959 148.012 114.785C143.581 114.615 137.764 118.836 137.764 118.836Z" fill="#CC744F"/>
<path d="M159.778 119.643C160.52 117.371 166.691 125.507 166.691 125.507C166.691 125.507 165.138 128.986 162.081 129.651C159.024 130.317 156.08 127.601 156.08 127.601C156.08 127.601 157.594 126.328 159.778 119.643Z" fill="#BA623B"/>
<path d="M156.076 127.603C156.076 127.603 158.066 129.432 160.475 129.716C160.486 129.713 160.488 129.723 160.5 129.721C161.008 129.782 161.536 129.768 162.076 129.65C165.139 128.983 166.693 125.504 166.693 125.504C166.717 125.602 163.837 126.717 161.177 127.217C158.516 127.716 156.076 127.603 156.076 127.603Z" fill="#9B3D2F"/>
<path d="M164.685 127.676C164.984 127.439 165.335 127.265 165.699 127.113C165.243 127.714 164.628 128.367 163.857 128.877C163.994 128.424 164.28 127.997 164.685 127.676Z" fill="#77312E"/>
<path d="M180.553 109.518C180.553 109.518 176.958 105.202 171.057 107.153C164.921 109.181 164.055 116.255 164.055 116.255C164.055 116.255 165.515 112.129 169.549 110.094C173.506 108.098 180.553 109.518 180.553 109.518Z" fill="#CC744F"/>
<path d="M152.129 135.749C151.622 136.466 150.837 137.233 149.846 137.471C149.621 137.525 149.37 137.511 149.213 137.392C148.894 137.149 149.282 136.533 149.491 136.262C149.834 135.818 150.326 135.458 150.809 135.108C151.225 134.805 151.849 134.487 152.218 134.751C152.529 134.972 152.361 135.421 152.129 135.749Z" fill="#B35133"/>
<path d="M173.922 131.003C174.682 131.444 175.714 131.815 176.715 131.619C176.942 131.575 177.165 131.458 177.257 131.285C177.446 130.93 176.837 130.532 176.535 130.372C176.038 130.111 175.442 129.988 174.856 129.87C174.351 129.769 173.652 129.738 173.426 130.132C173.236 130.462 173.575 130.801 173.922 131.003Z" fill="#B35133"/>
<path d="M154.428 135.979C155.866 135.217 158.395 132.171 163.484 133.745C167.458 130.197 171.025 131.916 172.649 132.011C174.273 132.105 176.048 130.564 176.048 130.564C176.048 130.564 172.843 135.52 164.276 137.386C155.71 139.251 150.734 136.076 150.734 136.076C150.734 136.076 152.99 136.741 154.428 135.979Z" fill="#802727"/>
<path d="M152.286 136.583C152.286 136.583 154.817 138.689 164.118 136.664C173.54 134.612 174.845 131.671 174.845 131.671L176.047 130.566C176.047 130.566 173.718 139.76 165.197 141.615C156.675 143.471 150.734 136.078 150.734 136.078L152.286 136.583Z" fill="#802727"/>
<path d="M164.117 136.664C167.461 135.936 168.937 136.458 171.974 134.27C170.688 135.468 168.226 136.864 164.345 137.709C160.464 138.555 157.645 138.308 155.977 137.753C159.911 138.718 160.773 137.392 164.117 136.664Z" fill="#202020"/>
<path d="M175.47 124.105C175.846 125.829 178.14 126.792 180.596 126.257C183.052 125.722 184.739 123.892 184.363 122.169C183.988 120.445 181.693 119.482 179.237 120.017C176.782 120.551 175.095 122.382 175.47 124.105Z" fill="#CC744F"/>
<path d="M148.46 129.987C148.835 131.71 147.148 133.541 144.692 134.075C142.237 134.61 139.941 133.646 139.566 131.924C139.191 130.2 140.877 128.37 143.333 127.835C145.789 127.3 148.084 128.264 148.46 129.987Z" fill="#CC744F"/>
<path d="M161.312 103.658C161.394 103.475 161.729 103.181 162.239 102.823C161.816 104.274 161.68 105.468 161.83 106.275C161.83 106.275 162.012 104.404 163.029 102.305C165.174 100.97 168.866 99.1485 171.536 98.3865C175.387 97.2868 179.187 99.6797 179.577 100.204C179.966 100.729 176.238 100.322 175.04 100.757C173.842 101.192 162.659 109.07 161.838 108.355C160.591 107.268 160.922 104.527 161.312 103.658ZM180.959 100.184C181.101 100.195 179.085 98.5247 178.465 98.2229C177.847 97.9211 177.35 97.9126 177.072 97.9732C176.794 98.0338 178.897 99.0025 179.466 99.344C180.036 99.6862 180.959 100.184 180.959 100.184Z" fill="#202020"/>
<path d="M173.047 98.126C173.39 98.1013 173.727 98.1032 174.06 98.1202C172.861 99.0171 171.796 100.098 170.879 101.285C170.046 102.362 169.339 103.526 168.703 104.73C168.418 104.912 168.134 105.093 167.85 105.271C168.98 102.521 170.778 100.046 173.047 98.126Z" fill="#331111"/>
<path d="M165.756 103.039C166.083 102.069 166.471 101.114 166.936 100.202C167.812 99.786 168.712 99.393 169.577 99.0566C167.659 101.388 166.161 104.059 165.169 106.91C164.986 107.017 164.808 107.12 164.635 107.218C164.949 105.81 165.294 104.407 165.756 103.039Z" fill="#474747"/>
<path d="M154.295 109.995C153.846 110.987 140.4 108.471 139.13 108.574C137.859 108.676 134.637 110.597 134.773 109.958C134.91 109.319 137.371 105.563 141.331 104.962C144.075 104.545 148.19 104.666 150.696 104.988C152.493 106.475 153.437 108.101 153.437 108.101C153.238 107.305 152.619 106.275 151.63 105.132C152.243 105.245 152.669 105.373 152.821 105.506C153.537 106.134 154.977 108.489 154.295 109.995ZM134.516 109.13C134.891 108.583 136.402 106.827 136.124 106.888C135.846 106.948 135.398 107.162 134.96 107.694C134.523 108.226 133.383 110.583 133.507 110.514C133.507 110.514 134.14 109.678 134.516 109.13Z" fill="#202020"/>
<path d="M139.849 105.352C139.527 105.471 139.221 105.614 138.926 105.767C140.389 106.084 141.808 106.625 143.135 107.323C144.339 107.956 145.467 108.721 146.546 109.551C146.88 109.598 147.214 109.644 147.546 109.689C145.376 107.658 142.712 106.155 139.849 105.352Z" fill="#331111"/>
<path d="M148.523 106.791C147.822 106.045 147.073 105.338 146.27 104.702C145.3 104.688 144.319 104.704 143.393 104.759C146.106 106.081 148.579 107.888 150.667 110.069C150.878 110.09 151.082 110.11 151.28 110.127C150.409 108.975 149.512 107.843 148.523 106.791Z" fill="#474747"/>
<path d="M137.828 118.471C139.984 116.124 143.982 114.312 146.977 114.23C150.269 114.141 153.442 115.731 155.571 118.102C152.68 116.437 149.999 115.8 146.88 116.294C143.971 116.754 141.454 118.117 139.107 120.385L135.508 118.418L137.828 118.471Z" fill="#202020"/>
<path d="M170.261 109.164C173.018 107.993 177.407 107.979 180.345 109.217L182.433 108.205L179.978 111.49C176.9 110.404 174.045 110.21 171.207 111.001C168.166 111.849 165.992 113.542 164.055 116.259C165.005 113.217 167.229 110.452 170.261 109.164Z" fill="#202020"/>
<path d="M158.572 113.631C159.185 115.309 159.246 117.188 158.988 118.976C158.728 120.773 158.161 122.5 157.572 124.155C157.277 124.978 156.982 125.806 156.814 126.574C156.731 126.946 156.708 127.335 156.76 127.516C156.811 127.703 157.022 127.977 157.323 128.189C157.928 128.624 158.719 128.951 159.523 129.201C160.338 129.436 161.179 129.631 162.077 129.648C161.242 130.011 160.291 130.08 159.375 130.015C158.913 129.985 158.452 129.911 157.995 129.785C157.535 129.667 157.078 129.501 156.638 129.234C156.211 128.968 155.725 128.622 155.474 127.967C155.257 127.298 155.358 126.78 155.442 126.295C155.646 125.338 155.989 124.514 156.298 123.684C156.938 122.039 157.595 120.446 158.029 118.782C158.486 117.125 158.703 115.406 158.572 113.631Z" fill="#6C3317"/>
<path d="M129.172 120.055C131.028 125.163 133.886 128.143 133.364 120.437C132.841 112.73 130.846 106.9 130.846 106.9C130.846 106.9 145.903 99.4861 143.981 85.3453C143.981 85.3453 157.505 107.129 182.677 97.4883C182.677 97.4883 187.004 119.262 188.827 107.045C190.649 94.8282 185.573 61.9609 146.735 72.9592C106.657 84.3083 129.172 120.055 129.172 120.055Z" fill="#202020"/>
<path opacity="0.4" d="M182.679 97.4887C155.206 110.229 143.983 85.3457 143.983 85.3457C148.513 102.367 130.848 106.9 130.848 106.9C130.848 106.9 145.906 99.4865 143.983 85.3457C143.983 85.3457 157.508 107.129 182.679 97.4887Z" fill="#6C3317"/>
<path d="M223.853 224.436C223.853 224.436 225.528 200.884 226.077 196.512C226.627 192.14 223.42 189.426 221.239 194.64C219.058 199.855 215.52 215.352 215.52 215.352L223.853 224.436Z" fill="#BA623B"/>
<path d="M185.981 234.336L209.838 239.771C211.763 240.21 213.679 239.004 214.118 237.08L226.458 182.91C226.897 180.985 225.692 179.069 223.767 178.631L199.909 173.196C197.984 172.757 196.068 173.962 195.63 175.887L183.289 230.057C182.851 231.982 184.056 233.897 185.981 234.336Z" fill="#ECBB2C"/>
<path d="M220.688 191.596L221.989 185.885C222.452 183.853 221.179 181.829 219.147 181.367C217.115 180.904 215.091 182.176 214.629 184.208L213.327 189.92C212.865 191.952 214.137 193.976 216.169 194.438C218.202 194.901 220.225 193.629 220.688 191.596Z" fill="#E38D21"/>
<path d="M216.443 184.748C216.207 185.785 216.856 186.817 217.893 187.053C218.93 187.289 219.962 186.64 220.198 185.603C220.433 184.566 219.785 183.534 218.748 183.298C217.711 183.062 216.68 183.711 216.443 184.748Z" fill="#202020"/>
<path d="M215.195 190.233C214.959 191.27 215.608 192.301 216.645 192.537C217.682 192.773 218.714 192.125 218.949 191.088C219.185 190.051 218.537 189.019 217.5 188.783C216.463 188.547 215.432 189.195 215.195 190.233Z" fill="#F9F9EF"/>
<path d="M223.806 251.907C223.806 251.907 224.169 226.396 223.798 223.824C223.428 221.252 204.088 203.066 202.506 201.166C200.029 198.191 198.112 202.442 200.646 206.367C202.77 209.657 212.477 223.695 212.477 223.695C212.477 223.695 195.014 214.442 191.913 213.243C188.812 212.043 188.368 216.224 193.279 220.008C198.19 223.792 209.343 231.794 209.343 231.794C209.343 231.794 192.008 228.447 190.236 228.359C186.758 228.186 184.659 231.903 194.141 234.505C201.228 236.449 206.245 239.804 206.245 239.804C206.245 239.804 203.849 243.216 208.005 248.954L207.789 252.968L215.329 251.383L223.806 251.907Z" fill="#BA623B"/>
<path d="M249.186 330.203C249.175 330.203 249.165 330.203 249.154 330.203C248.794 330.185 248.517 329.879 248.534 329.52C248.554 329.124 250.385 289.809 242.844 277.485C238.441 270.291 231.533 269.489 231.464 269.482C231.109 269.445 230.85 269.13 230.882 268.775C231.171 265.604 231.372 256.956 228.869 255.054C223.173 250.728 209.432 251.046 204.764 255.614C202.872 257.467 201.812 260.308 201.997 269.349C202.004 269.709 201.718 270.007 201.359 270.015C201.016 270.007 200.702 269.736 200.693 269.376C200.498 259.815 201.653 256.837 203.853 254.683C208.975 249.67 223.446 249.296 229.657 254.017C232.848 256.44 232.424 265.631 232.23 268.287C234.15 268.657 239.967 270.288 243.955 276.806C247.222 282.144 249.203 292.659 249.844 308.062C250.319 319.481 249.841 329.484 249.836 329.583C249.82 329.932 249.531 330.203 249.186 330.203Z" fill="#C164A6"/>
<path d="M204.054 355.82C204.038 355.82 204.022 355.82 204.006 355.818C203.646 355.792 203.377 355.479 203.403 355.121C203.392 354.941 203.078 354.225 202.746 353.468C200.65 348.695 195.085 336.015 193.66 305.05C193.166 294.295 193.853 275.924 196.012 272.742C201.704 264.351 227.058 267.849 228.133 268.002C228.49 268.053 228.737 268.383 228.687 268.74C228.636 269.096 228.308 269.348 227.95 269.294C227.694 269.257 202.331 265.752 197.09 273.474C195.318 276.086 194.424 293.274 194.962 304.991C196.375 335.714 201.869 348.232 203.938 352.944C204.486 354.192 204.736 354.761 204.702 355.217C204.678 355.559 204.392 355.82 204.054 355.82Z" fill="#C164A6"/>
<path d="M44.4838 194.246C40.6315 198.824 31.4805 204.976 31.4805 207.723C31.4805 210.471 57.2702 229.051 60.043 229.605C62.8159 230.159 74.6701 216.571 74.6701 216.571L44.4838 194.246Z" fill="#C164A6"/>
</g>
</svg>
