<svg width="20" height="20" viewBox="0 0 20 20" fill="none" xmlns="http://www.w3.org/2000/svg">
<path d="M7.51453 4L9.46979 2.04475C9.61043 1.90415 9.80116 1.82516 10 1.82516C10.1989 1.82516 10.3896 1.90415 10.5303 2.04475L12.4855 4H15.25C15.4489 4 15.6397 4.07902 15.7804 4.21967C15.921 4.36033 16 4.55109 16 4.75V7.5145L17.9553 9.46975C18.0959 9.6104 18.1749 9.80113 18.1749 10C18.1749 10.1989 18.0959 10.3896 17.9553 10.5303L16 12.4855V15.25C16 15.4489 15.921 15.6397 15.7804 15.7803C15.6397 15.921 15.4489 16 15.25 16H12.4855L10.5303 17.9553C10.3896 18.0959 10.1989 18.1748 10 18.1748C9.80116 18.1748 9.61043 18.0959 9.46979 17.9553L7.51453 16H4.75004C4.55112 16 4.36036 15.921 4.21971 15.7803C4.07905 15.6397 4.00004 15.4489 4.00004 15.25V12.4855L2.04479 10.5303C1.90418 10.3896 1.8252 10.1989 1.8252 10C1.8252 9.80113 1.90418 9.6104 2.04479 9.46975L4.00004 7.5145V4.75C4.00004 4.55109 4.07905 4.36033 4.21971 4.21967C4.36036 4.07902 4.55112 4 4.75004 4H7.51453ZM5.50003 5.5V8.13625L3.63629 10L5.50003 11.8638V14.5H8.13629L10 16.3638L11.8638 14.5H14.5V11.8638L16.3638 10L14.5 8.13625V5.5H11.8638L10 3.63625L8.13629 5.5H5.50003ZM10 13C9.20438 13 8.44132 12.6839 7.87871 12.1213C7.31611 11.5587 7.00003 10.7957 7.00003 10C7.00003 9.20435 7.31611 8.44129 7.87871 7.87868C8.44132 7.31607 9.20438 7 10 7C10.7957 7 11.5587 7.31607 12.1214 7.87868C12.684 8.44129 13 9.20435 13 10C13 10.7957 12.684 11.5587 12.1214 12.1213C11.5587 12.6839 10.7957 13 10 13ZM10 11.5C10.3979 11.5 10.7794 11.342 11.0607 11.0607C11.342 10.7794 11.5 10.3978 11.5 10C11.5 9.60218 11.342 9.22065 11.0607 8.93934C10.7794 8.65804 10.3979 8.5 10 8.5C9.60221 8.5 9.22068 8.65804 8.93937 8.93934C8.65807 9.22065 8.50003 9.60218 8.50003 10C8.50003 10.3978 8.65807 10.7794 8.93937 11.0607C9.22068 11.342 9.60221 11.5 10 11.5Z" fill="#6A6D71"/>
</svg>
