<svg width="315" height="282" viewBox="0 0 315 282" fill="none" xmlns="http://www.w3.org/2000/svg">
<mask id="mask0_4653_319501" style="mask-type:luminance" maskUnits="userSpaceOnUse" x="0" y="0" width="326" height="326">
<path d="M0 0H326V326H0V0Z" fill="white"/>
</mask>
<g mask="url(#mask0_4653_319501)">
<path d="M94.2492 205.549C89.8221 204.897 85.3755 204.414 80.9875 203.508C78.0961 202.893 75.261 202.038 72.5115 200.952C70.5555 200.176 68.9647 198.69 67.4651 197.184C65.5091 195.228 63.4292 193.415 62.2491 190.859C61.0204 188.389 60.5767 185.602 60.9777 182.872C61.3623 180.264 62.0078 177.754 62.1708 175.12C62.434 170.169 62.066 165.204 61.0755 160.346C60.8611 159.78 60.7613 159.177 60.7821 158.572C57.3721 160.652 55.4096 163.788 54.2621 167.518C53.2675 170.409 53.0649 173.513 53.6753 176.509C53.8448 177.285 53.76 177.585 52.8277 177.813C45.0037 179.841 39.3704 185.2 38.8097 194.041C38.7055 195.367 38.7055 196.699 38.8097 198.025C38.8655 198.305 38.8123 198.596 38.6609 198.838C38.5094 199.081 38.2711 199.256 37.9947 199.329C31.9506 201.898 28.2147 206.599 25.8414 212.577C24.5048 215.974 23.4485 219.456 23.4355 223.127C23.3958 225.682 23.6895 228.231 24.3092 230.71C24.91 233.266 25.8231 235.738 27.028 238.071C30.2098 243.867 35.1519 247.557 41.2286 249.865C42.0631 250.185 42.9107 250.452 43.7518 250.739C45.8904 249.833 48.0289 248.946 50.2392 248.216C51.9409 247.649 53.7013 247.329 55.4552 246.912C58.8717 246.084 62.3077 245.334 65.7373 244.558C66.9239 244.291 68.1236 244.069 69.3102 243.808C72.9027 243.032 76.4822 242.139 80.003 241.168C83.2044 240.294 86.4252 239.492 89.6396 238.677C91.7477 238.142 93.858 237.621 95.9705 237.112C96.4921 236.988 96.9224 236.199 97.5679 236.871C97.8287 236.545 97.6592 236.219 97.6005 235.854C97.3397 234.341 97.3071 232.796 97.1376 231.29C96.7203 227.515 96.453 223.72 96.127 219.938C95.8271 217.435 95.5467 214.938 95.312 212.427C95.0577 210.093 94.6013 207.824 94.2492 205.549Z" fill="#301228"/>
<path d="M94.2464 205.549C80.7109 204.421 59.8469 200.333 60.9944 182.872C62.9504 174.853 62.4093 166.572 60.7988 158.572C54.9308 162.263 52.4011 169.884 53.666 176.509C53.8355 177.285 53.7507 177.585 52.8184 177.813C44.9944 179.841 39.3611 185.2 38.8004 194.041C39.9609 203.723 32.1956 196.727 25.8516 212.551C18.9535 227.547 27.4034 246.879 43.7621 250.713C55.2568 245.66 68.023 244.715 79.9937 241.135C85.7835 239.831 92.0166 237.621 97.5586 236.838C96.7175 226.53 95.9286 215.877 94.2464 205.549Z" fill="#7B79F9"/>
<path d="M94.2405 206.031C89.3114 205.32 84.3236 204.825 79.4857 203.658C77.164 203.091 74.8832 202.368 72.6593 201.493C70.6762 200.637 68.8899 199.383 67.4107 197.809C65.8986 196.415 64.4725 194.93 63.1401 193.362C61.7766 191.627 60.7846 189.63 60.2256 187.494C59.6749 185.349 59.5926 183.109 59.9844 180.929C60.4743 178.546 60.8378 176.139 61.0733 173.718C61.2277 170.965 61.1601 168.205 60.8711 165.463C60.7277 164.107 60.5386 162.751 60.3169 161.401C60.1996 160.71 60.1018 160.006 59.9323 159.322C59.7335 158.732 59.6429 158.111 59.6649 157.489L61.158 159.035C57.898 161.075 55.8573 164.303 54.7554 167.941C54.0607 170.092 53.8079 172.36 54.0121 174.611C54.1099 175.446 54.5207 176.43 54.3251 177.278C54.1295 178.125 53.4579 178.217 52.7733 178.406C49.7123 179.19 46.8812 180.689 44.5124 182.781C42.2289 184.921 40.6278 187.688 39.9093 190.735C39.4644 192.691 39.2846 194.697 39.3747 196.701C39.3747 197.496 39.6551 198.487 39.1465 199.191C38.6379 199.896 37.6273 200.091 36.9166 200.456C33.7812 202.087 31.1132 204.491 29.1644 207.439C26.9914 210.807 25.4452 214.54 24.6004 218.458C23.7152 222.969 24.0002 227.631 25.4284 232C26.5914 236.245 28.9281 240.075 32.1701 243.051C35.4301 245.94 39.2704 247.615 43.3323 249.03L42.9281 249.076C46.3252 247.565 49.8516 246.362 53.4644 245.483C57.1743 244.642 60.8776 243.762 64.5875 242.928C68.2974 242.093 71.9942 241.35 75.6715 240.404C79.3488 239.459 83.0652 238.448 86.7555 237.496C88.7898 236.981 90.8175 236.466 92.8517 235.964C93.8027 235.827 94.7292 235.555 95.6032 235.156C95.9011 234.961 96.2591 234.879 96.6121 234.926C96.9651 234.972 97.2895 235.144 97.5266 235.41L96.529 235.338C96.5681 235.495 96.529 235.462 96.529 235.221L96.4834 235.019C96.4182 234.667 96.3725 234.315 96.3334 233.956C96.2552 233.304 96.203 232.652 96.1508 232C96.053 230.742 95.9096 229.49 95.7923 228.231C95.538 225.623 95.3359 223.015 95.1403 220.407C94.7099 215.191 93.9993 209.975 93.1843 204.759C93.1125 204.297 93.2755 203.781 93.8363 203.879C94.1123 203.984 94.3558 204.16 94.5423 204.389C94.7289 204.618 94.8519 204.892 94.899 205.183C95.7531 210.614 96.4638 216.059 96.9202 221.542C97.1484 224.287 97.357 227.038 97.6374 229.783C97.7743 231.087 97.8852 232.443 98.0091 233.78C98.1069 234.856 98.661 236.186 98.0873 237.196C97.8786 237.581 97.3179 237.314 97.0897 237.125C97.2006 237.209 95.9422 237.679 95.8509 237.705C94.9968 237.92 94.1427 238.116 93.2886 238.324L88.4246 239.55C85.0603 240.398 81.7156 241.291 78.3643 242.158C71.7726 243.906 65.083 245.21 58.4392 246.722C55.1894 247.366 51.9838 248.215 48.8417 249.265C48.0463 249.558 47.2639 249.865 46.4815 250.184C45.7277 250.563 44.9476 250.888 44.1473 251.156C43.4953 251.312 42.6608 250.836 42.0544 250.628C41.3503 250.38 40.6461 250.106 39.955 249.819C35.0984 247.884 30.8877 244.616 27.8082 240.391C24.2092 235.286 22.4162 228.825 22.3379 222.605C22.3522 219.345 22.9438 216.113 24.0853 213.059C24.9427 210.493 26.1051 208.039 27.5474 205.75C28.874 203.709 30.5284 201.9 32.4439 200.398C33.4623 199.599 34.5538 198.898 35.7039 198.305C36.2321 198.037 36.8515 197.848 37.3535 197.529C37.8555 197.209 37.6469 196.433 37.6208 195.847C37.4252 190.878 38.5858 185.773 41.9501 181.979C43.4323 180.336 45.1994 178.975 47.1661 177.962C48.1759 177.451 49.2219 177.016 50.2957 176.658C50.8499 176.476 51.4041 176.313 51.9583 176.156C52.1278 176.111 52.4799 176.078 52.6103 175.921C52.6559 175.863 52.6103 175.921 52.6103 175.687C52.3355 174.048 52.2263 172.386 52.2843 170.725C52.4268 169.14 52.7483 167.576 53.2427 166.063C53.9823 163.574 55.2649 161.281 56.9983 159.348C57.883 158.405 58.8894 157.585 59.9909 156.909C60.7147 156.459 61.5492 157.874 61.484 158.454C61.4864 158.965 61.5746 159.472 61.7448 159.954C61.8622 160.469 61.9404 160.991 62.0317 161.512C62.2208 162.653 62.3903 163.801 62.5272 164.948C62.8086 167.231 62.9566 169.527 62.9706 171.827C62.9774 174.121 62.7877 176.411 62.4033 178.673C62.0252 180.87 61.4319 183.087 61.5362 185.336C61.6498 187.368 62.2707 189.338 63.3422 191.067C64.4459 192.636 65.7281 194.072 67.1629 195.345C68.5908 196.759 70.0056 198.252 71.8573 199.12C73.9122 200.011 76.0416 200.721 78.2208 201.239C83.3325 202.582 88.6528 203.084 93.8688 203.847C94.7295 203.984 95.4923 206.233 94.2405 206.031Z" fill="#1E0602"/>
<g style="mix-blend-mode:screen">
<path d="M39.3164 208.248C37.1257 206.168 33.318 206.84 31.2186 208.9C30.1171 209.947 29.2811 211.241 28.7801 212.675C27.4161 216.849 27.6721 221.383 29.4973 225.376C30.6089 227.98 32.3906 230.243 34.6611 231.935C33.1453 229.734 31.9715 227.316 31.1795 224.763C29.8755 220.056 29.4517 214.162 32.4835 210.152C34.0678 208.261 36.8519 207.237 39.2903 208.287L39.3164 208.248Z" fill="#F963AB"/>
</g>
<path d="M249.469 356.833C263.435 337.273 277.505 317.791 292.918 299.307C277.563 284.35 262.411 268.956 245.185 256.157C235.405 266.328 245.837 265.187 240.112 280.405C233.905 298.061 215.376 293.576 204.983 282.446C189.987 289.494 171.9 279.91 170.472 262.664C170.283 261.491 168.692 262.09 167.864 261.927C159.075 261.66 156.311 251.685 150.815 246.456C133.008 254.058 112.301 248.451 97.5592 236.852C88.4312 238.429 78.7164 241.878 69.3015 243.789C58.7456 246.397 46.8792 247.225 38.2402 254.462C28.2385 263.897 21.4382 275.9 14.4944 287.616C3.98413 305.527 -6.52612 323.476 -16.6647 341.576C0.398132 358.124 17.0176 375.239 33.2524 392.569L36.1864 389.498C40.7504 397.909 46.801 406.9 53.7187 412.892C113.964 403.555 174.213 394.233 234.466 384.927C235.47 384.771 235.614 384.471 235.509 383.499C234.597 370.179 232.36 356.956 232.458 343.584C238.13 348.05 243.698 352.51 249.469 356.833Z" fill="#F963AB"/>
<path d="M249.469 356.833C263.435 337.273 277.505 317.791 292.918 299.307C277.563 284.35 262.411 268.956 245.185 256.157C235.405 266.328 245.837 265.187 240.112 280.405C233.905 298.061 215.376 293.576 204.983 282.446C189.987 289.494 171.9 279.91 170.472 262.664C170.283 261.491 168.692 262.09 167.864 261.927C159.075 261.66 156.311 251.685 150.815 246.456C133.008 254.058 112.301 248.451 97.5592 236.852C88.4312 238.429 78.7164 241.878 69.3015 243.789C58.7456 246.397 46.8792 247.225 38.2402 254.462C28.2385 263.897 21.4382 275.9 14.4944 287.616C3.98413 305.527 -6.52612 323.476 -16.6647 341.576C0.398132 358.124 17.0176 375.239 33.2524 392.569L36.1864 389.498C40.7504 397.909 46.801 406.9 53.7187 412.892C113.964 403.555 174.213 394.233 234.466 384.927C235.47 384.771 235.614 384.471 235.509 383.499C234.597 370.179 232.36 356.956 232.458 343.584C238.13 348.05 243.698 352.51 249.469 356.833Z" fill="#EFCB35"/>
<path d="M64.9799 244.682L60.781 245.686C59.5683 245.966 58.3556 246.234 57.1298 246.507C57.2015 246.957 57.5471 246.938 57.7818 247.029C64.7126 249.637 69.1723 254.592 71.0631 261.706C73.1755 269.66 71.4673 276.943 66.3947 283.352C62.8693 287.805 58.0233 291.025 52.5528 292.552C45.1461 294.684 38.1306 293.549 31.8974 288.933C27.6463 285.792 24.5446 281.341 23.0693 276.265C22.9565 275.796 22.8673 275.321 22.802 274.843C22.7629 274.661 22.7694 274.42 22.5673 274.348C22.3652 274.276 22.1761 274.524 22.0653 274.7C21.3546 275.841 20.6569 276.995 19.9593 278.149C19.8745 278.286 19.8093 278.429 19.7181 278.566C18.2315 280.92 18.2185 280.926 19.5616 283.365C22.965 289.539 27.7116 294.299 34.2707 297.103C38.3882 298.88 42.8678 299.657 47.3433 299.372C56.8625 298.772 64.517 294.482 70.6588 287.388C75.7444 281.52 77.9743 274.543 77.7526 266.843C77.5244 258.772 74.31 251.997 68.3247 246.56C67.5162 245.829 66.5969 245.256 65.7167 244.564L64.9799 244.682Z" fill="#FF5765"/>
<path d="M85.9835 281.969C87.457 290.947 94.4138 297.559 103.47 298.973C111.574 300.238 118.636 297.93 124.334 292.004C126.295 290.04 127.812 287.679 128.783 285.08C129.755 282.481 130.159 279.704 129.967 276.936C129.628 270.892 126.91 266.093 122.183 262.396C118.038 259.146 112.849 257.523 107.591 257.832C104.398 257.901 101.256 258.641 98.3692 260.005C95.4821 261.368 92.9147 263.325 90.8344 265.748C87.3552 269.655 85.5132 274.752 85.6901 279.981C85.7466 280.649 85.8446 281.313 85.9835 281.969ZM105.211 264.013C110.74 263.218 115.271 264.32 119.229 267.586C121.899 269.814 123.621 272.974 124.046 276.425C124.471 279.876 123.567 283.359 121.517 286.168C120.019 288.323 118.038 290.099 115.732 291.355C113.427 292.61 110.86 293.31 108.236 293.399C103.976 293.733 99.7558 292.367 96.5002 289.598C94.1505 287.659 92.5239 284.984 91.8838 282.005C91.2436 279.027 91.6274 275.92 92.9729 273.187C95.5548 267.86 99.9819 265.004 105.211 264.013Z" fill="#FF5765"/>
<path d="M256.291 278.405C255.177 278.567 254.12 278.998 253.211 279.662C252.302 280.325 251.569 281.201 251.075 282.212C249.422 285.042 248.802 288.358 249.321 291.595C249.817 294.294 251.166 296.726 252.672 299.001C253.131 299.618 253.812 300.032 254.571 300.153C255.329 300.275 256.106 300.096 256.734 299.653C257.342 299.226 257.761 298.581 257.905 297.852C258.048 297.123 257.904 296.367 257.504 295.741C256.812 294.548 256.239 293.29 255.632 292.058C254.387 289.515 255.235 287.194 256.284 284.886C256.372 284.692 256.51 284.526 256.685 284.406C256.859 284.285 257.064 284.214 257.275 284.201C257.704 284.182 258.123 284.071 258.504 283.874C258.886 283.678 259.22 283.402 259.484 283.064C259.749 282.727 259.937 282.336 260.036 281.919C260.136 281.502 260.144 281.068 260.059 280.648C259.963 280.251 259.788 279.877 259.545 279.549C259.303 279.22 258.997 278.944 258.646 278.735C258.295 278.526 257.906 278.389 257.502 278.332C257.097 278.276 256.686 278.3 256.291 278.405Z" fill="#FF5765"/>
<path d="M140.321 261.672C150.061 260.029 158.916 256.75 166.7 250.875C169.774 248.55 172.613 245.929 175.176 243.051C175.366 242.836 175.522 242.588 175.705 242.367C176.004 241.988 175.887 241.806 175.45 241.715C174.003 241.408 172.555 241.108 171.121 240.782C170.43 240.619 170.13 241.115 169.778 241.506C167.377 244.318 164.625 246.809 161.589 248.919C157.499 251.585 153.06 253.674 148.399 255.126C144.242 256.403 139.956 257.212 135.62 257.539C123.918 258.417 112.228 255.686 102.126 249.715C98.1409 247.308 94.6762 244.129 91.9356 240.365C91.8613 240.209 91.7558 240.071 91.6257 239.957C91.4955 239.844 91.3435 239.759 91.179 239.707C91.0145 239.655 90.8411 239.637 90.6696 239.655C90.498 239.673 90.332 239.726 90.1817 239.811C89.2715 240.115 88.3383 240.346 87.3912 240.502C86.7392 240.632 86.6544 240.893 87.0195 241.421C90.2757 246.228 94.494 250.306 99.4075 253.398C106.415 257.686 114.229 260.489 122.364 261.633C127.341 262.44 132.405 262.554 137.413 261.972C138.417 261.835 139.486 261.835 140.321 261.672Z" fill="#CA1B29"/>
<path d="M97.5657 235.833C97.3049 234.321 97.2723 232.775 97.1027 231.269C96.6855 227.494 96.4182 223.7 96.0922 219.918C95.7922 217.414 95.5119 214.917 95.2772 212.407C95.0555 210.112 94.6251 207.843 94.247 205.568C94.7229 205.62 95.1924 205.685 95.6749 205.724C99.9255 206.138 104.199 206.269 108.467 206.115C111.691 206.059 114.909 205.813 118.104 205.378C118.319 205.342 118.537 205.318 118.756 205.307C121.36 205.164 123.948 204.795 126.488 204.205C129.748 203.553 132.956 202.692 136.236 202.131C137.612 201.903 138.844 202.523 140.037 202.816C140.826 203.005 141.484 204.087 141.993 204.942C142.026 205.509 142.469 205.913 142.606 206.441C143.671 208.228 144.974 209.862 146.479 211.299C146.653 211.477 146.788 211.69 146.877 211.923C146.965 212.157 147.005 212.406 146.994 212.655C147.129 214.632 147.427 216.595 147.887 218.523C148.089 219.409 148.709 220.264 148.422 221.183C147.867 222.984 147.42 224.818 147.085 226.673C146.703 229.193 146.631 231.75 146.87 234.288C147.055 236.897 147.604 239.466 148.5 241.923C149.119 243.498 149.88 245.012 150.775 246.448C145.906 248.413 140.753 249.582 135.512 249.91C131.979 250.116 128.434 249.908 124.95 249.291C118.878 248.147 113.011 246.105 107.541 243.234C103.97 241.489 100.609 239.345 97.52 236.844C97.8004 236.524 97.6244 236.166 97.5657 235.833Z" fill="#7A1C05"/>
<path d="M97.5676 235.833C97.3068 234.321 97.2742 232.775 97.1047 231.269C96.6874 227.494 96.4201 223.7 96.0941 219.918C95.7942 217.414 95.5138 214.917 95.2791 212.407C95.0574 210.112 94.6271 207.843 94.2489 205.568C94.7249 205.62 95.1943 205.685 95.6768 205.724C99.9275 206.138 104.201 206.269 108.469 206.115C111.693 206.059 114.911 205.813 118.106 205.378C118.321 205.342 118.539 205.318 118.758 205.307C121.362 205.164 123.949 204.795 126.49 204.205C129.75 203.553 132.958 202.692 136.238 202.131C137.613 201.903 138.846 202.523 140.039 202.816C140.828 203.005 141.486 204.087 141.995 204.942C142.028 205.509 142.471 205.913 142.608 206.441C143.673 208.228 144.976 209.862 146.481 211.299C146.655 211.477 146.79 211.69 146.879 211.923C146.967 212.157 147.007 212.406 146.996 212.655C147.131 214.632 147.429 216.595 147.889 218.523C148.091 219.409 148.711 220.264 148.424 221.183C147.869 222.984 147.422 224.818 147.087 226.673C146.705 229.193 146.633 231.75 146.872 234.288C147.057 236.897 147.606 239.466 148.502 241.923C149.121 243.498 149.882 245.012 150.777 246.448C145.908 248.413 140.754 249.582 135.514 249.91C131.981 250.116 128.436 249.908 124.952 249.291C118.88 248.147 113.013 246.105 107.543 243.234C103.972 241.489 100.611 239.345 97.522 236.844C97.8023 236.524 97.6263 236.166 97.5676 235.833Z" fill="#561306"/>
<path d="M97.5663 235.834C96.3862 225.754 96.0276 215.557 94.2476 205.549C108.337 207.224 122.505 205.366 136.23 202.132C139.281 201.858 141.805 203.436 142.613 206.442C147.092 212.512 146.812 210.752 147.901 218.53C148.103 219.417 148.722 220.271 148.435 221.19C145.736 229.431 146.088 239.009 150.789 246.455C132.989 254.057 112.275 248.45 97.5337 236.851C97.801 236.525 97.625 236.167 97.5663 235.834Z" fill="#561306"/>
<path d="M248.18 355.737C259.101 340.455 270.094 325.211 281.719 310.456C284.971 306.335 288.274 302.254 291.63 298.211C291.832 298.916 292.041 299.62 292.243 300.317C280.265 288.64 268.451 276.754 255.633 266.016C252.014 262.971 248.304 260.017 244.51 257.194L245.69 257.279C244.151 258.889 242.43 260.715 241.713 262.88C241.488 263.483 241.392 264.127 241.432 264.77C241.432 264.862 241.471 265.279 241.432 264.992C241.432 265.155 241.471 265.318 241.497 265.481C241.556 265.846 241.634 266.211 241.719 266.57C242.147 268.205 242.433 269.874 242.573 271.558C242.65 274.17 242.261 276.775 241.426 279.251C239.828 284.376 237.194 289.449 232.2 291.959C228.014 294.058 223.111 293.915 218.71 292.611C213.094 290.806 208.049 287.56 204.079 283.196L205.338 283.698C200.799 285.788 195.747 286.504 190.806 285.755C185.866 285.006 181.252 282.827 177.536 279.486C173.669 275.97 170.944 271.376 169.712 266.296C169.562 265.644 169.432 265.031 169.328 264.392C169.275 264.06 169.23 263.74 169.191 263.408C169.191 263.225 169.145 263.043 169.125 262.854V262.632C169.015 261.98 169.21 262.162 169.699 263.284C169.307 263.33 168.911 263.33 168.519 263.284C167.908 263.279 167.299 263.236 166.694 263.153C164.287 262.793 162.042 261.729 160.239 260.096C156.118 256.503 154.058 251.222 150.152 247.46L151.163 247.708C137.054 253.68 121.027 251.561 107.622 244.734C103.836 242.795 100.246 240.493 96.9035 237.862L97.6859 238.182C92.2938 239.127 87.0126 240.607 81.7379 242.055C76.5784 243.463 71.3907 244.734 66.1747 245.869C57.0467 247.825 47.2667 249.096 39.6187 254.899C37.611 256.542 35.7661 258.373 34.1093 260.369C32.3815 262.325 30.7515 264.34 29.1933 266.42C26.1288 270.515 23.3578 274.818 20.7173 279.186C14.8492 288.816 9.2225 298.609 3.53708 308.35C-2.37006 318.487 -8.21201 328.66 -13.9887 338.87L-16.1207 342.671L-16.7336 340.572C-3.34152 353.56 9.77454 366.817 22.6146 380.344C26.231 384.147 29.8365 387.966 33.4312 391.8L32.0034 391.454L34.9374 388.383C35.5046 387.79 36.3 388.513 36.5869 389.035C41.0988 397.355 46.4647 405.596 53.6498 411.855L52.8674 411.536L96.6035 404.761L140.34 397.987L183.867 391.285L227.603 384.523L233.074 383.676C233.354 383.637 233.96 383.617 234.078 383.408C234.195 383.2 234.032 382.639 234.019 382.443C233.98 381.909 233.941 381.374 233.895 380.846C233.621 377.28 233.243 373.72 232.885 370.16C232.135 362.936 231.339 355.711 231.079 348.455C231.02 346.636 230.987 344.823 231 343.004C231 342.13 231.789 342.156 232.304 342.574C237.964 347.014 243.584 351.506 249.341 355.822C249.619 356.041 249.833 356.331 249.959 356.662C250.086 356.993 250.12 357.351 250.058 357.7C249.837 358.352 249.204 358.169 248.754 357.843C242.997 353.521 237.377 349.035 231.711 344.595L233.015 344.164C232.969 352.719 233.856 361.227 234.743 369.716C235.186 373.915 235.616 378.114 235.942 382.326C236.034 383.519 236.594 385.586 235.108 386.101C234.166 386.361 233.201 386.529 232.226 386.603L229.012 387.099L177.875 395.001L126.811 402.936L75.6743 410.858L63.1299 412.814L56.7011 413.811L55.0907 414.059C54.5913 414.204 54.0711 414.263 53.552 414.235C52.8022 414.065 52.0002 413.035 51.4525 412.52C45.9953 407.35 41.5617 401.13 37.7084 394.694C36.7825 393.143 35.8893 391.565 35.0221 389.974L36.6717 390.626L33.7377 393.697C33.2617 394.192 32.6815 393.749 32.3098 393.358C19.6784 379.883 6.83185 366.626 -6.22989 353.586C-9.91586 349.922 -13.6279 346.277 -17.3661 342.652C-17.8811 342.15 -18.3832 341.27 -17.9789 340.546C-9.93979 326.202 -1.67892 311.936 6.65363 297.722C10.5656 291.066 14.4189 284.389 18.3896 277.791C22.0286 271.583 26.135 265.661 30.6733 260.076C32.9227 257.39 35.309 254.58 38.1061 252.454C40.7356 250.475 43.642 248.893 46.7321 247.76C52.9587 245.432 59.5569 244.454 66.0182 243.007C69.6368 242.192 73.2489 241.377 76.8349 240.399C80.6426 239.395 84.4307 238.306 88.2449 237.328C90.0835 236.865 91.9287 236.421 93.7804 236.024C94.628 235.848 95.5016 235.626 96.3884 235.528C97.2751 235.43 97.9793 236.18 98.6834 236.734C101.3 238.688 104.066 240.432 106.957 241.95C118.517 248.021 132.268 250.505 144.982 246.847C146.588 246.38 148.164 245.816 149.702 245.158C149.876 245.096 150.063 245.086 150.242 245.13C150.421 245.174 150.582 245.27 150.706 245.406C154.162 248.731 156.255 253.126 159.43 256.686C160.8 258.327 162.609 259.544 164.646 260.193C165.721 260.494 166.837 260.622 167.952 260.572C169.334 260.5 170.495 260.95 171.003 262.371C171.173 263.046 171.278 263.736 171.316 264.431C171.407 265.083 171.525 265.735 171.668 266.355C171.938 267.54 172.306 268.7 172.77 269.823C173.645 271.948 174.863 273.915 176.376 275.646C179.432 279.104 183.465 281.555 187.942 282.674C193.282 284.019 198.922 283.48 203.91 281.149C204.399 280.92 204.855 281.318 205.168 281.651C208.461 285.223 212.558 287.958 217.119 289.631C221.24 291.072 225.921 291.535 230.022 289.775C234.925 287.662 237.566 283.092 239.202 278.241C240.088 275.814 240.53 273.248 240.506 270.664C240.388 269.133 240.127 267.616 239.724 266.133C239.276 264.552 239.253 262.881 239.659 261.289C240.389 258.87 242.189 256.849 243.903 255.062C244.275 254.671 244.712 254.873 245.083 255.147C258.521 265.149 270.694 276.663 282.658 288.366C286.049 291.672 289.426 294.997 292.816 298.303C293.247 298.714 293.944 299.783 293.429 300.402C281.406 314.851 270.159 329.912 259.16 345.142C256.083 349.393 253.023 353.655 249.98 357.928C249.237 358.965 247.528 356.644 248.18 355.737Z" fill="#1E0602"/>
<path d="M142.007 204.943C157.863 217.566 187.177 198.593 186.114 179.457C185.241 163.385 169.814 162.133 158.613 169.677C157.381 170.844 157.003 170.915 155.907 169.546C145.586 160.229 152.126 152.033 148.931 146.224C140.572 139.945 138.179 128.62 138.499 118.69C138.552 118.147 138.452 117.599 138.208 117.11C137.965 116.621 137.589 116.211 137.123 115.926C131.255 112.737 130.603 105.657 132.37 99.8212C132.65 94.3118 123.046 103.342 112.399 97.8652C105.227 98.2956 107.027 104.613 92.9502 101.823C87.9819 100.48 90.5312 114.341 80.1775 121.252C76.2133 124.767 71.2842 127.27 67.0071 130.094C62.9908 139.495 58.831 149.882 61.0543 160.34C62.6359 167.769 62.6025 175.451 60.9565 182.866C59.9329 200.979 81.7684 204.532 95.6625 205.686C105.957 206.602 116.329 206.104 126.489 204.206C131.425 203.763 138.688 199.343 142.007 204.943Z" fill="#7A1C05"/>
<path d="M92.6466 155.6C104.735 159.356 111.437 176.36 125.207 175.702C127.092 175.61 129.237 174.821 129.771 173.015C130.247 171.411 129.185 169.697 127.776 168.797C126.368 167.897 124.673 167.604 123.062 167.167C107.799 163.053 98.3255 146.107 82.847 142.886C77.5919 141.791 72.1477 142.423 66.8143 143.062C64.3106 143.362 62.7002 143.845 61.7418 146.179C60.7116 148.709 61.67 151.727 64.3498 152.366C67.0295 153.005 69.7548 152.106 72.3498 151.238C80.3824 148.565 85.6962 151.838 92.6661 155.6" fill="#B71B0B"/>
<path d="M96.0944 219.898C97.6787 220.753 99.3087 220.342 100.952 220.12C107.263 219.273 113.144 217.062 118.927 214.546C124.958 211.938 131.126 209.629 137.353 207.51C139.083 207.037 140.843 206.68 142.621 206.441C142.484 205.913 142.041 205.509 142.008 204.942C141.48 204.087 140.822 202.986 140.052 202.816C138.833 202.523 137.627 201.903 136.251 202.131C132.991 202.692 129.731 203.566 126.504 204.205C123.968 204.785 121.388 205.145 118.791 205.281C118.572 205.292 118.354 205.316 118.139 205.352C114.944 205.789 111.726 206.037 108.502 206.096C104.234 206.249 99.9604 206.119 95.7097 205.704C95.2272 205.665 94.7578 205.6 94.2818 205.548C94.6339 207.823 95.0903 210.112 95.312 212.387C95.5141 214.898 95.7945 217.395 96.0944 219.898Z" fill="#1E0602"/>
<path d="M68.2653 128.442C67.4894 129.27 67.4959 130.046 68.4022 130.737C71.4797 133.091 74.4788 135.582 77.9931 137.257C79.765 138.145 81.6951 138.672 83.672 138.809C84.0601 138.81 84.4471 138.769 84.8261 138.685C84.9547 138.675 85.0757 138.62 85.1675 138.529C85.2594 138.438 85.3162 138.318 85.3281 138.19C85.3281 137.851 85.0999 137.681 84.813 137.609C84.0959 137.51 83.3875 137.355 82.694 137.146C80.9532 136.32 79.2714 135.375 77.6606 134.317C75.5677 133.013 73.9507 131.129 71.8969 129.805C71.0158 129.209 70.0764 128.705 69.0933 128.299L68.2653 128.442Z" fill="#B72907"/>
<path d="M90.6764 177.343C91.7653 177.109 92.7237 176.691 93.0432 175.387C93.1539 174.953 93.1331 174.495 92.9833 174.073C92.8336 173.65 92.5617 173.282 92.2021 173.014C91.6195 172.604 90.9106 172.412 90.2005 172.473C86.9014 172.329 83.6805 171.932 80.5704 170.576C79.6952 170.231 78.9035 169.704 78.2481 169.029C77.5926 168.355 77.0885 167.548 76.7693 166.664C76.552 166.1 76.1262 165.641 75.58 165.383C75.0338 165.124 74.4091 165.085 73.8353 165.275C73.5192 165.391 73.23 165.57 72.9853 165.802C72.7407 166.033 72.5456 166.312 72.4121 166.621C72.2785 166.93 72.2092 167.264 72.2084 167.6C72.2076 167.937 72.2753 168.271 72.4074 168.58C73.3854 170.699 74.3634 172.838 76.3194 174.272C78.5985 175.92 81.2779 176.927 84.0782 177.187C86.268 177.444 88.477 177.497 90.6764 177.343Z" fill="#B72907"/>
<path d="M124.385 153.017C121.067 153.578 117.696 153.832 114.377 152.828C110.825 151.786 107.558 149.946 104.825 147.449C104.558 147.208 104.284 146.693 103.886 147.019C103.489 147.345 103.795 147.873 104.069 148.219C105.778 150.226 107.839 151.903 110.152 153.167C113.661 155.213 117.697 156.175 121.751 155.932C123.609 155.867 125.409 155.482 127.261 155.371C129.112 155.26 131.075 155.371 132.985 155.43C133.143 155.454 133.302 155.465 133.461 155.462C134.08 155.378 134.719 155.228 134.811 154.465C134.902 153.702 134.328 153.35 133.715 153.161C131.818 152.726 129.872 152.535 127.926 152.594C126.731 152.567 125.539 152.709 124.385 153.017Z" fill="#B72907"/>
<path d="M83.0736 117.105C82.5715 118.409 81.1697 118.82 80.3482 119.824C79.694 120.57 78.9904 121.271 78.2422 121.923C77.8184 122.327 77.7011 122.575 78.3596 122.875C82.3172 124.596 85.8706 127.028 89.4958 129.343C89.6676 129.496 89.8768 129.6 90.102 129.646C90.3272 129.691 90.5605 129.677 90.7782 129.603C90.9959 129.53 91.1904 129.4 91.3419 129.227C91.4934 129.054 91.5965 128.845 91.6408 128.619C92.1624 127.263 92.6188 125.881 93.0361 124.492C93.4201 123.533 93.719 122.543 93.9294 121.532C94.0924 120.065 93.9294 119.83 92.4884 119.7C92.1103 119.667 92.2211 119.309 92.1038 119.113C91.7452 118.539 91.4518 117.907 90.6433 118.526C90.3108 118.787 90.1999 118.455 90.0304 118.311C89.5218 117.874 89.0328 117.757 88.7264 118.5C88.5504 118.963 88.3026 118.865 87.9831 118.774C86.4117 118.335 84.8839 117.752 83.4191 117.033L83.0736 117.105Z" fill="#1E0602"/>
<path d="M175.55 184.725C174.37 181.335 171.99 179.718 168.476 179.725C167.935 179.738 167.406 179.893 166.944 180.175C166.5 180.422 166.148 180.787 166.357 181.361C166.565 181.935 167.009 181.954 167.472 181.883C168.069 181.77 168.679 181.741 169.284 181.798C170.296 181.932 171.238 182.389 171.97 183.101C172.701 183.813 173.184 184.741 173.346 185.749C173.998 188.605 173.157 190.9 171.24 192.921C168.958 195.36 166.513 197.537 163.332 198.685C162.831 198.9 162.288 198.996 161.744 198.967C161.2 198.937 160.67 198.783 160.195 198.515C159.6 198.195 158.984 197.916 158.35 197.681C157.698 197.413 157.007 197.368 156.57 198.085C156.374 198.393 156.308 198.766 156.386 199.123C156.465 199.48 156.681 199.791 156.988 199.989C157.771 200.698 158.711 201.211 159.731 201.489C160.75 201.767 161.821 201.8 162.856 201.586C166.657 200.791 169.467 198.385 172.127 195.718C172.941 194.897 173.682 194.007 174.344 193.058C175.356 191.544 175.942 189.785 176.039 187.966L175.55 184.725Z" fill="#1E0602"/>
<path d="M76.0467 159.773C74.3827 160.101 72.7692 160.647 71.2479 161.397C69.9961 161.964 69.7353 163.144 70.5959 164.272C70.7338 164.422 70.8221 164.611 70.8489 164.812C70.8758 165.014 70.8398 165.219 70.7459 165.4C70.1578 166.639 69.9571 168.027 70.17 169.382C70.3828 170.737 70.9994 171.997 71.939 172.996C73.2887 174.554 74.4753 176.256 76.2814 177.364C78.9772 178.992 82.0935 179.788 85.2398 179.653C87.8478 179.588 90.2407 178.434 92.777 178.003C95.4436 177.547 98.0647 176.856 100.803 176.986C101.142 176.986 101.657 177.123 101.794 176.627C101.821 176.447 101.784 176.264 101.69 176.108C101.596 175.952 101.451 175.834 101.279 175.773C98.1886 174.189 95.8935 171.627 93.5072 169.182C91.6599 167.245 89.7006 165.418 87.6392 163.711C86.0223 162.407 84.3466 161.305 82.1168 161.423C81.3608 161.458 80.6053 161.343 79.8945 161.083C79.1836 160.823 78.5317 160.425 77.9766 159.91C77.318 159.349 76.6726 159.806 76.0467 159.773ZM92.2619 175.141C92.2619 175.239 92.2293 175.343 92.2162 175.441C90.3972 175.63 88.7476 176.438 87.0002 176.836C84.4882 177.361 81.878 177.151 79.4827 176.23C77.6338 175.643 76.0345 174.454 74.9392 172.853C73.8439 171.252 73.3157 169.331 73.4387 167.395C73.4908 166.743 73.5821 166.652 74.1232 167.037C74.9317 167.61 75.7728 168.151 76.6269 168.654C80.0043 170.61 83.6685 171.874 87.3002 173.218C88.9562 173.811 90.6254 174.495 92.2619 175.141Z" fill="#1E0602"/>
<path d="M138.764 142.443C138.356 141.519 137.786 140.676 137.082 139.952C134.982 137.462 133.007 134.808 130.027 133.289C127.07 131.822 123.923 130.773 120.677 130.172C117.548 129.52 114.359 129.253 111.288 128.34C110.491 128.096 109.716 127.782 108.974 127.401C108.191 127.023 107.494 126.613 107.494 125.582C107.472 125.421 107.396 125.271 107.279 125.159C107.155 125.022 106.881 124.806 106.848 124.833C105.968 125.576 105.401 123.822 104.547 124.533C104.468 124.609 104.37 124.663 104.264 124.692C104.158 124.72 104.047 124.722 103.94 124.696C103.067 124.526 102.969 125.139 103.041 125.765C103.321 128.04 103.693 130.329 103.856 132.604C104.038 135.089 104.214 135.271 106.568 135.375C112.971 135.662 119.223 136.914 125.476 138.303C129.936 139.3 134.376 140.318 138.764 142.443Z" fill="#1E0602"/>
<path d="M130.033 203.477C128.931 203.405 127.947 203.685 126.943 203.698C125.13 203.698 123.318 203.9 121.518 204.103C118.219 204.461 114.913 204.487 111.608 204.565C108.172 204.657 104.736 204.768 101.3 204.65C98.8872 204.565 96.4748 204.396 94.0689 204.109C91.4022 203.79 88.7681 203.379 86.1406 202.844C82.196 202.042 78.284 201.077 74.711 199.108C70.5708 196.826 66.887 193.99 64.8267 189.504C63.4641 186.668 62.9979 183.484 63.4901 180.376C63.7639 178.727 64.3507 177.116 64.442 175.434C64.6084 171.671 64.2351 167.903 63.3336 164.246C61.821 157.765 61.006 151.206 62.1144 144.575C62.1991 144.066 62.2317 143.545 62.2839 143.03C62.2606 142.942 62.2278 142.856 62.1861 142.775C62.0901 142.848 62.0103 142.941 61.9519 143.046C61.8936 143.152 61.8578 143.268 61.847 143.388C60.5166 148.45 60.1713 153.72 60.8299 158.912C61.1038 161.155 61.7753 163.359 62.0035 165.621C62.2243 168.169 62.3048 170.726 62.2448 173.282C62.2122 176.764 61.345 180.07 60.9799 183.473C60.6394 186.636 61.4419 189.816 63.2423 192.438C64.8462 194.877 67.0174 196.768 69.0777 198.756C71.4119 201.012 74.3915 201.931 77.3777 202.831C82.6393 204.422 88.0705 204.989 93.469 205.785C97.5379 206.378 101.648 206.644 105.759 206.58C109.611 206.568 113.458 206.35 117.287 205.928C119.855 205.622 122.418 205.276 124.967 204.891C126.48 204.644 127.966 204.292 129.466 203.985C129.655 203.92 129.857 203.894 130.033 203.477Z" fill="#1E0602"/>
<path d="M84.8953 140.995C84.2451 141.931 83.4377 142.748 82.509 143.408C80.7674 144.445 79.2332 145.795 77.9841 147.392C76.2693 149.804 76.3932 151.049 78.1927 153.41C79.1316 154.648 79.9466 155.946 81.2506 156.846C81.7431 157.228 82.3072 157.508 82.9096 157.67C83.512 157.831 84.1406 157.87 84.7584 157.784C85.8798 157.535 87.0261 157.415 88.1748 157.426C88.4627 157.431 88.7494 157.387 89.0225 157.295C89.6093 157.126 90.1635 156.833 90.0787 156.122C89.9939 155.411 89.355 155.242 88.7747 155.294C87.2034 155.45 85.6647 155.092 84.1129 155.007C83.3535 155.009 82.6111 154.782 81.9821 154.356C81.3532 153.931 80.8666 153.326 80.5856 152.621C80.5447 152.495 80.49 152.375 80.4226 152.262C79.901 151.61 79.0664 151.049 79.3272 150.026C79.6346 148.8 80.2915 147.69 81.218 146.831C82.6198 145.527 84.0803 144.282 85.5538 143.062C89.0942 140.128 90.9198 136.164 92.1064 131.809C92.509 130.62 92.7395 129.379 92.791 128.125C92.3213 128.786 91.9847 129.532 91.8 130.322C90.6479 133.411 89.0152 136.298 86.9621 138.876C86.3427 139.698 85.5147 139.607 84.7127 139.574C82.3394 139.476 80.2922 138.394 78.3166 137.162C75.5978 135.467 72.8268 133.856 70.2123 131.978C69.7333 131.662 69.3357 131.238 69.0517 130.74C68.9661 130.519 68.8253 130.325 68.6428 130.175C68.4604 130.025 68.2424 129.925 68.0099 129.883C67.7773 129.842 67.5381 129.862 67.3152 129.939C67.0923 130.017 66.8932 130.152 66.7371 130.329C66.5789 130.483 66.3829 130.592 66.1687 130.646C65.9546 130.7 65.73 130.696 65.5178 130.635C64.8267 130.505 64.1356 130.4 63.438 130.29C63.0533 130.231 62.5969 130.14 62.4795 130.635C62.3622 131.131 62.8316 131.359 63.2293 131.457C64.1291 131.685 65.0354 131.854 65.9417 132.044C66.1894 132.096 66.5415 132.109 66.5415 132.415C66.5415 132.722 66.1503 132.663 65.9286 132.702C65.2375 132.832 64.5464 132.93 63.8487 133.041C63.3467 133.119 62.9881 133.4 63.0011 133.928C63.0142 134.456 63.4184 134.71 63.9139 134.743C65.0904 134.812 66.2709 134.753 67.4347 134.567C67.6691 134.519 67.9116 134.532 68.1396 134.604C68.3677 134.676 68.5738 134.804 68.7387 134.978C70.8251 136.842 72.8789 138.792 75.4022 140.037C78.2579 141.452 81.2376 142.065 84.3672 141.067C84.5413 141.031 84.7178 141.007 84.8953 140.995Z" fill="#1E0602"/>
<path d="M130.056 158.436C131.295 158.938 132.534 159.368 133.785 159.74C133.993 159.828 134.213 159.883 134.437 159.903C134.959 159.903 135.618 160.007 135.787 159.303C135.957 158.599 135.448 158.286 134.926 158.058C134.079 157.686 133.205 157.367 132.318 157.021C132.008 156.937 131.714 156.805 131.445 156.63C129.619 155.065 127.533 155.326 125.375 155.463C121.798 155.656 118.215 155.215 114.793 154.159C112.413 153.435 109.974 152.816 107.803 151.505C106.155 150.607 104.756 149.312 103.735 147.737C103.67 147.623 103.598 147.515 103.52 147.411C103.161 146.98 102.698 146.439 102.176 146.759C101.655 147.078 102.248 147.58 102.45 147.932C103.669 149.952 105.211 151.758 107.014 153.279C109.388 155.443 111.989 157.334 115.093 158.201C118.937 159.366 122.991 159.669 126.966 159.088C127.217 159.05 127.474 159.075 127.713 159.162C127.952 159.248 128.166 159.393 128.335 159.583C129.369 160.502 130.517 161.285 131.751 161.911C132.24 162.178 132.827 162.42 133.186 161.774C133.544 161.129 133.107 160.744 132.644 160.385C131.72 159.822 130.853 159.169 130.056 158.436Z" fill="#1E0602"/>
<path d="M154.204 189.21C152.606 189.483 151.08 190.078 149.719 190.957C148.357 191.837 147.188 192.984 146.283 194.329C145.863 194.951 145.624 195.678 145.591 196.428C145.538 196.836 145.63 197.249 145.852 197.595C146.074 197.941 146.411 198.198 146.804 198.319C147.678 198.632 148.252 198.156 148.708 197.439C149.327 196.467 149.725 195.359 150.501 194.472C153.05 191.571 158.071 190.932 160.64 194.237C160.692 194.329 160.761 194.41 160.845 194.474C160.928 194.539 161.023 194.587 161.125 194.615C161.227 194.642 161.333 194.65 161.438 194.637C161.542 194.623 161.643 194.59 161.735 194.537C161.979 194.398 162.165 194.177 162.26 193.912C162.354 193.648 162.351 193.358 162.25 193.096C161.924 192.032 161.21 191.129 160.248 190.567C158.46 189.408 156.316 188.927 154.204 189.21Z" fill="#1E0602"/>
<path d="M99.7259 155.293C99.6272 154.613 99.309 153.983 98.8196 153.5C98.7499 153.411 98.6541 153.345 98.5455 153.312C98.4369 153.28 98.3208 153.281 98.2133 153.318C97.946 153.428 97.9981 153.683 98.0307 153.904C98.1298 154.338 98.1003 154.791 97.946 155.208C97.5548 156.049 97.2092 156.708 95.99 156.512C94.7707 156.317 93.7145 155.86 92.5017 156.173C91.6868 156.369 91.0869 156.734 91.1065 157.608C91.126 158.481 91.7585 158.833 92.5474 158.912C93.7848 158.976 95.0092 159.195 96.1921 159.564C96.4984 159.662 96.8245 159.681 97.1403 159.619C97.456 159.558 97.7511 159.418 97.9981 159.212C98.6203 158.782 99.1112 158.188 99.4162 157.497C99.7212 156.805 99.8284 156.042 99.7259 155.293Z" fill="#1E0602"/>
<path d="M129.246 54.4806C128.471 54.9891 127.525 54.95 126.691 55.3151C123.422 56.8387 120.454 58.9366 117.928 61.5091C115.437 63.9281 115.972 63.7977 112.946 62.4415C110.449 61.3201 107.932 60.3877 105.122 60.2769C102.587 60.244 100.058 60.5532 97.6048 61.1962C91.4434 62.6241 86.0449 65.7602 80.9658 69.3853C77.0339 72.1095 73.5814 75.4672 70.7489 79.3218C67.7693 83.5272 65.6503 88.0977 65.233 93.3267C65.0374 94.75 65.1015 96.1969 65.4221 97.5973C66.0741 99.7294 65.3765 101.294 63.753 102.696C60.5973 105.428 59.7953 109.164 59.6323 113.082C59.6739 114.225 59.3037 115.345 58.5891 116.238C57.6826 117.254 57.0293 118.47 56.6826 119.787C56.3359 121.103 56.3055 122.484 56.594 123.814C57.246 126.722 58.7782 129.03 61.5557 130.302C62.2467 130.676 63.0285 130.85 63.813 130.804C64.5975 130.758 65.3535 130.494 65.9959 130.041C66.0612 129.972 66.141 129.917 66.2295 129.882C66.3181 129.847 66.4132 129.832 66.5083 129.837C66.6034 129.843 66.6961 129.869 66.7799 129.915C66.8638 129.96 66.9366 130.023 66.9934 130.1C67.2999 129.252 68.1996 129.343 68.806 128.985C72.8036 126.723 76.6128 124.144 80.1964 121.271C84.4018 117.783 87.6553 113.526 88.9137 108.016C89.2397 106.582 89.6048 105.156 90.009 103.739C90.4589 102.168 91.313 101.64 92.9691 101.848C94.3318 102.018 95.701 102.194 97.0702 102.331C99.3717 102.559 101.667 102.592 103.884 101.757C105.726 101.092 107.428 100.091 108.904 98.8035C109.928 97.8842 111.03 97.4148 112.418 97.8842C113.39 98.2167 114.374 98.471 115.359 98.7905C119.28 100.219 123.584 100.192 127.486 98.7122C128.412 98.2792 129.393 97.9722 130.4 97.7995C130.675 97.7423 130.959 97.7554 131.227 97.8375C131.494 97.9196 131.737 98.068 131.932 98.269C132.127 98.47 132.269 98.717 132.343 98.9871C132.417 99.2572 132.422 99.5417 132.356 99.8141C132.193 100.792 132.017 101.77 131.776 102.735C131.103 105.462 131.353 108.335 132.487 110.905C133.426 113.121 135.14 114.641 137.11 115.919C137.575 116.204 137.951 116.614 138.195 117.103C138.438 117.592 138.539 118.14 138.485 118.683C138.388 120.754 138.425 122.83 138.596 124.897C138.884 127.927 139.525 130.914 140.506 133.796C142.195 138.706 144.529 143.133 148.904 146.217C149.296 146.502 149.601 146.892 149.784 147.341C149.967 147.79 150.022 148.281 149.941 148.76C149.563 152.763 149.1 156.753 150.332 160.737C151.294 164.145 153.221 167.202 155.881 169.539C156.311 169.911 156.63 170.563 157.185 170.608C157.739 170.654 158.058 169.917 158.573 169.669L158.828 169.532C161.408 168.195 164.062 167.002 166.775 165.96C170.155 164.547 173.955 164.523 177.351 165.894C179.58 166.669 181.512 168.118 182.88 170.041C184.82 172.801 185.929 176.059 186.075 179.43C186.2 184.135 184.92 188.77 182.397 192.744C180.229 196.175 177.358 199.109 173.974 201.35C168.347 205.262 162.485 208.522 155.392 208.965C151.649 209.2 148.148 208.835 144.823 207.009C143.76 206.429 142.984 205.516 141.967 204.917C141.999 205.484 142.443 205.888 142.58 206.416C143.645 208.203 144.948 209.837 146.453 211.274C146.627 211.452 146.762 211.665 146.851 211.898C146.939 212.132 146.979 212.38 146.968 212.63C147.103 214.607 147.401 216.57 147.861 218.498C148.063 219.384 148.683 220.239 148.396 221.158C147.841 222.959 147.394 224.793 147.059 226.648C146.677 229.168 146.605 231.725 146.844 234.263C147.029 236.872 147.578 239.441 148.474 241.898C149.093 243.473 149.854 244.987 150.749 246.423C151.716 247.886 152.852 249.229 154.133 250.426C154.965 251.103 155.648 251.945 156.141 252.897C157.081 254.895 158.368 256.709 159.943 258.257C162.159 260.337 164.572 261.993 167.767 261.895C168.419 261.895 169.071 261.94 169.67 261.94C170.159 261.94 170.322 262.188 170.401 262.632C170.766 264.483 171.131 266.335 171.626 268.167C172.796 272.552 175.353 276.44 178.916 279.251C181.569 281.331 184.59 282.893 187.822 283.854C191.39 284.999 195.196 285.188 198.86 284.402C200.606 284.031 202.281 283.384 203.822 282.485C204.135 282.302 204.474 281.963 204.911 282.426C206.32 283.782 207.809 285.051 209.371 286.227C212.616 288.851 216.377 290.764 220.409 291.841C225.566 293.223 230.345 292.448 234.434 288.783C236.942 286.468 238.864 283.59 240.041 280.386C242.09 275.306 242.354 269.681 240.791 264.431C240.38 263.029 240.295 261.667 241.508 260.519C242.83 259.165 244.037 257.701 245.113 256.144C246.399 253.984 247.341 251.637 247.904 249.187C248.927 244.897 249.117 240.62 247.154 236.532C245.85 233.781 244.318 231.127 242.923 228.415C242.271 227.111 241.86 225.741 242.57 224.32C242.966 223.516 243.401 222.734 243.874 221.973C245.296 219.626 246.776 217.311 247.715 214.716C250.062 208.281 249.795 201.761 248.269 195.208C248.216 195.065 248.21 194.909 248.249 194.762C248.289 194.615 248.373 194.484 248.491 194.387C250.923 192.02 250.942 188.44 249.358 185.572C247.93 182.964 245.954 181.21 242.733 181.562C242.362 181.601 242.29 181.321 242.166 181.158C241.385 180.068 240.513 179.048 239.558 178.106C239.46 178.012 239.39 177.891 239.356 177.758C239.323 177.626 239.327 177.487 239.369 177.356C239.548 176.197 239.443 175.011 239.063 173.901C237.85 170.374 233.788 167.805 230.222 170.237C229.961 170.413 229.791 170.458 229.57 170.269C227.444 168.509 224.908 167.309 222.893 165.386C222.641 165.193 222.462 164.92 222.387 164.611C222.311 164.303 222.342 163.978 222.476 163.691C222.763 163.039 223.128 162.387 223.389 161.702C223.411 161.59 223.458 161.485 223.524 161.392C223.591 161.3 223.676 161.222 223.774 161.165C223.873 161.108 223.982 161.072 224.096 161.06C224.209 161.048 224.324 161.06 224.432 161.096C224.933 161.178 225.447 161.154 225.938 161.024C227.034 160.684 228.052 160.13 228.93 159.392C229.809 158.654 230.532 157.748 231.056 156.727C231.573 155.909 231.921 154.995 232.077 154.039C232.234 153.084 232.197 152.107 231.969 151.166C231.68 150.135 231.155 149.186 230.435 148.393C229.715 147.601 228.821 146.988 227.822 146.602C227.542 146.478 227.17 146.439 227.125 146.034L226.596 142.657C228.207 143.563 229.641 144.398 231.095 145.193C234.812 147.208 238.626 147.756 242.584 145.884C248.328 143.172 252.944 135.981 250.408 128.443C249.834 126.742 249.958 126.631 251.562 125.692C253.165 124.753 255.024 123.879 256.654 122.791C260.429 120.267 263.109 116.923 264.165 112.463C265.091 108.551 264.328 104.763 262.626 101.177C259.503 94.5851 254.476 89.7342 248.452 85.8287C247.148 84.9942 246.293 84.0553 246.163 82.4449C245.993 80.4367 246.013 78.4351 245.902 76.4269C245.699 73.2064 244.961 70.0423 243.718 67.0642C241.292 60.9682 236.586 56.0571 230.6 53.3722C223.428 49.9883 215.904 48.0714 207.897 48.3583C205.244 48.4584 202.615 48.8967 200.073 49.6623C196.428 50.8176 193.011 52.5956 189.974 54.9174C185.599 58.1774 181.25 61.4374 178.851 66.5361C176.797 65.1929 174.789 64.7431 172.754 66.4448C172.37 66.7708 172.141 66.4448 171.952 66.2492C171.277 65.559 170.514 64.9606 169.683 64.4692C166.899 62.7414 163.965 61.7308 160.666 62.9305C160.388 63.0339 160.084 63.0441 159.799 62.9594C159.514 62.8747 159.265 62.6998 159.088 62.4611C157.247 60.4617 155.117 58.7477 152.771 57.3755C148.109 54.7218 143.369 53.8873 138.342 56.3257C137.982 56.5015 137.582 56.5806 137.182 56.5555C136.782 56.5303 136.395 56.4017 136.06 56.1823C134.619 55.2504 132.989 54.6533 131.287 54.4349C130.726 54.3893 130.179 54.7805 129.638 54.4349L129.246 54.4806Z" fill="#3A0032"/>
<path d="M129.251 54.4815C119.087 56.9787 117.613 65.8459 112.951 62.4424C97.6034 55.5638 80.2211 67.6063 70.7801 79.3227C61.3587 91.5086 68.3286 98.8371 63.7842 102.697C59.1159 106.12 60.8371 111.825 58.6203 116.239C53.0718 122.446 59.0181 133.393 67.0246 130.1C75.6897 124.65 86.4672 119.101 88.9122 108.004C89.7077 105.703 89.473 101.23 92.9677 101.836C107.149 104.607 105.127 98.3415 112.417 97.8721C117.346 99.6064 122.445 100.793 127.485 98.7001C136.834 94.4426 128.932 106.674 132.518 110.932C133.392 114.518 138.386 115.072 138.516 118.71C138.184 128.633 140.57 139.972 148.948 146.244C152.124 152.06 145.643 160.321 155.925 169.566C157.803 173.687 171.768 156.735 182.937 170.068C197.249 191.538 160.632 219.561 142.024 204.944C142.676 208.112 146.145 209.781 147.025 212.657C149.509 221.863 146.301 225.612 146.901 234.297C147.038 241.821 151.4 247.669 156.199 252.931C158.455 257.397 162.432 261.948 167.856 261.928C171.847 261.152 170.523 265.599 171.716 268.201C174.67 279.611 187.632 286.763 198.95 284.422C206.631 282.114 202.862 280.934 209.461 286.248C227.56 301.72 246.312 285.459 240.88 264.452C240.47 263.05 240.385 261.687 241.598 260.54C250.986 251.835 250.132 238.254 243.012 228.435C240.176 220.187 253.855 216.699 248.346 195.229C252.46 190.58 250.067 181.074 242.81 181.576C242.439 181.621 242.367 181.341 242.243 181.178C238.696 177.064 240 178.772 239.159 173.921C237.946 170.394 233.884 167.825 230.318 170.257C227.853 169.605 225.213 167.043 222.976 165.413C221.731 164.493 223.283 160.96 224.515 161.116C229.255 161.305 233.161 155.607 232.052 151.186C230.54 145.827 226.778 148.78 226.68 142.665C238.122 152.255 254.272 144.014 250.478 128.451C249.904 126.749 250.028 126.638 251.632 125.699C257.285 122.889 262.866 119.049 264.235 112.47C266.413 101.23 257.2 91.5412 248.522 85.8362C247.218 85.0016 246.364 84.0627 246.233 82.4523C249.722 45.8099 194.445 36.4211 178.882 66.5044C174.507 63.4335 173.477 67.202 171.984 66.2175C168.958 63.4204 164.877 61.3992 160.697 62.8988C160.419 63.012 160.111 63.0306 159.822 62.9517C159.532 62.8727 159.276 62.7007 159.094 62.462C153.878 56.8809 145.877 52.5059 138.347 56.3267C135.126 56.9787 133.913 53.9208 129.643 54.4163L129.251 54.4815Z" fill="#7B79F9"/>
<path d="M128.115 111.492C128.982 115.965 131.46 118.971 134.974 121.214C136.125 121.972 137.34 122.626 138.606 123.17C139.395 123.489 139.59 123.861 139.258 124.741C138.223 127.387 137.597 130.174 137.4 133.008C137.255 137.195 138.392 141.326 140.66 144.849C143.626 149.719 148.021 152.568 153.328 154.192C153.722 154.322 154.133 154.394 154.547 154.407C154.806 154.405 155.057 154.327 155.271 154.182C155.485 154.037 155.65 153.831 155.747 153.592C155.867 153.362 155.909 153.098 155.867 152.842C155.824 152.586 155.7 152.35 155.512 152.171C155.171 151.832 154.765 151.566 154.319 151.388C152.251 150.457 150.232 149.421 148.269 148.285C144.683 146.159 142.401 142.912 140.823 139.157C139.447 135.897 139.434 132.545 140.053 129.155C140.282 127.929 140.705 126.73 140.934 125.51C141.097 124.734 141.397 124.35 142.27 124.461C142.65 124.517 143.038 124.461 143.386 124.298C143.733 124.136 144.026 123.875 144.226 123.548C144.389 123.346 144.492 123.103 144.525 122.846C144.558 122.589 144.52 122.327 144.414 122.091C144.308 121.854 144.139 121.651 143.925 121.504C143.712 121.358 143.461 121.273 143.203 121.259C139.957 120.808 136.888 119.506 134.309 117.484C131.277 115.144 129.745 112.099 130.156 108.213C130.331 106.264 130.71 104.339 131.284 102.469C131.679 100.962 132.605 99.6491 133.892 98.7718C134.172 98.5892 134.577 98.4067 134.348 97.9503C134.12 97.4939 133.696 97.5721 133.344 97.7025C132.14 98.0905 131.134 98.9325 130.541 100.05C128.714 103.575 127.876 107.529 128.115 111.492Z" fill="#350E2C"/>
<path d="M154.725 176.646C155.26 173.347 157.013 171.143 159.485 169.422C159.856 169.232 160.166 168.941 160.38 168.582C160.593 168.223 160.701 167.812 160.691 167.394C160.69 167.007 160.579 166.628 160.369 166.302C160.16 165.977 159.862 165.718 159.511 165.556C159.136 165.367 158.717 165.286 158.3 165.32C157.882 165.355 157.482 165.504 157.144 165.751C153.512 168.261 150.852 171.476 150.448 176.066C150.233 178.498 150.911 180.708 153.095 182.169C154.432 183.062 155.892 183.362 157.333 182.579C157.994 182.207 158.536 181.656 158.897 180.989C159.258 180.323 159.423 179.567 159.374 178.811C159.374 178.622 159.374 178.426 159.374 178.237C159.432 176.848 158.93 175.916 157.887 175.486C156.844 175.055 155.827 175.323 154.725 176.646Z" fill="#350E2C"/>
<g style="mix-blend-mode:screen" opacity="0.81">
<path d="M151.262 105.225C148.221 107.767 145.979 111.133 144.807 114.92C144.192 116.82 143.83 118.793 143.731 120.788C143.524 124.84 144.461 128.869 146.437 132.413C147.408 134.167 148.607 135.785 150.003 137.225C152.722 140.111 156.219 142.149 160.07 143.093C156.704 141.378 153.733 138.98 151.347 136.051C150.187 134.619 149.188 133.065 148.367 131.415C146.719 128.145 145.877 124.528 145.909 120.866C145.927 119.024 146.146 117.19 146.561 115.396C147.402 111.715 149.003 108.25 151.262 105.225Z" fill="#F963AB"/>
</g>
<g style="mix-blend-mode:screen" opacity="0.65">
<path d="M137.641 97.4668C137.148 97.7042 136.711 98.042 136.358 98.4587C136.004 98.8753 135.741 99.3614 135.587 99.8857C135.252 100.949 135.226 102.086 135.514 103.163C135.801 104.241 136.39 105.214 137.21 105.969C137.607 106.347 138.078 106.637 138.593 106.821C139.109 107.005 139.657 107.079 140.203 107.038C139.572 106.373 139.034 105.625 138.606 104.815C138.235 104.101 137.945 103.349 137.739 102.572C137.525 101.795 137.4 100.997 137.367 100.192C137.332 99.2754 137.424 98.3582 137.641 97.4668Z" fill="#F963AB"/>
</g>
<g style="mix-blend-mode:screen">
<path d="M71.8179 92.3955C72.0657 81.7353 85.6664 73.2462 93.6665 67.7629C94.1098 67.4825 94.9379 66.9283 95.3943 66.6871C95.3943 66.6871 95.5182 66.6871 95.479 66.6154C95.4474 66.6512 95.4125 66.6839 95.3747 66.7132C95.4269 66.7132 95.5116 66.7132 95.5312 66.6089C95.5507 66.5045 95.4921 66.6089 95.4856 66.6089C95.152 66.6623 94.8229 66.7408 94.501 66.8436C84.7993 69.9471 68.9296 80.5812 71.8179 92.4215V92.3955Z" fill="#F963AB"/>
</g>
<g style="mix-blend-mode:screen" opacity="0.82">
<path d="M158.031 233.051C156.956 234.688 156.448 236.632 156.583 238.586C156.701 240.569 157.296 242.493 158.318 244.196C159.34 245.899 160.758 247.33 162.451 248.366C164.115 249.398 166.071 249.857 168.02 249.67C166.37 249.003 164.844 248.061 163.508 246.886C160.961 244.628 159.163 241.646 158.357 238.338C157.95 236.607 157.84 234.819 158.031 233.051Z" fill="#F963AB"/>
</g>
<path d="M129.97 55.7321C129.018 56.2798 127.897 56.3384 126.906 56.8014C125.821 57.3171 124.773 57.9075 123.77 58.5683C121.923 59.8108 120.201 61.2278 118.625 62.7998C117.765 63.6343 116.839 64.9318 115.489 64.6906C114.904 64.5425 114.339 64.3236 113.807 64.0386C112.718 63.5365 111.63 63.041 110.502 62.6368C108.265 61.8181 105.882 61.4739 103.506 61.6262C101.122 61.8153 98.7639 62.2523 96.4705 62.9302C92.1322 64.2721 88.0232 66.2661 84.2846 68.8438C76.9301 73.7142 70.071 80.1756 67.3326 88.8081C66.6526 90.9508 66.2773 93.1786 66.2177 95.4258C66.159 97.5709 67.2479 99.5856 66.3025 101.672C65.916 102.472 65.3702 103.184 64.6986 103.765C63.881 104.497 63.1718 105.343 62.5926 106.275C61.6319 107.932 61.0465 109.779 60.8778 111.687C60.754 112.763 60.7866 113.858 60.604 114.947C60.4019 116.179 59.7499 117.001 59.0457 117.992C58.3498 118.913 57.8716 119.98 57.6469 121.113C57.4222 122.245 57.4568 123.414 57.7482 124.531C57.9533 125.386 58.3256 126.192 58.8438 126.903C59.3619 127.614 60.0155 128.215 60.767 128.671C61.7093 129.32 62.864 129.584 63.9944 129.408C64.6464 129.258 65.1224 128.756 65.7548 128.587C66.0353 128.536 66.3242 128.555 66.5951 128.644C66.8661 128.733 67.1106 128.888 67.3066 129.095L66.0026 129.239C66.4068 128.352 66.9284 128.221 67.7695 127.882C68.7817 127.405 69.7503 126.84 70.6644 126.194C72.6986 124.942 74.7002 123.631 76.6302 122.21C80.0271 119.713 83.2088 116.896 85.4126 113.258C86.4726 111.52 87.2639 109.632 87.7598 107.657C88.0402 106.569 88.2814 105.473 88.5683 104.397C88.8291 103.413 89.0182 102.213 89.6962 101.411C91.0002 99.8986 93.2431 100.616 94.9122 100.818C97.3246 101.111 99.8088 101.392 102.202 100.818C104.41 100.198 106.448 99.083 108.161 97.5579C108.797 96.9618 109.592 96.5632 110.449 96.4104C111.584 96.2604 112.705 96.782 113.768 97.0624C116.135 97.76 118.417 98.4903 120.94 98.4968C122.161 98.5035 123.38 98.3723 124.572 98.1056C125.758 97.7806 126.927 97.3932 128.073 96.945C129.001 96.539 130.028 96.4144 131.027 96.5864C131.505 96.7341 131.946 96.9862 132.315 97.3244C132.685 97.6626 132.975 98.0786 133.165 98.5424C134.032 100.603 132.774 103.009 132.513 105.095C132.248 107.339 132.704 109.609 133.817 111.576C134.248 112.268 134.785 112.888 135.408 113.415C136.197 114.112 137.162 114.601 137.925 115.318C139.718 117.014 139.503 119.165 139.483 121.428C139.465 123.881 139.683 126.331 140.135 128.743C140.846 132.897 142.361 136.872 144.595 140.446C145.621 142.016 146.894 143.409 148.363 144.574C149.23 145.134 149.959 145.883 150.495 146.764C150.954 147.756 151.106 148.861 150.932 149.94C150.624 152.387 150.53 154.857 150.652 157.32C150.836 159.529 151.44 161.682 152.432 163.664C153.31 165.429 154.511 167.015 155.972 168.339C156.181 168.535 156.383 168.717 156.578 168.926C156.631 168.984 156.859 169.317 156.937 169.324C156.767 169.324 157.341 168.808 157.465 168.704C158.444 168.007 159.509 167.439 160.634 167.015C164.989 164.962 169.547 162.862 174.476 163.801C176.634 164.218 178.681 165.079 180.487 166.331C182.234 167.619 183.658 169.296 184.647 171.227C186.769 175.086 187.572 179.532 186.936 183.889C186.317 188.234 184.598 192.348 181.941 195.84C179.333 199.309 175.852 201.93 172.22 204.258C168.652 206.659 164.71 208.452 160.556 209.565C156.35 210.595 151.551 210.791 147.418 209.337C146.429 209.005 145.478 208.567 144.582 208.033C143.649 207.459 142.886 206.651 141.974 206.077L143.01 205.138C143.178 205.596 143.396 206.033 143.662 206.442C144.043 207.053 144.463 207.639 144.921 208.196C145.742 209.213 146.929 210.093 147.529 211.241C148.128 212.388 148.063 214.005 148.252 215.348C148.438 216.789 148.757 218.21 149.204 219.593C149.436 220.188 149.541 220.826 149.511 221.464C149.381 222.211 149.189 222.946 148.937 223.661C148.502 225.182 148.173 226.731 147.952 228.297C147.58 231.363 147.679 234.467 148.246 237.503C148.781 240.325 149.802 243.032 151.265 245.503C151.954 246.684 152.781 247.778 153.729 248.763C154.726 249.659 155.642 250.641 156.468 251.697C157.224 252.819 157.732 254.084 158.508 255.198C159.228 256.228 160.076 257.161 161.032 257.976C162.789 259.655 165.121 260.6 167.552 260.617C168.908 260.617 170.323 260.467 171.105 261.79C171.816 262.99 171.874 264.685 172.174 266.028C172.641 268.547 173.523 270.97 174.782 273.2C177.436 277.595 181.843 280.561 186.616 282.243C189.394 283.267 192.352 283.71 195.307 283.547C198.14 283.383 200.897 282.571 203.366 281.174C204.716 280.424 205.661 281.859 206.587 282.667C207.65 283.606 208.771 284.473 209.879 285.347C211.998 287.038 214.347 288.416 216.856 289.441C221.596 291.397 226.89 292.082 231.467 289.324C236.044 286.566 238.946 281.357 240.204 276.219C240.909 273.372 241.051 270.416 240.621 267.515C240.4 266.08 239.891 264.718 239.669 263.29C239.429 262.141 239.652 260.944 240.289 259.958C240.698 259.464 241.133 258.991 241.593 258.543C242.062 258.015 242.512 257.467 242.942 256.907C243.845 255.793 244.627 254.586 245.276 253.308C246.515 250.691 247.298 247.882 247.591 245.001C247.953 242.18 247.524 239.313 246.352 236.721C245.048 233.969 243.464 231.361 242.127 228.629C241.386 227.33 241.115 225.815 241.358 224.339C241.664 222.996 242.577 221.731 243.281 220.538C244.814 218.015 246.313 215.518 247.193 212.714C248.098 209.809 248.538 206.779 248.497 203.736C248.476 202.257 248.362 200.781 248.158 199.316C247.95 197.809 247.506 196.323 247.317 194.823C247.148 193.519 248.23 192.932 248.81 191.915C249.342 190.916 249.568 189.782 249.462 188.655C249.373 187.661 249.071 186.698 248.577 185.831C248.083 184.964 247.409 184.213 246.6 183.628C245.725 183.092 244.702 182.848 243.679 182.931C243.391 182.982 243.095 182.965 242.815 182.88C242.535 182.795 242.279 182.645 242.069 182.442C241.688 182.008 241.335 181.551 241.012 181.073C240.582 180.525 240.126 179.984 239.643 179.475C239.055 178.979 238.631 178.315 238.43 177.571C238.397 176.945 238.419 176.316 238.496 175.694C238.493 175.024 238.365 174.36 238.118 173.738C237.759 172.839 237.141 172.068 236.342 171.522C235.543 170.976 234.599 170.681 233.632 170.673C233.114 170.681 232.601 170.783 232.119 170.973C231.552 171.195 230.991 171.769 230.365 171.775C229.739 171.782 229.192 171.188 228.716 170.83C228.24 170.471 227.62 170.047 227.053 169.682C225.932 168.939 224.791 168.209 223.734 167.368C222.678 166.526 221.407 165.412 221.381 163.873C221.411 163.246 221.592 162.635 221.909 162.093C222.133 161.466 222.423 160.865 222.776 160.3C222.931 160.112 223.134 159.969 223.364 159.888C223.593 159.806 223.841 159.788 224.08 159.837C224.7 159.914 225.33 159.845 225.919 159.635C229.909 158.161 233.684 151.68 229.276 148.583C228.285 147.892 227.034 147.729 226.466 146.549C226.222 145.923 226.074 145.264 226.029 144.593L225.697 142.442C225.593 141.79 225.977 141.079 226.734 141.503C229.713 143.191 232.706 145.304 236.194 145.695C239.264 145.935 242.307 144.964 244.67 142.989C249.097 139.521 251.19 133.77 249.495 128.352C249.202 127.439 248.843 126.278 249.541 125.457C249.922 125.083 250.363 124.775 250.845 124.544C251.594 124.101 252.364 123.69 253.127 123.279C255.78 121.845 258.284 120.228 260.207 117.868C262.088 115.594 263.256 112.815 263.565 109.881C263.776 106.605 263.024 103.339 261.4 100.485C258.62 95.4235 254.651 91.1137 249.834 87.9278C248.667 87.1259 247.395 86.4348 246.509 85.3198C245.609 84.0503 245.136 82.5272 245.159 80.971C244.957 77.4567 245.016 74.0207 244.077 70.5912C242.675 65.1218 239.413 60.3108 234.851 56.9839C232.347 55.2994 229.642 53.9348 226.799 52.922C223.706 51.7417 220.504 50.8681 217.24 50.314C210.473 49.173 203.301 49.4924 197.028 52.4395C194.142 53.8711 191.416 55.6065 188.898 57.6164C186.415 59.3943 184.171 61.4849 182.222 63.8364C181.29 65.0195 180.494 66.3033 179.848 67.6637C179.685 67.9962 179.196 67.918 178.929 67.7615C177.371 66.7704 175.721 66.2619 174.065 67.3638C173.315 67.8658 172.82 68.1722 172.018 67.5463C171.32 66.9986 170.766 66.3401 170.003 65.8511C168.528 64.8195 166.842 64.127 165.067 63.8234C164.264 63.7242 163.45 63.7528 162.655 63.9082C161.827 64.0581 161.019 64.5602 160.164 64.345C159.31 64.1298 158.756 63.4387 158.208 62.8584C157.661 62.2782 156.859 61.5544 156.148 60.9676C154.731 59.7815 153.177 58.7701 151.519 57.9554C148.2 56.3319 144.412 55.7386 140.852 56.9644C139.907 57.2969 138.961 57.9554 137.938 57.9815C136.914 58.0076 136.073 57.4012 135.193 56.9448C134.372 56.5032 133.494 56.1764 132.585 55.9733C131.574 55.7647 130.674 56.1689 129.716 55.706L130.238 55.8364L129.853 55.8951C128.751 56.0646 127.564 53.4436 128.855 53.2414C129.157 53.2253 129.46 53.2494 129.755 53.3132C130.094 53.2959 130.431 53.2589 130.766 53.2023C131.574 53.2178 132.375 53.3699 133.132 53.6522C133.857 53.8988 134.561 54.2018 135.238 54.5585C135.89 54.8975 136.542 55.4517 137.325 55.2887C138.131 55.0261 138.921 54.717 139.692 54.3629C140.49 54.0961 141.31 53.8998 142.143 53.7761C143.678 53.5659 145.238 53.6078 146.759 53.9C149.992 54.6063 153.024 56.0351 155.626 58.0793C156.9 59.0598 158.101 60.1319 159.219 61.2871C159.741 61.8152 160.08 61.5349 160.758 61.3458C161.552 61.1129 162.375 60.9986 163.203 61.0068C164.888 61.0614 166.54 61.489 168.041 62.2586C168.877 62.6695 169.684 63.1401 170.453 63.6669C170.863 63.9421 171.257 64.2403 171.633 64.5602C171.777 64.684 171.92 64.8144 172.057 64.9514L172.305 65.2122C172.539 65.4599 172.572 65.4925 172.409 65.3034L171.887 65.173C172.174 65.173 172.539 64.7362 172.787 64.5928C173.021 64.4559 173.265 64.3382 173.517 64.2407C174.093 64.0197 174.708 63.9198 175.323 63.9473C176.607 64.0676 177.837 64.5168 178.896 65.2513L177.977 65.3491C179.421 62.496 181.416 59.9566 183.845 57.8772C186.287 55.6891 188.903 53.7047 191.669 51.944C197.765 48.032 204.709 46.5715 211.881 47.0279C218.845 47.5068 225.634 49.425 231.819 52.6612C237.055 55.3855 241.274 59.7251 243.849 65.0361C245.394 68.1911 246.41 71.579 246.854 75.0639C247.076 76.9221 247.089 78.7868 247.154 80.6515C247.2 81.9555 246.991 83.403 248.093 84.3027C249.195 85.2025 250.577 85.9849 251.77 86.8781C252.991 87.793 254.164 88.7701 255.285 89.8056C257.576 91.9166 259.6 94.3012 261.309 96.9059C265.032 102.598 267.177 109.607 264.308 116.14C263.138 118.771 261.349 121.079 259.092 122.869C256.693 124.825 253.792 125.926 251.268 127.687C251.131 127.785 251.223 127.654 251.223 127.687C251.263 127.91 251.327 128.129 251.412 128.339C251.684 129.118 251.902 129.916 252.064 130.725C252.334 132.275 252.354 133.857 252.122 135.413C251.692 138.235 250.484 140.881 248.634 143.054C246.762 145.32 244.269 146.99 241.462 147.86C238.059 148.877 234.538 148.12 231.454 146.51C229.837 145.669 228.272 144.73 226.681 143.83L227.718 142.891L228.031 144.906C228.11 145.22 228.16 145.541 228.181 145.865C228.181 146.471 227.099 145.141 227.594 145.245C227.793 145.305 227.986 145.386 228.168 145.486C229.243 145.99 230.21 146.696 231.017 147.566C231.92 148.535 232.586 149.699 232.963 150.969C233.34 152.238 233.417 153.578 233.188 154.882C232.678 157.316 231.308 159.485 229.329 160.991C228.372 161.755 227.233 162.256 226.023 162.445C225.651 162.484 224.888 162.236 224.582 162.445C224.445 162.53 224.373 162.869 224.308 163.006C224.139 163.377 223.963 163.742 223.787 164.114C223.721 164.257 223.656 164.603 223.539 164.688C223.539 164.87 223.467 164.851 223.428 164.636C223.389 164.42 223.33 164.401 223.487 164.583C223.786 164.799 224.068 165.039 224.328 165.301C224.895 165.751 225.482 166.155 226.082 166.553L227.927 167.772C228.553 168.282 229.206 168.758 229.883 169.2L229.361 169.069C229.785 169.03 230.261 168.574 230.665 168.417C231.057 168.259 231.463 168.139 231.878 168.059C232.707 167.915 233.557 167.955 234.369 168.176C236.051 168.673 237.527 169.702 238.574 171.11C239.85 172.734 240.557 174.731 240.589 176.795C240.589 177.089 240.589 177.376 240.543 177.669C240.497 177.963 240.615 178.491 240.308 177.741C239.943 176.848 240.452 177.643 240.686 177.884L241.169 178.412C241.547 178.836 241.906 179.28 242.258 179.716C242.434 179.938 242.603 180.166 242.773 180.368L242.994 180.688C243.184 180.975 243.066 180.851 242.636 180.323L242.114 180.192C243.033 180.158 243.952 180.214 244.859 180.362C245.788 180.621 246.655 181.064 247.409 181.666C248.902 182.917 250.058 184.522 250.773 186.334C251.608 188.235 251.782 190.36 251.268 192.372C251.031 193.213 250.642 194.004 250.121 194.706C249.971 194.901 249.808 195.084 249.638 195.267C249.567 195.351 249.28 195.814 249.358 195.436C249.384 195.751 249.455 196.06 249.567 196.355C249.651 196.766 249.736 197.17 249.814 197.581C250.839 202.522 250.806 207.624 249.717 212.551C249.144 214.894 248.267 217.152 247.109 219.267C245.981 221.334 244.455 223.277 243.555 225.461C243.092 226.576 243.555 227.541 244.07 228.538C244.722 229.751 245.374 230.951 246.026 232.157C247.193 234.354 248.458 236.571 249.149 238.97C250.453 243.573 249.756 248.665 248.119 253.092C247.323 255.24 246.196 257.251 244.781 259.052C244.077 259.941 243.329 260.794 242.538 261.608C242.185 261.931 241.931 262.347 241.803 262.808C241.675 263.269 241.679 263.757 241.814 264.216C242.439 266.524 242.826 268.89 242.968 271.277C243.019 273.656 242.736 276.031 242.127 278.331C241.059 282.724 238.756 286.72 235.49 289.846C233.98 291.26 232.188 292.34 230.232 293.014C228.276 293.688 226.199 293.941 224.139 293.758C219.751 293.367 215.376 291.508 211.751 289.089C209.836 287.796 208.007 286.38 206.274 284.851C205.797 284.503 205.359 284.103 204.97 283.658L204.768 283.45C205.055 283.502 205.081 283.573 204.839 283.658C204.729 283.815 204.35 283.945 204.187 284.03C203.199 284.558 202.165 284.995 201.097 285.334C192.204 288.118 181.824 284.225 175.786 277.425C172.904 274.165 171.255 270.299 170.29 266.113C170.147 265.5 170.016 264.881 169.892 264.268C169.827 263.955 169.768 263.648 169.703 263.342C169.597 263.044 169.535 262.732 169.521 262.416L170.31 263.303H169.658C169.345 263.303 169.006 263.27 168.706 263.27C168.083 263.28 167.46 263.254 166.841 263.192C164.865 262.875 163.007 262.043 161.455 260.78C159.636 259.391 158.072 257.696 156.833 255.772C156.285 254.925 155.842 254.018 155.353 253.164C154.726 252.264 153.98 251.452 153.136 250.752C149.757 247.201 147.448 242.769 146.472 237.966C145.43 233.053 145.519 227.967 146.733 223.094C146.877 222.488 147.04 221.881 147.209 221.275C147.41 220.832 147.491 220.344 147.444 219.86C147.327 219.338 147.066 218.843 146.935 218.321C146.759 217.611 146.629 216.887 146.498 216.17C146.296 215.035 146.153 213.894 146.062 212.747C146.07 212.495 146.048 212.243 145.996 211.997C146.081 212.232 146.14 212.16 145.86 211.951C145.339 211.502 144.867 210.999 144.451 210.452C143.688 209.568 142.988 208.631 142.358 207.648C141.738 206.769 141.295 205.776 141.054 204.727C140.943 204.075 141.341 203.325 142.091 203.788C142.984 204.349 143.727 205.092 144.608 205.686C145.561 206.277 146.592 206.732 147.672 207.035C149.773 207.631 151.959 207.874 154.14 207.752C158.34 207.556 162.447 206.455 166.182 204.525C173.576 200.815 180.657 195.482 183.682 187.514C185.136 183.7 185.736 179.253 184.543 175.283C183.99 173.384 183.071 171.612 181.837 170.067C180.553 168.67 178.922 167.637 177.11 167.074C174.931 166.303 172.589 166.117 170.316 166.533C167.975 166.963 165.752 168.026 163.581 168.991C162.492 169.473 161.41 169.982 160.321 170.53C159.885 170.716 159.472 170.95 159.089 171.227C158.743 171.514 158.521 171.879 158.058 171.984C157.035 172.238 156.35 171.332 155.718 170.68C155.085 170.028 154.244 169.304 153.579 168.528C150.787 165.218 149.07 161.135 148.657 156.825C148.479 154.465 148.527 152.094 148.8 149.744C148.852 149.183 149.191 147.971 148.911 147.449C148.774 147.188 148.259 146.973 148.037 146.797C147.564 146.433 147.109 146.046 146.675 145.636C143.859 142.875 141.694 139.52 140.337 135.817C138.638 131.568 137.668 127.062 137.468 122.49C137.429 121.349 137.436 120.208 137.468 119.067C137.468 118.415 137.703 117.613 137.142 117.15C136.425 116.551 135.597 116.101 134.886 115.475C134.119 114.811 133.436 114.056 132.852 113.225C131.572 111.355 130.771 109.199 130.518 106.947C130.231 104.521 130.792 102.383 131.229 100.009C131.268 99.7682 131.326 99.5204 131.353 99.2792L131.392 99.0444C131.392 98.8032 131.392 98.7641 131.392 98.9271C132.181 99.3639 131.066 99.1488 130.916 99.1618C129.755 99.24 128.679 99.8138 127.604 100.179C125.394 100.957 123.049 101.277 120.712 101.118C118.368 100.849 116.061 100.322 113.833 99.5465C112.914 99.2726 111.988 98.8162 111.03 99.1422C110.071 99.4682 109.341 100.342 108.533 100.929C106.775 102.214 104.759 103.103 102.625 103.537C100.35 103.974 98.0092 103.7 95.7272 103.426C94.2928 103.263 91.9 102.402 91.1632 104.15C90.787 105.178 90.4949 106.236 90.2896 107.312C90.0157 108.414 89.7875 109.529 89.442 110.611C86.834 118.683 79.7858 123.892 72.9007 128.215C71.9684 128.802 71.0295 129.369 70.0906 129.93C69.6963 130.165 69.279 130.359 68.8453 130.51C68.591 130.595 68.1933 130.673 68.0368 130.953C67.763 131.553 67.2218 131.488 66.7328 131.097L66.6219 131.045L67.1436 131.175C66.6937 131.175 66.1656 131.664 65.7287 131.827C65.239 132.014 64.7207 132.116 64.1965 132.127C63.0465 132.087 61.9252 131.757 60.9365 131.168C59.2055 130.198 57.7907 128.749 56.8615 126.996C55.8215 125.111 55.3144 122.979 55.3945 120.828C55.551 118.513 56.5681 116.759 57.8917 114.921C58.4031 114.125 58.6622 113.193 58.6349 112.247C58.6816 111.165 58.7971 110.087 58.9805 109.02C59.286 107.027 60.037 105.128 61.1777 103.465C62.247 101.965 64.366 100.857 64.6268 98.901C64.7637 97.8774 64.2747 96.8472 64.177 95.8301C64.0882 94.5252 64.1297 93.2147 64.3008 91.9181C65.3571 82.7444 71.3816 75.0052 78.4688 69.4893C82.1541 66.5508 86.1852 64.0743 90.4721 62.1152C92.6247 61.1642 94.8594 60.4113 97.1486 59.8658C99.5994 59.2223 102.126 58.9131 104.66 58.9464C107.359 59.149 109.998 59.8474 112.445 61.0068C113.219 61.4559 114.044 61.8105 114.903 62.063C114.968 62.0828 115.038 62.0871 115.106 62.0758C115.174 62.0645 115.238 62.0378 115.294 61.9978C115.56 61.8378 115.803 61.6427 116.017 61.4175C117.775 59.6535 119.657 58.0192 121.651 56.5275C122.706 55.7929 123.816 55.139 124.969 54.5715C125.526 54.2706 126.112 54.026 126.717 53.8413C127.344 53.7272 127.954 53.5298 128.529 53.2545C129.54 52.6286 131 55.1322 129.97 55.7321Z" fill="#1E0602"/>
<path d="M380.262 304.933L337.138 324.408C336.61 323.052 336.076 321.696 335.567 320.333C334.83 318.377 334.074 316.421 333.253 314.504C332.007 311.557 330.755 308.636 329.575 305.65C328.891 303.916 328.167 302.194 327.45 300.473C326.648 298.517 325.904 296.561 325.142 294.644C324.437 292.845 323.72 291.058 323.029 289.259C322.377 287.622 321.784 285.999 321.132 284.362C320.082 281.754 319.039 279.146 318.022 276.492C317.252 274.497 316.459 272.511 315.642 270.533C314.664 268.166 313.686 265.787 312.747 263.413C311.926 261.386 311.091 259.358 310.217 257.356C308.874 254.27 307.549 251.182 306.24 248.091C305.112 245.418 303.841 242.804 302.615 240.169C301.083 236.909 299.727 233.506 297.51 230.572C296.519 229.09 295.417 227.686 294.211 226.373C290.073 222.504 285.689 218.906 281.086 215.602C276.926 212.531 272.727 209.499 268.783 206.142C265.737 203.677 263.339 200.506 261.8 196.903C261.707 196.714 261.602 196.531 261.487 196.355L261.448 196.27C261.411 196.113 261.363 195.958 261.304 195.807C260.81 194.644 260.39 193.451 260.046 192.234C259.29 189.972 258.742 187.67 258.09 185.369C257.314 182.539 256.669 179.683 256.056 176.815C255.586 174.604 256.499 172.251 258.305 171.279C260.261 170.249 262.1 169.115 264.088 168.208C264.291 168.146 264.477 168.037 264.63 167.889C265.41 166.895 266.269 165.967 267.198 165.111C267.295 165.026 267.369 164.916 267.411 164.794C267.453 164.672 267.463 164.541 267.44 164.414C267.26 163.284 267.397 162.127 267.837 161.071C268.277 160.015 269.002 159.102 269.93 158.435C271.058 157.64 272.322 157.059 273.66 156.72C274.378 156.465 275.16 156.46 275.881 156.707C276.602 156.953 277.218 157.435 277.63 158.076C278.685 159.528 279.635 161.053 280.473 162.64C280.806 163.247 281.125 163.846 281.458 164.472C281.476 163.816 281.541 163.163 281.653 162.516C281.881 161.212 282.266 159.987 283.381 159.139C283.737 158.886 284.074 158.61 284.392 158.311C285.003 157.69 285.829 157.326 286.7 157.294C287.621 157.284 288.542 157.356 289.451 157.509C289.852 157.584 290.233 157.74 290.573 157.965C291.486 158.593 292.199 159.472 292.626 160.495C293.189 161.699 293.686 162.933 294.113 164.192C294.421 164.866 294.693 165.556 294.928 166.259C294.869 165.515 294.765 164.779 294.693 164.042C294.538 163.12 294.702 162.173 295.156 161.356C295.644 160.508 296.358 159.813 297.218 159.346C298.078 158.88 299.05 158.662 300.027 158.715C301.62 158.797 303.177 159.222 304.591 159.96C305.357 160.333 306.035 160.864 306.579 161.52C307.124 162.175 307.521 162.94 307.746 163.762C308.144 164.916 308.468 166.094 308.718 167.289C308.887 166.35 309.33 165.481 309.989 164.792C310.81 164.006 311.801 163.42 312.884 163.077C314.143 162.622 315.46 162.348 316.796 162.262C317.404 162.202 318.017 162.277 318.592 162.482C319.167 162.688 319.689 163.018 320.121 163.449C320.407 163.753 320.712 164.038 321.034 164.303C324 166.832 326.471 169.89 328.323 173.32C329.487 175.513 330.511 177.778 331.388 180.101C331.746 180.974 332.04 181.861 332.353 182.748C332.927 184.437 333.474 186.132 334.041 187.82C334.77 189.74 335.192 191.762 335.293 193.812C335.376 198.386 335.159 202.96 334.641 207.504C334.395 208.94 334.406 210.408 334.674 211.84C335.298 214.408 336.134 216.92 337.171 219.351C338.24 221.959 339.44 224.567 340.711 227.097C341.983 229.627 343.319 232.313 344.682 234.921C345.495 236.494 346.29 238.072 347.068 239.654C347.42 240.365 347.76 241.089 348.138 241.786C348.972 243.325 349.872 244.831 350.615 246.416C352.689 250.817 354.527 255.328 356.718 259.684C357.559 261.353 358.289 263.074 359.137 264.73C359.554 265.558 359.932 266.399 360.363 267.221C361.315 269.06 362.319 270.885 363.258 272.724C363.955 274.08 364.607 275.456 365.324 276.799C366.531 279.042 367.672 281.311 368.813 283.586C369.334 284.629 369.895 285.653 370.436 286.69L373.214 291.906C373.742 292.91 374.263 293.914 374.804 294.911C375.6 296.391 376.408 297.871 377.217 299.352C377.732 300.297 378.267 301.242 378.788 302.194C379.31 303.146 379.779 304.02 380.262 304.933Z" fill="#7B1C05"/>
<path d="M380.262 304.933L337.138 324.409C325.592 296.373 315.27 267.763 302.582 240.17C298.781 229.419 290.129 221.979 281.066 215.603C273.842 209.943 265.079 205.164 261.454 196.297C260.134 192.728 259.011 189.088 258.09 185.396C257.438 181.027 253.578 174.351 258.305 171.306C260.378 170.119 262.53 169.024 264.63 167.915C265.334 166.611 267.114 165.849 267.44 164.44C266.788 160.45 270.048 157.536 273.666 156.708C278.113 155.567 279.534 161.63 281.49 164.466C281.047 159.596 286.106 155.521 290.618 157.946C293.226 159.902 293.676 163.43 294.974 166.207C293.148 159.557 299.322 156.916 304.617 159.909C307.57 161.291 308.046 164.375 308.77 167.27C309.494 163.599 313.601 162.53 316.822 162.243C326.002 164.003 331.512 179.775 334.041 187.821C337.817 198.07 331.609 209.474 337.197 219.352C351.065 248.105 364.894 276.917 380.262 304.933Z" fill="#2D0A06"/>
<path d="M380.835 306.328L347.309 321.467L337.738 325.803C337.086 326.09 336.551 325.294 336.349 324.818C329.894 309.125 323.824 293.281 317.513 277.535C314.376 269.711 311.182 261.887 307.85 254.161C306.189 250.288 304.488 246.433 302.745 242.595C301.975 240.893 301.343 239.139 300.547 237.45C299.824 235.938 298.996 234.479 298.07 233.082C294.353 227.422 289.137 222.891 283.726 218.894C281.079 216.925 278.423 214.969 275.758 213.026C273.056 211.139 270.471 209.088 268.019 206.884C265.591 204.701 263.525 202.146 261.897 199.315C259.993 195.872 258.956 191.954 257.92 188.185C257.483 186.62 257.163 185.036 256.733 183.478C256.361 182.115 255.918 180.778 255.586 179.403C254.979 176.951 254.562 173.9 256.29 171.781C257.392 170.425 259.165 169.72 260.671 168.919L263.279 167.543C263.957 167.065 264.568 166.499 265.098 165.861C265.659 165.457 266.12 164.93 266.448 164.322C266.552 164.022 266.487 164.733 266.448 164.074C266.448 163.905 266.448 163.735 266.409 163.572C266.361 162.63 266.515 161.689 266.859 160.811C267.203 159.934 267.729 159.139 268.404 158.48C270.132 156.752 273.242 155.122 275.719 156.028C278.047 156.883 279.351 159.36 280.407 161.447C280.882 162.474 281.425 163.47 282.031 164.426L280.512 164.302C280.212 160.221 283.498 156.139 287.788 156.478C293.004 156.876 293.878 162.633 295.612 166.5L293.982 166.356C293.147 163.161 293.917 159.491 297.359 158.317C300.802 157.143 304.844 158.76 307.237 161.264C308.811 163.039 309.9 165.191 310.399 167.51L308.697 166.565C308.909 165.51 309.409 164.534 310.142 163.747C310.876 162.959 311.813 162.391 312.851 162.105C313.886 161.773 314.96 161.571 316.046 161.505C317.017 161.531 317.969 161.778 318.83 162.229C322.487 163.826 325.18 167.21 327.26 170.503C329.541 174.252 331.418 178.231 332.861 182.376C334.419 186.607 335.964 190.904 336.166 195.416C336.421 201.023 335.162 206.624 335.71 212.224C335.828 213.573 336.086 214.906 336.479 216.202C336.962 217.559 337.544 218.88 338.22 220.153L342.575 229.183C348.365 241.173 354.174 253.157 360.127 265.043C366.08 276.929 372.157 288.834 378.494 300.57C379.283 302.018 380.065 303.465 380.861 304.906C381.063 305.278 381.317 306.047 380.861 306.328C380.404 306.608 379.811 306.002 379.616 305.636C373.363 294.239 367.364 282.706 361.509 271.08C355.655 259.455 349.93 247.804 344.258 236.101C341.46 230.324 338.585 224.573 335.847 218.764C333.473 213.73 333.663 208.182 334.067 202.77C334.334 200.01 334.438 197.236 334.38 194.464C334.212 192.018 333.716 189.606 332.906 187.292C331.746 183.541 330.344 179.869 328.707 176.299C327.045 172.765 325.011 169.127 322.077 166.467C320.845 165.295 319.362 164.421 317.741 163.911C316.735 163.724 315.698 163.787 314.722 164.094C313.71 164.288 312.757 164.714 311.938 165.339C311.141 166.042 310.609 166.997 310.432 168.045C310.341 168.475 309.884 168.482 309.565 168.325C309.349 168.189 309.163 168.01 309.018 167.799C308.874 167.588 308.773 167.35 308.724 167.099C308.228 165.143 307.38 163.233 305.724 162.007C304.217 160.873 302.394 160.237 300.508 160.188C299.752 160.158 298.998 160.293 298.299 160.583C297.599 160.874 296.972 161.313 296.459 161.87C295.286 163.292 295.312 165.13 295.755 166.813C295.866 167.223 295.684 167.712 295.214 167.699C294.745 167.686 294.314 167.08 294.125 166.663C293.362 165 292.939 163.2 292.169 161.551C291.829 160.759 291.322 160.049 290.683 159.471C289.975 158.969 289.125 158.704 288.257 158.715C284.743 158.65 282.07 161.975 282.318 165.319C282.328 165.399 282.321 165.48 282.297 165.556C282.273 165.632 282.233 165.703 282.179 165.762C282.124 165.821 282.058 165.867 281.984 165.898C281.91 165.928 281.83 165.942 281.75 165.939C281.333 165.939 281.014 165.509 280.805 165.196C279.56 163.35 278.908 161.134 277.512 159.386C277.239 159.006 276.884 158.691 276.473 158.466C276.063 158.24 275.607 158.109 275.139 158.082C273.793 158.146 272.49 158.577 271.37 159.328C270.107 160.042 269.115 161.154 268.547 162.49C268.311 163.094 268.196 163.739 268.208 164.387C268.208 165.215 268.319 165.763 267.843 166.5C267.437 167.055 266.959 167.555 266.422 167.986C265.77 168.566 265.431 169.258 264.668 169.662C262.914 170.581 261.16 171.481 259.452 172.452C258.843 172.744 258.306 173.167 257.879 173.689C257.452 174.212 257.145 174.823 256.981 175.478C256.778 176.677 256.832 177.906 257.137 179.083C257.424 180.446 257.848 181.769 258.233 183.106C258.617 184.443 258.885 185.838 259.256 187.201C260.241 190.852 261.167 194.744 262.914 198.115C264.386 200.833 266.316 203.277 268.619 205.339C270.984 207.456 273.473 209.431 276.071 211.253C278.679 213.137 281.242 215.041 283.83 216.945C289.164 220.857 294.262 225.284 298.174 230.676C300.166 233.401 301.8 236.37 303.038 239.511C304.499 243.266 306.298 246.904 307.922 250.595C311.182 258.125 314.357 265.721 317.434 273.343C323.596 288.58 329.477 303.935 335.658 319.172C336.41 321.032 337.166 322.886 337.927 324.734L336.544 323.742L370.012 308.551L379.609 304.215C380.541 303.791 381.721 305.93 380.835 306.328Z" fill="#0B0300"/>
<path d="M290.703 158.182C291.229 158.568 291.672 159.056 292.007 159.616C292.848 160.848 293.187 162.309 293.807 163.639C294.231 164.565 294.524 165.543 294.954 166.475L294.7 164.832C294.758 164.863 294.808 164.906 294.846 164.96C294.885 165.013 294.911 165.074 294.922 165.138C295.335 166.408 295.743 167.681 296.148 168.959C296.487 170.037 296.821 171.124 297.152 172.219C297.504 173.36 297.843 174.501 298.201 175.642C298.488 176.568 298.788 177.487 299.095 178.407C299.889 180.708 300.542 183.055 301.051 185.435C301.531 187.685 301.75 189.982 301.703 192.281C301.644 194.081 301.351 195.796 300.203 197.256C300.05 197.488 299.858 197.691 299.636 197.856C299.245 198.078 299.336 198.306 299.525 198.593C300.77 200.496 302.061 202.368 303.241 204.311C304.356 206.143 305.615 207.89 306.599 209.794C306.665 209.912 306.704 210.043 306.713 210.178C306.722 210.313 306.7 210.448 306.649 210.573C306.598 210.698 306.52 210.811 306.42 210.902C306.32 210.992 306.201 211.06 306.071 211.098C305.903 211.166 305.715 211.17 305.544 211.109C305.374 211.047 305.231 210.925 305.145 210.765C303.509 208.19 301.885 205.602 300.249 203.046C299.067 201.1 297.779 199.222 296.389 197.419C294.87 195.585 293.218 193.866 291.447 192.275C290.677 191.511 289.859 190.798 288.995 190.143C288.343 189.686 287.756 189.139 287.078 188.715C286.544 188.382 286.172 187.854 285.624 187.515C284.746 186.942 283.818 186.446 282.853 186.035C281.311 185.358 279.709 184.828 278.068 184.451C277.474 184.333 276.861 184.281 276.183 184.183C277.044 187.143 276.412 189.967 275.825 192.783C275.538 194.146 275.173 195.489 274.873 196.845C274.777 197.206 274.616 197.547 274.397 197.849C274.352 197.924 274.293 197.988 274.223 198.039C274.153 198.091 274.073 198.127 273.989 198.147C273.905 198.167 273.817 198.17 273.731 198.156C273.646 198.142 273.564 198.111 273.491 198.064C273.345 197.989 273.232 197.861 273.177 197.706C273.121 197.551 273.126 197.381 273.191 197.23C274.195 194.544 274.566 191.714 275.036 188.91C275.293 187.45 275.208 185.951 274.788 184.529C274.729 184.34 274.697 184.105 274.534 184.02C274.237 183.822 273.988 183.561 273.803 183.255C273.619 182.95 273.503 182.608 273.464 182.253C273.438 182.204 273.405 182.157 273.367 182.117C272.891 182.769 272.434 183.421 271.965 184.073C271.733 184.445 271.421 184.762 271.052 184.998C270.975 185.052 270.888 185.09 270.796 185.11C270.704 185.13 270.609 185.131 270.517 185.113C270.424 185.095 270.336 185.059 270.258 185.007C270.18 184.955 270.113 184.888 270.061 184.809C269.8 184.451 269.983 184.157 270.276 183.831C271.073 183.028 271.722 182.09 272.193 181.06L272.284 180.976H272.245L272.18 181.073C271.783 181.291 271.412 181.551 271.072 181.849C270.563 182.201 270.087 182.169 269.813 181.725C269.539 181.282 269.689 180.904 270.211 180.571C271.435 179.78 272.516 178.785 273.406 177.631C274.352 176.459 275.174 175.191 275.857 173.849C276.758 172.196 277.371 170.401 277.67 168.542C277.783 167.636 277.648 166.717 277.279 165.882C277.044 165.052 276.576 164.307 275.929 163.737C275.458 163.451 274.957 163.217 274.436 163.039C274.755 162.661 275.284 162.491 275.316 161.931C275.316 161.8 275.479 161.898 275.557 161.931C276.625 162.3 277.516 163.056 278.055 164.05C278.776 165.282 279.158 166.684 279.163 168.112C279.133 168.97 278.991 169.82 278.739 170.641C277.814 173.722 276.26 176.577 274.175 179.026C274.092 179.111 274.041 179.222 274.028 179.34C274.015 179.458 274.041 179.577 274.103 179.678C274.458 180.491 274.751 181.33 274.977 182.188C275.062 182.456 275.166 182.579 275.42 182.606L277.5 182.834C278.789 183.046 280.055 183.378 281.282 183.825C282.855 184.301 284.382 184.916 285.846 185.663C286.042 185.768 286.27 185.624 286.498 185.833C286.322 184.873 286.054 183.931 285.696 183.023C285.279 181.523 284.777 180.037 284.301 178.55C283.968 177.52 283.61 176.503 283.264 175.473C282.879 174.332 282.514 173.178 282.11 172.037C281.771 171.078 281.458 170.113 281.139 169.148C280.663 167.688 280.213 166.227 279.835 164.747C279.456 163.267 279.065 161.644 278.687 160.092C278.666 159.982 278.655 159.871 278.654 159.759C279.081 160.334 279.457 160.945 279.776 161.585C280.381 162.576 280.919 163.606 281.386 164.669C281.582 164.421 281.386 164.174 281.491 163.958C281.784 164.949 282.071 165.914 282.377 166.925C282.834 168.405 283.284 169.885 283.773 171.352C284.262 172.819 284.79 174.214 285.266 175.649C285.857 177.461 286.431 179.276 286.987 181.093C287.515 182.834 288.011 184.588 288.526 186.342C288.642 187.077 289.039 187.739 289.634 188.187C290.938 189.021 291.688 190.364 292.783 191.395C294.315 192.842 295.593 194.524 297.021 196.069C297.248 196.345 297.533 196.568 297.856 196.721C297.964 196.779 298.084 196.811 298.206 196.817C298.328 196.823 298.451 196.802 298.564 196.755C298.677 196.708 298.779 196.637 298.861 196.547C298.944 196.457 299.006 196.349 299.042 196.232C299.134 195.991 299.166 195.73 299.277 195.496C299.595 194.84 299.793 194.134 299.864 193.409C300.033 191.552 299.963 189.681 299.655 187.841C299.431 186.339 299.115 184.852 298.71 183.388C298.358 182.119 297.971 180.856 297.549 179.6C297.145 178.374 296.773 177.142 296.389 175.91C295.954 174.54 295.519 173.171 295.085 171.802C294.713 170.615 294.361 169.429 293.976 168.249C293.546 166.945 293.083 165.641 292.672 164.304C292.262 162.967 291.734 161.52 291.31 160.118C291.042 159.495 290.839 158.846 290.703 158.182Z" fill="#0B0300"/>
<path d="M306.592 161.695C307.022 162.302 307.348 162.977 307.557 163.69C307.976 164.866 308.322 166.065 308.594 167.283C308.765 166.714 308.983 166.16 309.246 165.627C309.676 165.972 309.585 166.52 309.689 166.931C310.719 171.241 311.534 175.589 312.362 179.971C312.878 182.703 313.464 185.422 313.888 188.173C314.406 191.114 314.452 194.118 314.025 197.073C313.892 198.138 313.473 199.147 312.812 199.994C312.665 200.164 312.499 200.317 312.317 200.45C311.939 200.724 311.665 200.613 311.632 200.15C311.63 200.023 311.599 199.899 311.541 199.786C311.484 199.673 311.401 199.575 311.3 199.498C311.258 199.479 311.223 199.45 311.196 199.414C311.169 199.377 311.151 199.335 311.146 199.29C311.14 199.245 311.145 199.199 311.162 199.157C311.179 199.114 311.206 199.077 311.241 199.048C312.232 197.92 312.284 196.499 312.402 195.136C312.695 191.694 312.089 188.323 311.443 184.965C311.065 182.964 310.648 180.968 310.27 178.967C309.618 175.622 308.998 172.271 308.242 168.946C307.707 166.598 307.146 164.264 306.605 161.917C306.592 161.844 306.588 161.769 306.592 161.695Z" fill="#0B0300"/>
<path d="M302.127 175.055C303.027 174.768 303.822 174.501 304.624 174.259C304.79 174.211 304.967 174.213 305.131 174.267C305.295 174.32 305.439 174.422 305.544 174.559C305.633 174.665 305.686 174.797 305.696 174.935C305.705 175.074 305.67 175.212 305.596 175.329C305.535 175.489 305.426 175.625 305.283 175.719C305.14 175.813 304.971 175.859 304.8 175.85C304.303 175.866 303.814 175.986 303.366 176.202C302.955 176.333 302.551 176.535 302.114 176.255C302.007 176.198 301.918 176.111 301.86 176.004C301.802 175.897 301.777 175.776 301.788 175.655C301.789 175.534 301.82 175.415 301.879 175.31C301.939 175.205 302.024 175.117 302.127 175.055Z" fill="#0B0300"/>
<path d="M279.142 177.728C278.631 178.003 278.07 178.174 277.492 178.23C277.319 178.265 277.14 178.229 276.993 178.132C276.846 178.034 276.744 177.882 276.71 177.709C276.675 177.536 276.711 177.356 276.808 177.21C276.906 177.063 277.058 176.961 277.231 176.926C277.984 176.701 278.713 176.404 279.409 176.04C279.898 175.798 280.309 175.903 280.491 176.281C280.536 176.381 280.56 176.489 280.561 176.599C280.561 176.708 280.539 176.817 280.496 176.918C280.452 177.018 280.388 177.109 280.308 177.183C280.227 177.258 280.132 177.315 280.028 177.35C279.774 177.461 279.5 177.572 279.142 177.728Z" fill="#0B0300"/>
<path d="M304.147 178.556C304.649 178.393 305.144 178.21 305.659 178.08C305.878 178.017 306.113 178.04 306.315 178.144C306.517 178.248 306.672 178.426 306.748 178.64C306.84 179.064 306.566 179.384 306.018 179.521C305.47 179.658 305.034 179.814 304.532 179.938C304.029 180.062 303.834 179.794 303.697 179.397C303.656 179.226 303.679 179.046 303.762 178.891C303.845 178.735 303.982 178.616 304.147 178.556Z" fill="#0B0300"/>
<path d="M272.196 181.073L272.261 180.975H272.301L272.209 181.06L272.196 181.073Z" fill="#7B1C05"/>
<path d="M289.222 172.219L290.2 171.776C290.419 171.663 290.672 171.641 290.907 171.714C291.141 171.788 291.337 171.95 291.452 172.167C291.49 172.271 291.505 172.382 291.495 172.492C291.486 172.602 291.452 172.709 291.397 172.805C291.341 172.9 291.266 172.983 291.175 173.046C291.084 173.11 290.981 173.152 290.872 173.171C290.129 173.413 289.431 173.758 288.714 174.038C288.632 174.086 288.541 174.116 288.446 174.125C288.352 174.134 288.257 174.122 288.167 174.09C288.078 174.058 287.996 174.008 287.929 173.941C287.861 173.875 287.809 173.795 287.775 173.706C287.732 173.619 287.707 173.524 287.701 173.427C287.695 173.33 287.709 173.233 287.741 173.141C287.773 173.049 287.823 172.965 287.888 172.893C287.954 172.821 288.033 172.763 288.121 172.721C288.479 172.532 288.857 172.389 289.229 172.219H289.222Z" fill="#0B0300"/>
<path d="M311.11 199.113C311.918 204.081 310.777 206.285 307.263 205.828C304.564 204.316 304.753 199.654 304.766 196.863C304.89 195.051 305.926 194.255 307.582 194.164C310.758 193.871 310.621 196.948 311.11 199.113Z" fill="#37188B" stroke="#0B0300" stroke-width="1.85" stroke-miterlimit="10"/>
<path d="M320.675 197.79C320.806 199.746 319 203.658 316.809 201.35C315.694 198.945 315.265 196.277 315.57 193.644C315.727 191.733 318.354 191.075 319.613 192.405C320.565 193.943 320.747 196.023 320.675 197.79Z" fill="#F963AB" stroke="#0B0300" stroke-width="1.85" stroke-miterlimit="10"/>
<path d="M275.25 161.839C274.455 163.86 266.937 168.509 264.616 167.818C265.85 166.142 267.377 164.702 269.121 163.567C270.536 163.149 274.233 160.43 275.25 161.839Z" fill="#37188B" stroke="#0B0300" stroke-width="1.85" stroke-miterlimit="10"/>
<path d="M290.583 188.928C290.629 186.835 293.576 186.848 295.102 186.509C296.367 186.34 297.168 187.116 297.625 188.465C301.974 203.083 295.838 194.946 290.583 188.928Z" fill="#37188B" stroke="#0B0300" stroke-width="1.85" stroke-miterlimit="10"/>
<path d="M159.231 210.074C159.154 209.894 159.018 209.745 158.845 209.654C158.671 209.563 158.472 209.534 158.28 209.572C157.686 209.67 157.086 209.754 156.487 209.846C155.887 209.937 155.906 210.243 156.024 210.706C156.405 211.999 156.357 213.38 155.887 214.642C155.417 215.905 154.549 216.981 153.416 217.709C151.918 218.723 150.116 219.19 148.314 219.029C146.512 218.869 144.82 218.092 143.525 216.829C141.491 214.768 141.236 210.765 142.945 208.007C143.559 206.929 144.462 206.044 145.553 205.451C145.957 205.243 146.309 205.014 146.107 204.486C146.025 204.289 145.873 204.131 145.679 204.041C145.486 203.952 145.266 203.938 145.064 204.004C144.34 204.125 143.663 204.443 143.108 204.923C141.751 206 140.704 207.418 140.075 209.032C139.447 210.646 139.258 212.399 139.528 214.11C139.708 215.818 140.397 217.432 141.507 218.744C142.616 220.055 144.094 221.003 145.748 221.464C152.992 223.805 158.651 218.778 159.303 212.336C159.334 211.649 159.318 210.961 159.258 210.276C159.251 210.204 159.245 210.139 159.231 210.074Z" fill="#431FAD"/>
</g>
</svg>
